Waiting for data. Press Ctrl+C to end.
Source  Event                  Ch  Data
  0:1   Port subscribed            129:0 -> 128:0
129:0   Control change          0, controller 0, value 0
129:0   Program change          0, program 68
129:0   Control change          0, controller 10, value 27
129:0   Control change          0, controller 91, value 70
129:0   Control change          0, controller 93, value 0
129:0   Control change          1, controller 0, value 0
129:0   Program change          1, program 57
129:0   Control change          1, controller 10, value 99
129:0   Control change          1, controller 91, value 127
129:0   Control change          1, controller 93, value 127
129:0   Control change          1, controller 0, value 0
129:0   Program change          1, program 57
129:0   Control change          1, controller 10, value 99
129:0   Control change          1, controller 91, value 127
129:0   Control change          1, controller 93, value 127
129:0   Control change          2, controller 0, value 0
129:0   Program change          2, program 60
129:0   Control change          2, controller 10, value 63
129:0   Control change          2, controller 91, value 127
129:0   Control change          2, controller 93, value 127
129:0   Control change          3, controller 0, value 0
129:0   Program change          3, program 58
129:0   Control change          3, controller 10, value 75
129:0   Control change          3, controller 91, value 127
129:0   Control change          3, controller 93, value 127
129:0   Control change          2, controller 0, value 0
129:0   Program change          2, program 60
129:0   Control change          2, controller 10, value 63
129:0   Control change          2, controller 91, value 127
129:0   Control change          2, controller 93, value 127
129:0   Control change          3, controller 0, value 0
129:0   Program change          3, program 58
129:0   Control change          3, controller 10, value 75
129:0   Control change          3, controller 91, value 127
129:0   Control change          3, controller 93, value 127
129:0   Control change          4, controller 0, value 0
129:0   Program change          4, program 9
129:0   Control change          4, controller 91, value 127
129:0   Control change          4, controller 93, value 127
129:0   Control change          5, controller 0, value 0
129:0   Program change          5, program 20
129:0   Control change          5, controller 91, value 47
129:0   Control change          5, controller 93, value 51
129:0   Control change          6, controller 0, value 0
129:0   Program change          6, program 48
129:0   Control change          6, controller 10, value 42
129:0   Control change          6, controller 91, value 95
129:0   Control change          6, controller 93, value 127
129:0   Control change          1, controller 0, value 0
129:0   Program change          1, program 57
129:0   Control change          1, controller 10, value 99
129:0   Control change          1, controller 91, value 127
129:0   Control change          1, controller 93, value 127
129:0   Control change          5, controller 0, value 0
129:0   Program change          5, program 20
129:0   Control change          5, controller 91, value 47
129:0   Control change          5, controller 93, value 51
129:0   Control change          7, controller 0, value 0
129:0   Program change          7, program 47
129:0   Control change          7, controller 91, value 127
129:0   Control change          7, controller 93, value 127
129:0   Note on                 0, note 82, velocity 88
129:0   Note off                0, note 82, velocity 21
129:0   Note on                 0, note 84, velocity 88
129:0   Note off                0, note 84, velocity 21
129:0   Note on                 0, note 80, velocity 88
129:0   Note off                0, note 80, velocity 21
129:0   Note on                 0, note 68, velocity 88
129:0   Note off                0, note 68, velocity 21
129:0   Note on                 0, note 75, velocity 88
129:0   Note off                0, note 75, velocity 64
129:0   Note on                 1, note 29, velocity 110
129:0   Note on                 2, note 29, velocity 106
129:0   Note on                 3, note 29, velocity 110
129:0   Note off                1, note 29, velocity 110
129:0   Note on                 1, note 30, velocity 110
129:0   Note off                2, note 29, velocity 106
129:0   Note on                 2, note 30, velocity 106
129:0   Note off                3, note 29, velocity 110
129:0   Note on                 3, note 30, velocity 110
129:0   Note off                1, note 30, velocity 110
129:0   Note off                2, note 30, velocity 106
129:0   Note off                3, note 30, velocity 110
129:0   Note on                 1, note 30, velocity 110
129:0   Note on                 2, note 30, velocity 106
129:0   Note on                 3, note 30, velocity 110
129:0   Note off                1, note 30, velocity 110
129:0   Note off                2, note 30, velocity 106
129:0   Note off                3, note 30, velocity 110
129:0   Note on                 1, note 30, velocity 110
129:0   Note on                 2, note 30, velocity 106
129:0   Note on                 3, note 30, velocity 110
129:0   Note off                1, note 30, velocity 110
129:0   Note off                2, note 30, velocity 106
129:0   Note off                3, note 30, velocity 110
129:0   Note on                 1, note 30, velocity 110
129:0   Note on                 2, note 30, velocity 106
129:0   Note on                 3, note 30, velocity 110
129:0   Note off                1, note 30, velocity 110
129:0   Note off                2, note 30, velocity 106
129:0   Note off                3, note 30, velocity 110
129:0   Note on                 1, note 30, velocity 110
129:0   Note on                 2, note 30, velocity 106
129:0   Note on                 3, note 30, velocity 110
129:0   Note off                1, note 30, velocity 110
129:0   Note off                2, note 30, velocity 106
129:0   Note off                3, note 30, velocity 110
129:0   Note on                 0, note 82, velocity 88
129:0   Note off                0, note 82, velocity 21
129:0   Note on                 0, note 84, velocity 88
129:0   Note off                0, note 84, velocity 21
129:0   Note on                 0, note 80, velocity 88
129:0   Note off                0, note 80, velocity 21
129:0   Note on                 0, note 68, velocity 88
129:0   Note off                0, note 68, velocity 21
129:0   Note on                 0, note 75, velocity 88
129:0   Note off                0, note 75, velocity 64
129:0   Note on                 1, note 30, velocity 110
129:0   Note on                 2, note 30, velocity 106
129:0   Note on                 3, note 30, velocity 110
129:0   Note off                1, note 30, velocity 110
129:0   Note off                2, note 30, velocity 106
129:0   Note off                3, note 30, velocity 110
129:0   Note on                 1, note 30, velocity 110
129:0   Note on                 2, note 30, velocity 106
129:0   Note on                 3, note 30, velocity 110
129:0   Note off                1, note 30, velocity 110
129:0   Note off                2, note 30, velocity 106
129:0   Note off                3, note 30, velocity 110
129:0   Note on                 1, note 30, velocity 110
129:0   Note on                 2, note 30, velocity 106
129:0   Note on                 3, note 30, velocity 110
129:0   Note off                1, note 30, velocity 110
129:0   Note off                2, note 30, velocity 106
129:0   Note off                3, note 30, velocity 110
129:0   Note on                 1, note 30, velocity 110
129:0   Note on                 2, note 30, velocity 106
129:0   Note on                 3, note 30, velocity 110
129:0   Note off                1, note 30, velocity 110
129:0   Note off                2, note 30, velocity 106
129:0   Note off                3, note 30, velocity 110
129:0   Note on                 1, note 30, velocity 110
129:0   Note on                 2, note 30, velocity 106
129:0   Note on                 3, note 30, velocity 110
129:0   Note off                1, note 30, velocity 110
129:0   Note off                2, note 30, velocity 106
129:0   Note off                3, note 30, velocity 110
129:0   Note on                 1, note 30, velocity 110
129:0   Note on                 2, note 30, velocity 106
129:0   Note on                 3, note 30, velocity 110
129:0   Note off                1, note 30, velocity 110
129:0   Note off                2, note 30, velocity 106
129:0   Note off                3, note 30, velocity 110
129:0   Note on                 1, note 34, velocity 110
129:0   Note on                 2, note 34, velocity 106
129:0   Note on                 3, note 34, velocity 110
129:0   Note off                1, note 34, velocity 110
129:0   Note off                2, note 34, velocity 106
129:0   Note off                3, note 34, velocity 110
129:0   Note on                 1, note 30, velocity 110
129:0   Note on                 2, note 30, velocity 106
129:0   Note on                 3, note 30, velocity 110
129:0   Note off                1, note 30, velocity 110
129:0   Note off                2, note 30, velocity 106
129:0   Note off                3, note 30, velocity 110
129:0   Note on                 0, note 82, velocity 88
129:0   Note off                0, note 82, velocity 21
129:0   Note on                 0, note 84, velocity 88
129:0   Note off                0, note 84, velocity 21
129:0   Note on                 0, note 80, velocity 88
129:0   Note off                0, note 80, velocity 21
129:0   Note on                 0, note 68, velocity 88
129:0   Note off                0, note 68, velocity 21
129:0   Note on                 0, note 75, velocity 88
129:0   Note off                0, note 75, velocity 64
129:0   Note on                 0, note 82, velocity 88
129:0   Note off                0, note 82, velocity 121
129:0   Note on                 0, note 84, velocity 88
129:0   Note off                0, note 84, velocity 121
129:0   Note on                 0, note 80, velocity 88
129:0   Note off                0, note 80, velocity 121
129:0   Note on                 1, note 32, velocity 110
129:0   Note on                 2, note 32, velocity 106
129:0   Note on                 3, note 32, velocity 110
129:0   Note off                1, note 32, velocity 110
129:0   Note off                2, note 32, velocity 106
129:0   Note off                3, note 32, velocity 110
129:0   Note on                 1, note 39, velocity 110
129:0   Note on                 2, note 39, velocity 106
129:0   Note on                 3, note 39, velocity 110
129:0   Note off                1, note 39, velocity 110
129:0   Note off                2, note 39, velocity 106
129:0   Note off                3, note 39, velocity 110
129:0   Note on                 0, note 82, velocity 88
129:0   Note off                0, note 82, velocity 21
129:0   Note on                 0, note 84, velocity 88
129:0   Note off                0, note 84, velocity 21
129:0   Note on                 0, note 80, velocity 88
129:0   Note off                0, note 80, velocity 21
129:0   Note on                 0, note 68, velocity 88
129:0   Note off                0, note 68, velocity 21
129:0   Note on                 0, note 75, velocity 88
129:0   Note off                0, note 75, velocity 21
129:0   Note on                 1, note 46, velocity 110
129:0   Note on                 2, note 46, velocity 106
129:0   Note on                 3, note 46, velocity 110
129:0   Note off                1, note 46, velocity 110
129:0   Note off                2, note 46, velocity 106
129:0   Note off                3, note 46, velocity 110
129:0   Note on                 1, note 48, velocity 110
129:0   Note on                 2, note 48, velocity 106
129:0   Note on                 3, note 48, velocity 110
129:0   Note off                1, note 48, velocity 110
129:0   Note off                2, note 48, velocity 106
129:0   Note off                3, note 48, velocity 110
129:0   Note on                 1, note 44, velocity 110
129:0   Note on                 2, note 44, velocity 106
129:0   Note on                 3, note 44, velocity 110
129:0   Note off                1, note 44, velocity 110
129:0   Note off                2, note 44, velocity 106
129:0   Note off                3, note 44, velocity 110
129:0   Note on                 1, note 32, velocity 110
129:0   Note on                 2, note 32, velocity 106
129:0   Note on                 3, note 32, velocity 110
129:0   Note off                1, note 32, velocity 110
129:0   Note off                2, note 32, velocity 106
129:0   Note off                3, note 32, velocity 110
129:0   Note on                 1, note 39, velocity 110
129:0   Note on                 2, note 39, velocity 106
129:0   Note on                 3, note 39, velocity 110
129:0   Note off                1, note 39, velocity 110
129:0   Note on                 1, note 46, velocity 110
129:0   Note off                2, note 39, velocity 106
129:0   Note on                 2, note 46, velocity 106
129:0   Note off                3, note 39, velocity 110
129:0   Note on                 3, note 46, velocity 110
129:0   Note off                1, note 46, velocity 110
129:0   Note off                2, note 46, velocity 106
129:0   Note off                3, note 46, velocity 110
129:0   Note on                 1, note 48, velocity 110
129:0   Note on                 2, note 48, velocity 106
129:0   Note on                 3, note 48, velocity 110
129:0   Note off                1, note 48, velocity 110
129:0   Note off                2, note 48, velocity 106
129:0   Note off                3, note 48, velocity 110
129:0   Note on                 1, note 44, velocity 110
129:0   Note on                 2, note 44, velocity 106
129:0   Note on                 3, note 44, velocity 110
129:0   Note off                1, note 44, velocity 110
129:0   Note off                2, note 44, velocity 106
129:0   Note off                3, note 44, velocity 110
129:0   Note on                 1, note 32, velocity 110
129:0   Note on                 2, note 32, velocity 106
129:0   Note on                 3, note 32, velocity 110
129:0   Note off                1, note 32, velocity 110
129:0   Note off                2, note 32, velocity 106
129:0   Note off                3, note 32, velocity 110
129:0   Note on                 1, note 39, velocity 110
129:0   Note on                 2, note 39, velocity 106
129:0   Note on                 3, note 39, velocity 110
129:0   Note off                1, note 39, velocity 110
129:0   Note off                2, note 39, velocity 106
129:0   Note off                3, note 39, velocity 110
129:0   Note on                 1, note 39, velocity 110
129:0   Note on                 2, note 39, velocity 106
129:0   Note on                 3, note 39, velocity 110
129:0   Note off                1, note 39, velocity 110
129:0   Note off                2, note 39, velocity 106
129:0   Note off                3, note 39, velocity 110
129:0   Note on                 1, note 39, velocity 110
129:0   Note on                 2, note 39, velocity 106
129:0   Note on                 3, note 39, velocity 110
129:0   Note off                1, note 39, velocity 110
129:0   Note off                2, note 39, velocity 106
129:0   Note off                3, note 39, velocity 110
129:0   Note on                 1, note 32, velocity 110
129:0   Note on                 2, note 32, velocity 106
129:0   Note on                 3, note 32, velocity 110
129:0   Note off                1, note 32, velocity 110
129:0   Note off                2, note 32, velocity 106
129:0   Note off                3, note 32, velocity 110
129:0   Note on                 1, note 32, velocity 110
129:0   Note on                 2, note 32, velocity 106
129:0   Note on                 3, note 32, velocity 110
129:0   Note off                1, note 32, velocity 110
129:0   Note off                2, note 32, velocity 106
129:0   Note off                3, note 32, velocity 110
129:0   Note on                 1, note 39, velocity 110
129:0   Note on                 2, note 39, velocity 106
129:0   Note on                 3, note 39, velocity 110
129:0   Note off                1, note 39, velocity 110
129:0   Note off                2, note 39, velocity 106
129:0   Note off                3, note 39, velocity 110
129:0   Note on                 1, note 39, velocity 110
129:0   Note on                 2, note 39, velocity 106
129:0   Note on                 3, note 39, velocity 110
129:0   Note off                1, note 39, velocity 110
129:0   Note off                2, note 39, velocity 106
129:0   Note off                3, note 39, velocity 110
129:0   Note on                 1, note 29, velocity 110
129:0   Note on                 2, note 29, velocity 106
129:0   Note on                 3, note 29, velocity 110
129:0   Note off                1, note 29, velocity 110
129:0   Note off                2, note 29, velocity 106
129:0   Note off                3, note 29, velocity 110
129:0   Note on                 1, note 39, velocity 110
129:0   Note on                 2, note 39, velocity 106
129:0   Note on                 3, note 39, velocity 110
129:0   Note off                1, note 39, velocity 110
129:0   Note off                2, note 39, velocity 106
129:0   Note off                3, note 39, velocity 110
129:0   Note on                 1, note 41, velocity 110
129:0   Note on                 2, note 41, velocity 106
129:0   Note on                 3, note 41, velocity 110
129:0   Note off                1, note 41, velocity 110
129:0   Note off                2, note 41, velocity 106
129:0   Note off                3, note 41, velocity 110
129:0   Note on                 1, note 32, velocity 110
129:0   Note on                 2, note 32, velocity 106
129:0   Note on                 3, note 32, velocity 110
129:0   Note off                1, note 32, velocity 110
129:0   Note off                2, note 32, velocity 106
129:0   Note off                3, note 32, velocity 110
129:0   Note on                 1, note 39, velocity 110
129:0   Note on                 2, note 39, velocity 106
129:0   Note on                 3, note 39, velocity 110
129:0   Note off                1, note 39, velocity 110
129:0   Note off                2, note 39, velocity 106
129:0   Note off                3, note 39, velocity 110
129:0   Note on                 1, note 39, velocity 110
129:0   Note on                 2, note 39, velocity 106
129:0   Note on                 3, note 39, velocity 110
129:0   Note off                1, note 39, velocity 110
129:0   Note off                2, note 39, velocity 106
129:0   Note off                3, note 39, velocity 110
129:0   Note on                 1, note 41, velocity 110
129:0   Note on                 2, note 41, velocity 106
129:0   Note on                 3, note 41, velocity 110
129:0   Note off                1, note 41, velocity 110
129:0   Note off                2, note 41, velocity 106
129:0   Note off                3, note 41, velocity 110
129:0   Note on                 1, note 41, velocity 110
129:0   Note on                 2, note 41, velocity 106
129:0   Note on                 3, note 41, velocity 110
129:0   Note off                1, note 41, velocity 110
129:0   Note off                2, note 41, velocity 106
129:0   Note off                3, note 41, velocity 110
129:0   Note on                 1, note 32, velocity 110
129:0   Note on                 2, note 32, velocity 106
129:0   Note on                 3, note 32, velocity 110
129:0   Note off                1, note 32, velocity 110
129:0   Note off                2, note 32, velocity 106
129:0   Note off                3, note 32, velocity 110
129:0   Note on                 1, note 36, velocity 110
129:0   Note on                 2, note 36, velocity 106
129:0   Note on                 3, note 36, velocity 110
129:0   Note off                1, note 36, velocity 110
129:0   Note off                2, note 36, velocity 106
129:0   Note off                3, note 36, velocity 110
129:0   Note on                 1, note 32, velocity 110
129:0   Note on                 2, note 32, velocity 106
129:0   Note on                 3, note 32, velocity 110
129:0   Note off                1, note 32, velocity 110
129:0   Note off                2, note 32, velocity 106
129:0   Note off                3, note 32, velocity 110
129:0   Note on                 1, note 39, velocity 110
129:0   Note on                 2, note 39, velocity 106
129:0   Note on                 3, note 39, velocity 110
129:0   Note off                1, note 39, velocity 110
129:0   Note off                2, note 39, velocity 106
129:0   Note off                3, note 39, velocity 110
129:0   Note on                 1, note 39, velocity 110
129:0   Note on                 2, note 39, velocity 106
129:0   Note on                 3, note 39, velocity 110
129:0   Note off                1, note 39, velocity 110
129:0   Note off                2, note 39, velocity 106
129:0   Note off                3, note 39, velocity 110
129:0   Note on                 1, note 41, velocity 110
129:0   Note on                 2, note 41, velocity 106
129:0   Note on                 3, note 41, velocity 110
129:0   Note off                1, note 41, velocity 110
129:0   Note off                2, note 41, velocity 106
129:0   Note off                3, note 41, velocity 110
129:0   Note on                 1, note 32, velocity 110
129:0   Note on                 2, note 32, velocity 106
129:0   Note on                 3, note 32, velocity 110
129:0   Note off                1, note 32, velocity 110
129:0   Note off                2, note 32, velocity 106
129:0   Note off                3, note 32, velocity 110
129:0   Note on                 1, note 39, velocity 110
129:0   Note on                 2, note 39, velocity 106
129:0   Note on                 3, note 39, velocity 110
129:0   Note off                1, note 39, velocity 110
129:0   Note off                2, note 39, velocity 106
129:0   Note off                3, note 39, velocity 110
129:0   Note on                 1, note 32, velocity 110
129:0   Note on                 2, note 32, velocity 106
129:0   Note on                 3, note 32, velocity 110
129:0   Note off                1, note 32, velocity 110
129:0   Note off                2, note 32, velocity 106
129:0   Note off                3, note 32, velocity 110
129:0   Note on                 1, note 32, velocity 110
129:0   Note on                 2, note 32, velocity 106
129:0   Note on                 3, note 32, velocity 110
129:0   Note off                1, note 32, velocity 110
129:0   Note off                2, note 32, velocity 106
129:0   Note off                3, note 32, velocity 110
129:0   Note on                 1, note 39, velocity 110
129:0   Note on                 2, note 39, velocity 106
129:0   Note on                 3, note 39, velocity 110
129:0   Note off                1, note 39, velocity 110
129:0   Note off                2, note 39, velocity 106
129:0   Note off                3, note 39, velocity 110
129:0   Note on                 1, note 32, velocity 110
129:0   Note on                 2, note 32, velocity 106
129:0   Note on                 3, note 32, velocity 110
129:0   Note off                1, note 32, velocity 110
129:0   Note off                2, note 32, velocity 106
129:0   Note off                3, note 32, velocity 110
129:0   Note on                 1, note 32, velocity 110
129:0   Note on                 2, note 32, velocity 106
129:0   Note on                 3, note 32, velocity 110
129:0   Note off                1, note 32, velocity 110
129:0   Note off                2, note 32, velocity 106
129:0   Note off                3, note 32, velocity 110
129:0   Note on                 1, note 41, velocity 110
129:0   Note on                 2, note 41, velocity 106
129:0   Note on                 3, note 41, velocity 110
129:0   Note off                1, note 41, velocity 110
129:0   Note off                2, note 41, velocity 106
129:0   Note off                3, note 41, velocity 110
129:0   Note on                 0, note 75, velocity 88
129:0   Note off                0, note 75, velocity 21
129:0   Note on                 0, note 68, velocity 88
129:0   Note off                0, note 68, velocity 21
129:0   Note on                 0, note 68, velocity 88
129:0   Note off                0, note 68, velocity 21
129:0   Note on                 0, note 75, velocity 88
129:0   Note off                0, note 75, velocity 21
129:0   Note on                 0, note 75, velocity 88
129:0   Note off                0, note 75, velocity 21
129:0   Note on                 0, note 65, velocity 88
129:0   Note off                0, note 65, velocity 21
129:0   Note on                 1, note 29, velocity 110
129:0   Note on                 2, note 29, velocity 106
129:0   Note on                 3, note 29, velocity 110
129:0   Note off                1, note 29, velocity 110
129:0   Note off                2, note 29, velocity 106
129:0   Note off                3, note 29, velocity 110
129:0   Note on                 1, note 32, velocity 110
129:0   Note on                 2, note 32, velocity 106
129:0   Note on                 3, note 32, velocity 110
129:0   Note off                1, note 32, velocity 110
129:0   Note off                2, note 32, velocity 106
129:0   Note off                3, note 32, velocity 110
129:0   Note on                 1, note 36, velocity 110
129:0   Note on                 2, note 36, velocity 106
129:0   Note on                 3, note 36, velocity 110
129:0   Note off                1, note 36, velocity 110
129:0   Note off                2, note 36, velocity 106
129:0   Note off                3, note 36, velocity 110
129:0   Note on                 1, note 32, velocity 110
129:0   Note on                 2, note 32, velocity 106
129:0   Note on                 3, note 32, velocity 110
129:0   Note off                1, note 32, velocity 110
129:0   Note off                2, note 32, velocity 106
129:0   Note off                3, note 32, velocity 110
129:0   Note on                 1, note 36, velocity 110
129:0   Note on                 2, note 36, velocity 106
129:0   Note on                 3, note 36, velocity 110
129:0   Note off                1, note 36, velocity 110
129:0   Note off                2, note 36, velocity 106
129:0   Note off                3, note 36, velocity 110
129:0   Note on                 1, note 39, velocity 110
129:0   Note on                 2, note 39, velocity 106
129:0   Note on                 3, note 39, velocity 110
129:0   Note off                1, note 39, velocity 110
129:0   Note off                2, note 39, velocity 106
129:0   Note off                3, note 39, velocity 110
129:0   Note on                 0, note 82, velocity 88
129:0   Note off                0, note 82, velocity 21
129:0   Note on                 0, note 82, velocity 88
129:0   Note off                0, note 82, velocity 21
129:0   Note on                 0, note 84, velocity 88
129:0   Note off                0, note 84, velocity 21
129:0   Note on                 0, note 72, velocity 88
129:0   Note off                0, note 72, velocity 21
129:0   Note on                 0, note 75, velocity 88
129:0   Note off                0, note 75, velocity 21
129:0   Note on                 1, note 29, velocity 110
129:0   Note on                 2, note 29, velocity 106
129:0   Note on                 3, note 29, velocity 110
129:0   Note off                1, note 29, velocity 110
129:0   Note off                2, note 29, velocity 106
129:0   Note off                3, note 29, velocity 110
129:0   Note on                 1, note 34, velocity 110
129:0   Note on                 2, note 34, velocity 106
129:0   Note on                 3, note 34, velocity 110
129:0   Note off                1, note 34, velocity 110
129:0   Note off                2, note 34, velocity 106
129:0   Note off                3, note 34, velocity 110
129:0   Note on                 1, note 39, velocity 110
129:0   Note on                 2, note 39, velocity 106
129:0   Note on                 3, note 39, velocity 110
129:0   Note off                1, note 39, velocity 110
129:0   Note off                2, note 39, velocity 106
129:0   Note off                3, note 39, velocity 110
129:0   Note on                 0, note 82, velocity 88
129:0   Note off                0, note 82, velocity 21
129:0   Note on                 0, note 77, velocity 88
129:0   Note off                0, note 77, velocity 21
129:0   Note on                 0, note 82, velocity 88
129:0   Note off                0, note 82, velocity 21
129:0   Note on                 0, note 87, velocity 88
129:0   Note off                0, note 87, velocity 21
129:0   Note on                 1, note 32, velocity 110
129:0   Note on                 2, note 32, velocity 106
129:0   Note on                 3, note 32, velocity 110
129:0   Note off                1, note 32, velocity 110
129:0   Note off                2, note 32, velocity 106
129:0   Note off                3, note 32, velocity 110
129:0   Note on                 1, note 32, velocity 110
129:0   Note on                 2, note 32, velocity 106
129:0   Note on                 3, note 32, velocity 110
129:0   Note off                1, note 32, velocity 110
129:0   Note off                2, note 32, velocity 106
129:0   Note off                3, note 32, velocity 110
129:0   Note on                 1, note 32, velocity 110
129:0   Note on                 2, note 32, velocity 106
129:0   Note on                 3, note 32, velocity 110
129:0   Note off                1, note 32, velocity 110
129:0   Note off                2, note 32, velocity 106
129:0   Note off                3, note 32, velocity 110
129:0   Note on                 1, note 41, velocity 110
129:0   Note on                 2, note 41, velocity 106
129:0   Note on                 3, note 41, velocity 110
129:0   Note off                1, note 41, velocity 110
129:0   Note off                2, note 41, velocity 106
129:0   Note off                3, note 41, velocity 110
129:0   Note on                 1, note 29, velocity 110
129:0   Note on                 2, note 29, velocity 106
129:0   Note on                 3, note 29, velocity 110
129:0   Note off                1, note 29, velocity 110
129:0   Note off                2, note 29, velocity 106
129:0   Note off                3, note 29, velocity 110
129:0   Note on                 1, note 29, velocity 110
129:0   Note on                 2, note 29, velocity 106
129:0   Note on                 3, note 29, velocity 110
129:0   Note off                1, note 29, velocity 110
129:0   Note off                2, note 29, velocity 106
129:0   Note off                3, note 29, velocity 110
129:0   Note on                 1, note 29, velocity 110
129:0   Note on                 2, note 29, velocity 106
129:0   Note on                 3, note 29, velocity 110
129:0   Note off                1, note 29, velocity 110
129:0   Note off                2, note 29, velocity 106
129:0   Note off                3, note 29, velocity 110
129:0   Note on                 1, note 36, velocity 110
129:0   Note on                 2, note 36, velocity 106
129:0   Note on                 3, note 36, velocity 110
129:0   Note off                1, note 36, velocity 110
129:0   Note off                2, note 36, velocity 106
129:0   Note off                3, note 36, velocity 110
129:0   Note on                 1, note 31, velocity 110
129:0   Note on                 2, note 31, velocity 106
129:0   Note on                 3, note 31, velocity 110
129:0   Note off                1, note 31, velocity 110
129:0   Note off                2, note 31, velocity 106
129:0   Note off                3, note 31, velocity 110
129:0   Note on                 1, note 36, velocity 110
129:0   Note on                 2, note 36, velocity 106
129:0   Note on                 3, note 36, velocity 110
129:0   Note off                1, note 36, velocity 110
129:0   Note off                2, note 36, velocity 106
129:0   Note off                3, note 36, velocity 110
129:0   Note on                 1, note 30, velocity 110
129:0   Note on                 2, note 30, velocity 106
129:0   Note on                 3, note 30, velocity 110
129:0   Note off                1, note 30, velocity 110
129:0   Note off                2, note 30, velocity 106
129:0   Note off                3, note 30, velocity 110
129:0   Note on                 1, note 37, velocity 110
129:0   Note on                 2, note 37, velocity 106
129:0   Note on                 3, note 37, velocity 110
129:0   Note off                1, note 37, velocity 110
129:0   Note off                2, note 37, velocity 106
129:0   Note off                3, note 37, velocity 110
129:0   Note on                 1, note 39, velocity 110
129:0   Note on                 2, note 39, velocity 106
129:0   Note on                 3, note 39, velocity 110
129:0   Note off                1, note 39, velocity 110
129:0   Note off                2, note 39, velocity 106
129:0   Note off                3, note 39, velocity 110
129:0   Note on                 1, note 43, velocity 110
129:0   Note on                 2, note 43, velocity 106
129:0   Note on                 3, note 43, velocity 110
129:0   Note off                1, note 43, velocity 110
129:0   Note off                2, note 43, velocity 106
129:0   Note off                3, note 43, velocity 110
129:0   Note on                 1, note 43, velocity 110
129:0   Note on                 2, note 43, velocity 106
129:0   Note on                 3, note 43, velocity 110
129:0   Note off                1, note 43, velocity 110
129:0   Note off                2, note 43, velocity 106
129:0   Note off                3, note 43, velocity 110
129:0   Note on                 1, note 43, velocity 110
129:0   Note on                 2, note 43, velocity 106
129:0   Note on                 3, note 43, velocity 110
129:0   Note off                1, note 43, velocity 110
129:0   Note off                2, note 43, velocity 106
129:0   Note off                3, note 43, velocity 110
129:0   Note on                 0, note 75, velocity 88
129:0   Note off                0, note 75, velocity 21
129:0   Note on                 0, note 75, velocity 88
129:0   Note off                0, note 75, velocity 21
129:0   Note on                 0, note 75, velocity 88
129:0   Note off                0, note 75, velocity 21
129:0   Note on                 0, note 82, velocity 88
129:0   Note off                0, note 82, velocity 21
129:0   Note on                 0, note 67, velocity 88
129:0   Note off                0, note 67, velocity 21
129:0   Note on                 0, note 67, velocity 88
129:0   Note off                0, note 67, velocity 21
129:0   Note on                 0, note 70, velocity 88
129:0   Note off                0, note 70, velocity 21
129:0   Note on                 0, note 72, velocity 88
129:0   Note off                0, note 72, velocity 21
129:0   Note on                 0, note 65, velocity 88
129:0   Note off                0, note 65, velocity 21
129:0   Note on                 0, note 68, velocity 88
129:0   Note off                0, note 68, velocity 21
129:0   Note on                 0, note 70, velocity 88
129:0   Note off                0, note 70, velocity 21
129:0   Note on                 0, note 75, velocity 88
129:0   Note off                0, note 75, velocity 21
129:0   Note on                 0, note 77, velocity 88
129:0   Note off                0, note 77, velocity 21
129:0   Note on                 0, note 82, velocity 88
129:0   Note off                0, note 82, velocity 21
129:0   Note on                 0, note 86, velocity 88
129:0   Note off                0, note 86, velocity 21
129:0   Note on                 0, note 86, velocity 88
129:0   Note off                0, note 86, velocity 21
129:0   Note on                 0, note 86, velocity 88
129:0   Note off                0, note 86, velocity 21
129:0   Note on                 1, note 31, velocity 110
129:0   Note on                 2, note 31, velocity 106
129:0   Note on                 3, note 31, velocity 110
129:0   Note off                1, note 31, velocity 110
129:0   Note off                2, note 31, velocity 106
129:0   Note off                3, note 31, velocity 110
129:0   Note on                 1, note 30, velocity 110
129:0   Note on                 2, note 30, velocity 106
129:0   Note on                 3, note 30, velocity 110
129:0   Note off                1, note 30, velocity 110
129:0   Note off                2, note 30, velocity 106
129:0   Note off                3, note 30, velocity 110
129:0   Note on                 0, note 86, velocity 88
129:0   Note off                0, note 86, velocity 21
129:0   Note on                 0, note 86, velocity 88
129:0   Note off                0, note 86, velocity 21
129:0   Note on                 1, note 36, velocity 110
129:0   Note on                 2, note 36, velocity 106
129:0   Note on                 3, note 36, velocity 110
129:0   Note off                1, note 36, velocity 110
129:0   Note off                2, note 36, velocity 106
129:0   Note off                3, note 36, velocity 110
129:0   Note on                 1, note 38, velocity 110
129:0   Note on                 2, note 38, velocity 106
129:0   Note on                 3, note 38, velocity 110
129:0   Note off                1, note 38, velocity 110
129:0   Note off                2, note 38, velocity 106
129:0   Note off                3, note 38, velocity 110
129:0   Note on                 1, note 36, velocity 110
129:0   Note on                 2, note 36, velocity 106
129:0   Note on                 3, note 36, velocity 110
129:0   Note off                1, note 36, velocity 110
129:0   Note off                2, note 36, velocity 106
129:0   Note off                3, note 36, velocity 110
129:0   Note on                 1, note 41, velocity 110
129:0   Note on                 2, note 41, velocity 106
129:0   Note on                 3, note 41, velocity 110
129:0   Note off                1, note 41, velocity 110
129:0   Note off                2, note 41, velocity 106
129:0   Note off                3, note 41, velocity 110
129:0   Note on                 1, note 40, velocity 110
129:0   Note on                 2, note 40, velocity 106
129:0   Note on                 3, note 40, velocity 110
129:0   Note off                1, note 40, velocity 110
129:0   Note off                2, note 40, velocity 106
129:0   Note off                3, note 40, velocity 110
129:0   Note on                 1, note 21, velocity 110
129:0   Note on                 2, note 21, velocity 106
129:0   Note on                 3, note 21, velocity 110
129:0   Note on                 7, note 21, velocity 110
129:0   Note off                1, note 21, velocity 110
129:0   Note off                2, note 21, velocity 106
129:0   Note off                3, note 21, velocity 110
129:0   Note off                7, note 21, velocity 110
129:0   Note on                 1, note 38, velocity 110
129:0   Note on                 2, note 38, velocity 106
129:0   Note on                 3, note 38, velocity 110
129:0   Note off                1, note 38, velocity 110
129:0   Note off                2, note 38, velocity 106
129:0   Note off                3, note 38, velocity 110
129:0   Note on                 1, note 36, velocity 110
129:0   Note on                 2, note 36, velocity 106
129:0   Note on                 3, note 36, velocity 110
129:0   Note off                1, note 36, velocity 110
129:0   Note off                2, note 36, velocity 106
129:0   Note off                3, note 36, velocity 110
129:0   Note on                 1, note 34, velocity 110
129:0   Note on                 2, note 34, velocity 106
129:0   Note on                 3, note 34, velocity 110
129:0   Note off                1, note 34, velocity 110
129:0   Note off                2, note 34, velocity 106
129:0   Note off                3, note 34, velocity 110
129:0   Note on                 1, note 33, velocity 110
129:0   Note on                 2, note 33, velocity 106
129:0   Note on                 3, note 33, velocity 110
129:0   Note off                1, note 33, velocity 110
129:0   Note off                2, note 33, velocity 106
129:0   Note off                3, note 33, velocity 110
129:0   Note on                 1, note 38, velocity 110
129:0   Note on                 2, note 38, velocity 106
129:0   Note on                 3, note 38, velocity 110
129:0   Note off                1, note 38, velocity 110
129:0   Note off                2, note 38, velocity 106
129:0   Note off                3, note 38, velocity 110
129:0   Note on                 1, note 21, velocity 110
129:0   Note on                 2, note 21, velocity 106
129:0   Note on                 3, note 21, velocity 110
129:0   Note on                 7, note 21, velocity 110
129:0   Note off                1, note 21, velocity 110
129:0   Note off                2, note 21, velocity 106
129:0   Note off                3, note 21, velocity 110
129:0   Note off                7, note 21, velocity 110
129:0   Note on                 1, note 43, velocity 110
129:0   Note on                 2, note 43, velocity 106
129:0   Note on                 3, note 43, velocity 110
129:0   Note off                1, note 43, velocity 110
129:0   Note off                2, note 43, velocity 106
129:0   Note off                3, note 43, velocity 110
129:0   Note on                 1, note 36, velocity 110
129:0   Note on                 2, note 36, velocity 106
129:0   Note on                 3, note 36, velocity 110
129:0   Note off                1, note 36, velocity 110
129:0   Note off                2, note 36, velocity 106
129:0   Note off                3, note 36, velocity 110
129:0   Note on                 1, note 42, velocity 110
129:0   Note on                 2, note 42, velocity 106
129:0   Note on                 3, note 42, velocity 110
129:0   Note off                1, note 42, velocity 110
129:0   Note off                2, note 42, velocity 106
129:0   Note off                3, note 42, velocity 110
129:0   Note on                 1, note 40, velocity 110
129:0   Note on                 2, note 40, velocity 106
129:0   Note on                 3, note 40, velocity 110
129:0   Note off                1, note 40, velocity 110
129:0   Note off                2, note 40, velocity 106
129:0   Note off                3, note 40, velocity 110
129:0   Note on                 1, note 39, velocity 110
129:0   Note on                 2, note 39, velocity 106
129:0   Note on                 3, note 39, velocity 110
129:0   Note off                1, note 39, velocity 110
129:0   Note off                2, note 39, velocity 106
129:0   Note off                3, note 39, velocity 110
129:0   Note on                 1, note 21, velocity 110
129:0   Note on                 2, note 21, velocity 106
129:0   Note on                 3, note 21, velocity 110
129:0   Note on                 7, note 21, velocity 110
129:0   Note off                1, note 21, velocity 110
129:0   Note off                2, note 21, velocity 106
129:0   Note off                3, note 21, velocity 110
129:0   Note off                7, note 21, velocity 110
129:0   Note on                 0, note 78, velocity 88
129:0   Note on                 1, note 42, velocity 110
129:0   Note on                 2, note 42, velocity 106
129:0   Note on                 3, note 42, velocity 110
129:0   Note off                0, note 78, velocity 21
129:0   Note off                1, note 42, velocity 110
129:0   Note off                2, note 42, velocity 106
129:0   Note off                3, note 42, velocity 110
129:0   Note on                 0, note 85, velocity 88
129:0   Note on                 1, note 49, velocity 110
129:0   Note on                 2, note 49, velocity 106
129:0   Note on                 3, note 49, velocity 110
129:0   Note off                0, note 85, velocity 21
129:0   Note off                1, note 49, velocity 110
129:0   Note off                2, note 49, velocity 106
129:0   Note off                3, note 49, velocity 110
129:0   Note on                 0, note 78, velocity 88
129:0   Note on                 1, note 42, velocity 110
129:0   Note on                 2, note 42, velocity 106
129:0   Note on                 3, note 42, velocity 110
129:0   Note off                0, note 78, velocity 21
129:0   Note off                1, note 42, velocity 110
129:0   Note off                2, note 42, velocity 106
129:0   Note off                3, note 42, velocity 110
129:0   Note on                 0, note 85, velocity 88
129:0   Note on                 1, note 49, velocity 110
129:0   Note on                 2, note 49, velocity 106
129:0   Note on                 3, note 49, velocity 110
129:0   Note off                0, note 85, velocity 21
129:0   Note off                1, note 49, velocity 110
129:0   Note off                2, note 49, velocity 106
129:0   Note off                3, note 49, velocity 110
129:0   Note on                 0, note 79, velocity 88
129:0   Note on                 1, note 43, velocity 110
129:0   Note on                 2, note 43, velocity 106
129:0   Note on                 3, note 43, velocity 110
129:0   Note off                0, note 79, velocity 21
129:0   Note off                1, note 43, velocity 110
129:0   Note off                2, note 43, velocity 106
129:0   Note off                3, note 43, velocity 110
129:0   Note on                 0, note 86, velocity 88
129:0   Note on                 1, note 50, velocity 110
129:0   Note on                 2, note 50, velocity 106
129:0   Note on                 3, note 50, velocity 110
129:0   Note off                0, note 86, velocity 21
129:0   Note off                1, note 50, velocity 110
129:0   Note off                2, note 50, velocity 106
129:0   Note off                3, note 50, velocity 110
129:0   Note on                 0, note 88, velocity 88
129:0   Note on                 1, note 52, velocity 110
129:0   Note on                 2, note 52, velocity 106
129:0   Note on                 3, note 52, velocity 110
129:0   Note off                0, note 88, velocity 21
129:0   Note off                1, note 52, velocity 110
129:0   Note off                2, note 52, velocity 106
129:0   Note off                3, note 52, velocity 110
129:0   Note on                 0, note 84, velocity 88
129:0   Note on                 1, note 48, velocity 110
129:0   Note on                 2, note 48, velocity 106
129:0   Note on                 3, note 48, velocity 110
129:0   Note off                0, note 84, velocity 21
129:0   Note off                1, note 48, velocity 110
129:0   Note off                2, note 48, velocity 106
129:0   Note off                3, note 48, velocity 110
129:0   Note on                 0, note 84, velocity 88
129:0   Note on                 1, note 48, velocity 110
129:0   Note on                 2, note 48, velocity 106
129:0   Note on                 3, note 48, velocity 110
129:0   Note off                0, note 84, velocity 21
129:0   Note off                1, note 48, velocity 110
129:0   Note off                2, note 48, velocity 106
129:0   Note off                3, note 48, velocity 110
129:0   Note on                 0, note 84, velocity 88
129:0   Note on                 1, note 48, velocity 110
129:0   Note on                 2, note 48, velocity 106
129:0   Note on                 3, note 48, velocity 110
129:0   Note off                0, note 84, velocity 21
129:0   Note off                1, note 48, velocity 110
129:0   Note off                2, note 48, velocity 106
129:0   Note off                3, note 48, velocity 110
129:0   Note on                 0, note 77, velocity 88
129:0   Note on                 1, note 41, velocity 110
129:0   Note on                 2, note 41, velocity 106
129:0   Note on                 3, note 41, velocity 110
129:0   Note off                0, note 77, velocity 21
129:0   Note off                1, note 41, velocity 110
129:0   Note off                2, note 41, velocity 106
129:0   Note off                3, note 41, velocity 110
129:0   Note on                 0, note 85, velocity 88
129:0   Note on                 1, note 49, velocity 110
129:0   Note on                 2, note 49, velocity 106
129:0   Note on                 3, note 49, velocity 110
129:0   Note off                0, note 85, velocity 21
129:0   Note off                1, note 49, velocity 110
129:0   Note off                2, note 49, velocity 106
129:0   Note off                3, note 49, velocity 110
129:0   Note on                 0, note 87, velocity 88
129:0   Note on                 1, note 51, velocity 110
129:0   Note on                 2, note 51, velocity 106
129:0   Note on                 3, note 51, velocity 110
129:0   Note off                0, note 87, velocity 21
129:0   Note off                1, note 51, velocity 110
129:0   Note off                2, note 51, velocity 106
129:0   Note off                3, note 51, velocity 110
129:0   Note on                 0, note 83, velocity 88
129:0   Note on                 1, note 47, velocity 110
129:0   Note on                 2, note 47, velocity 106
129:0   Note on                 3, note 47, velocity 110
129:0   Note off                0, note 83, velocity 21
129:0   Note off                1, note 47, velocity 110
129:0   Note off                2, note 47, velocity 106
129:0   Note off                3, note 47, velocity 110
129:0   Note on                 0, note 71, velocity 88
129:0   Note on                 1, note 35, velocity 110
129:0   Note on                 2, note 35, velocity 106
129:0   Note on                 3, note 35, velocity 110
129:0   Note off                0, note 71, velocity 21
129:0   Note off                1, note 35, velocity 110
129:0   Note off                2, note 35, velocity 106
129:0   Note off                3, note 35, velocity 110
129:0   Note on                 0, note 78, velocity 88
129:0   Note on                 1, note 42, velocity 110
129:0   Note on                 2, note 42, velocity 106
129:0   Note on                 3, note 42, velocity 110
129:0   Note off                0, note 78, velocity 21
129:0   Note off                1, note 42, velocity 110
129:0   Note off                2, note 42, velocity 106
129:0   Note off                3, note 42, velocity 110
129:0   Note on                 0, note 78, velocity 88
129:0   Note on                 1, note 42, velocity 110
129:0   Note on                 2, note 42, velocity 106
129:0   Note on                 3, note 42, velocity 110
129:0   Note off                0, note 78, velocity 21
129:0   Note off                1, note 42, velocity 110
129:0   Note off                2, note 42, velocity 106
129:0   Note off                3, note 42, velocity 110
129:0   Note on                 0, note 78, velocity 88
129:0   Note on                 1, note 42, velocity 110
129:0   Note on                 2, note 42, velocity 106
129:0   Note on                 3, note 42, velocity 110
129:0   Note off                0, note 78, velocity 21
129:0   Note off                1, note 42, velocity 110
129:0   Note off                2, note 42, velocity 106
129:0   Note off                3, note 42, velocity 110
129:0   Note on                 0, note 71, velocity 88
129:0   Note on                 1, note 35, velocity 110
129:0   Note on                 2, note 35, velocity 106
129:0   Note on                 3, note 35, velocity 110
129:0   Note off                0, note 71, velocity 21
129:0   Note off                1, note 35, velocity 110
129:0   Note off                2, note 35, velocity 106
129:0   Note off                3, note 35, velocity 110
129:0   Note on                 0, note 71, velocity 88
129:0   Note on                 1, note 35, velocity 110
129:0   Note on                 2, note 35, velocity 106
129:0   Note on                 3, note 35, velocity 110
129:0   Note off                0, note 71, velocity 21
129:0   Note off                1, note 35, velocity 110
129:0   Note off                2, note 35, velocity 106
129:0   Note off                3, note 35, velocity 110
129:0   Note on                 0, note 78, velocity 88
129:0   Note on                 1, note 42, velocity 110
129:0   Note on                 2, note 42, velocity 106
129:0   Note on                 3, note 42, velocity 110
129:0   Note off                0, note 78, velocity 21
129:0   Note off                1, note 42, velocity 110
129:0   Note off                2, note 42, velocity 106
129:0   Note off                3, note 42, velocity 110
129:0   Note on                 0, note 78, velocity 88
129:0   Note on                 1, note 42, velocity 110
129:0   Note on                 2, note 42, velocity 106
129:0   Note on                 3, note 42, velocity 110
129:0   Note off                0, note 78, velocity 21
129:0   Note off                1, note 42, velocity 110
129:0   Note off                2, note 42, velocity 106
129:0   Note off                3, note 42, velocity 110
129:0   Note on                 0, note 80, velocity 88
129:0   Note on                 1, note 37, velocity 110
129:0   Note on                 2, note 37, velocity 106
129:0   Note on                 3, note 37, velocity 110
129:0   Note off                0, note 80, velocity 21
129:0   Note off                1, note 37, velocity 110
129:0   Note off                2, note 37, velocity 106
129:0   Note off                3, note 37, velocity 110
129:0   Note on                 0, note 82, velocity 88
129:0   Note on                 1, note 37, velocity 110
129:0   Note on                 2, note 37, velocity 106
129:0   Note on                 3, note 37, velocity 110
129:0   Note off                0, note 82, velocity 21
129:0   Note on                 0, note 78, velocity 88
129:0   Note off                1, note 37, velocity 110
129:0   Note off                2, note 37, velocity 106
129:0   Note off                3, note 37, velocity 110
129:0   Note off                0, note 78, velocity 21
129:0   Note on                 1, note 37, velocity 110
129:0   Note on                 2, note 37, velocity 106
129:0   Note on                 3, note 37, velocity 110
129:0   Note on                 0, note 66, velocity 88
129:0   Note off                1, note 37, velocity 110
129:0   Note off                2, note 37, velocity 106
129:0   Note off                3, note 37, velocity 110
129:0   Note off                0, note 66, velocity 21
129:0   Note on                 0, note 73, velocity 88
129:0   Note on                 1, note 37, velocity 110
129:0   Note on                 2, note 37, velocity 106
129:0   Note on                 3, note 37, velocity 110
129:0   Note off                1, note 37, velocity 110
129:0   Note off                2, note 37, velocity 106
129:0   Note off                3, note 37, velocity 110
129:0   Note on                 1, note 37, velocity 110
129:0   Note on                 2, note 37, velocity 106
129:0   Note on                 3, note 37, velocity 110
129:0   Note off                1, note 37, velocity 110
129:0   Note off                2, note 37, velocity 106
129:0   Note off                3, note 37, velocity 110
129:0   Note on                 1, note 37, velocity 110
129:0   Note on                 2, note 37, velocity 106
129:0   Note on                 3, note 37, velocity 110
129:0   Note off                1, note 37, velocity 110
129:0   Note off                2, note 37, velocity 106
129:0   Note off                3, note 37, velocity 110
129:0   Note on                 1, note 37, velocity 110
129:0   Note on                 2, note 37, velocity 106
129:0   Note on                 3, note 37, velocity 110
129:0   Note on                 1, note 32, velocity 110
129:0   Note on                 2, note 32, velocity 99
129:0   Note on                 3, note 32, velocity 110
129:0   Note off                1, note 37, velocity 110
129:0   Note off                2, note 37, velocity 106
129:0   Note off                3, note 37, velocity 110
129:0   Note off                1, note 32, velocity 110
129:0   Note off                2, note 32, velocity 99
129:0   Note off                3, note 32, velocity 110
129:0   Note on                 1, note 40, velocity 110
129:0   Note on                 1, note 37, velocity 110
129:0   Note on                 2, note 37, velocity 106
129:0   Note on                 3, note 37, velocity 110
129:0   Note on                 2, note 40, velocity 99
129:0   Note on                 3, note 40, velocity 110
129:0   Note off                0, note 73, velocity 51
129:0   Note off                1, note 40, velocity 110
129:0   Note off                2, note 40, velocity 99
129:0   Note off                3, note 40, velocity 110
129:0   Note on                 1, note 32, velocity 110
129:0   Note on                 2, note 32, velocity 99
129:0   Note on                 3, note 32, velocity 110
129:0   Note off                1, note 37, velocity 110
129:0   Note off                2, note 37, velocity 106
129:0   Note off                3, note 37, velocity 110
129:0   Note off                1, note 32, velocity 110
129:0   Note off                2, note 32, velocity 99
129:0   Note off                3, note 32, velocity 110
129:0   Note on                 1, note 40, velocity 110
129:0   Note on                 1, note 37, velocity 110
129:0   Note on                 2, note 37, velocity 106
129:0   Note on                 3, note 37, velocity 110
129:0   Note on                 2, note 40, velocity 99
129:0   Note on                 3, note 40, velocity 110
129:0   Note off                1, note 40, velocity 110
129:0   Note off                2, note 40, velocity 99
129:0   Note off                3, note 40, velocity 110
129:0   Note on                 1, note 32, velocity 110
129:0   Note on                 2, note 32, velocity 99
129:0   Note on                 3, note 32, velocity 110
129:0   Note off                1, note 37, velocity 110
129:0   Note off                2, note 37, velocity 106
129:0   Note off                3, note 37, velocity 110
129:0   Note off                1, note 32, velocity 110
129:0   Note off                2, note 32, velocity 99
129:0   Note off                3, note 32, velocity 110
129:0   Note on                 1, note 42, velocity 110
129:0   Note on                 1, note 37, velocity 110
129:0   Note on                 2, note 37, velocity 106
129:0   Note on                 3, note 37, velocity 110
129:0   Note on                 2, note 42, velocity 99
129:0   Note on                 3, note 42, velocity 110
129:0   Note off                1, note 42, velocity 110
129:0   Note off                2, note 42, velocity 99
129:0   Note off                3, note 42, velocity 110
129:0   Note on                 1, note 32, velocity 110
129:0   Note on                 2, note 32, velocity 99
129:0   Note on                 3, note 32, velocity 110
129:0   Note off                1, note 37, velocity 110
129:0   Note off                2, note 37, velocity 106
129:0   Note off                3, note 37, velocity 110
129:0   Note off                1, note 32, velocity 110
129:0   Note off                2, note 32, velocity 99
129:0   Note off                3, note 32, velocity 110
129:0   Note on                 1, note 37, velocity 43
129:0   Note on                 1, note 37, velocity 110
129:0   Note on                 2, note 37, velocity 106
129:0   Note on                 3, note 37, velocity 110
129:0   Note on                 2, note 37, velocity 39
129:0   Note on                 3, note 37, velocity 64
129:0   Note on                 0, note 74, velocity 88
129:0   Note off                1, note 37, velocity 110
129:0   Note off                1, note 37, velocity 110
129:0   Note off                2, note 37, velocity 106
129:0   Note off                3, note 37, velocity 110
129:0   Note off                2, note 37, velocity 99
129:0   Note off                3, note 37, velocity 110
129:0   Note off                0, note 74, velocity 86
129:0   Note on                 0, note 82, velocity 88
129:0   Note on                 1, note 37, velocity 110
129:0   Note on                 2, note 37, velocity 106
129:0   Note on                 3, note 37, velocity 110
129:0   Note off                0, note 82, velocity 86
129:0   Note on                 0, note 74, velocity 88
129:0   Note off                1, note 37, velocity 110
129:0   Note off                2, note 37, velocity 106
129:0   Note off                3, note 37, velocity 110
129:0   Note off                0, note 74, velocity 86
129:0   Note on                 0, note 80, velocity 88
129:0   Note on                 1, note 37, velocity 110
129:0   Note on                 2, note 37, velocity 106
129:0   Note on                 3, note 37, velocity 110
129:0   Note off                0, note 80, velocity 86
129:0   Note on                 0, note 72, velocity 88
129:0   Note off                1, note 37, velocity 110
129:0   Note off                2, note 37, velocity 106
129:0   Note off                3, note 37, velocity 110
129:0   Note off                0, note 72, velocity 86
129:0   Note on                 0, note 82, velocity 88
129:0   Note on                 1, note 37, velocity 110
129:0   Note on                 2, note 37, velocity 106
129:0   Note on                 3, note 37, velocity 110
129:0   Note off                0, note 82, velocity 86
129:0   Note on                 0, note 74, velocity 88
129:0   Note off                1, note 37, velocity 110
129:0   Note off                2, note 37, velocity 106
129:0   Note off                3, note 37, velocity 110
129:0   Note off                0, note 74, velocity 86
129:0   Note on                 1, note 37, velocity 110
129:0   Note on                 2, note 37, velocity 106
129:0   Note on                 3, note 37, velocity 110
129:0   Note on                 1, note 32, velocity 110
129:0   Note on                 2, note 32, velocity 99
129:0   Note on                 3, note 32, velocity 110
129:0   Note off                1, note 37, velocity 110
129:0   Note off                2, note 37, velocity 106
129:0   Note off                3, note 37, velocity 110
129:0   Note off                1, note 32, velocity 110
129:0   Note off                2, note 32, velocity 99
129:0   Note off                3, note 32, velocity 110
129:0   Note on                 1, note 40, velocity 110
129:0   Note on                 1, note 37, velocity 110
129:0   Note on                 2, note 37, velocity 106
129:0   Note on                 3, note 37, velocity 110
129:0   Note on                 2, note 40, velocity 99
129:0   Note on                 3, note 40, velocity 110
129:0   Note off                1, note 40, velocity 110
129:0   Note off                2, note 40, velocity 99
129:0   Note off                3, note 40, velocity 110
129:0   Note on                 1, note 32, velocity 110
129:0   Note on                 2, note 32, velocity 99
129:0   Note on                 3, note 32, velocity 110
129:0   Note off                1, note 37, velocity 110
129:0   Note off                2, note 37, velocity 106
129:0   Note off                3, note 37, velocity 110
129:0   Note off                1, note 32, velocity 110
129:0   Note off                2, note 32, velocity 99
129:0   Note off                3, note 32, velocity 110
129:0   Note on                 1, note 42, velocity 110
129:0   Note on                 1, note 37, velocity 110
129:0   Note on                 2, note 37, velocity 106
129:0   Note on                 3, note 37, velocity 110
129:0   Note on                 2, note 42, velocity 99
129:0   Note on                 3, note 42, velocity 110
129:0   Note off                1, note 42, velocity 110
129:0   Note off                2, note 42, velocity 99
129:0   Note off                3, note 42, velocity 110
129:0   Note on                 1, note 32, velocity 110
129:0   Note on                 2, note 32, velocity 99
129:0   Note on                 3, note 32, velocity 110
129:0   Note off                1, note 37, velocity 110
129:0   Note off                2, note 37, velocity 106
129:0   Note off                3, note 37, velocity 110
129:0   Note off                1, note 32, velocity 110
129:0   Note off                2, note 32, velocity 99
129:0   Note off                3, note 32, velocity 110
129:0   Note on                 1, note 40, velocity 110
129:0   Note on                 1, note 37, velocity 110
129:0   Note on                 2, note 37, velocity 106
129:0   Note on                 3, note 37, velocity 110
129:0   Note on                 2, note 40, velocity 99
129:0   Note on                 3, note 40, velocity 110
129:0   Note on                 1, note 40, velocity 110
129:0   Note on                 2, note 40, velocity 99
129:0   Note on                 3, note 40, velocity 110
129:0   Note off                1, note 40, velocity 110
129:0   Note off                2, note 40, velocity 99
129:0   Note off                3, note 40, velocity 110
129:0   Note on                 1, note 32, velocity 110
129:0   Note on                 2, note 32, velocity 99
129:0   Note on                 3, note 32, velocity 110
129:0   Note off                1, note 40, velocity 110
129:0   Note off                2, note 40, velocity 99
129:0   Note off                3, note 40, velocity 110
129:0   Note off                1, note 37, velocity 110
129:0   Note off                2, note 37, velocity 106
129:0   Note off                3, note 37, velocity 110
129:0   Note off                1, note 32, velocity 110
129:0   Note off                2, note 32, velocity 99
129:0   Note off                3, note 32, velocity 110
129:0   Note on                 1, note 37, velocity 43
129:0   Note on                 1, note 37, velocity 110
129:0   Note on                 2, note 37, velocity 106
129:0   Note on                 3, note 37, velocity 110
129:0   Note on                 2, note 37, velocity 39
129:0   Note on                 3, note 37, velocity 64
129:0   Note on                 0, note 74, velocity 88
129:0   Note off                1, note 37, velocity 110
129:0   Note off                1, note 37, velocity 110
129:0   Note off                2, note 37, velocity 106
129:0   Note off                3, note 37, velocity 110
129:0   Note off                2, note 37, velocity 99
129:0   Note off                3, note 37, velocity 110
129:0   Note off                0, note 74, velocity 86
129:0   Note on                 0, note 82, velocity 88
129:0   Note on                 1, note 37, velocity 110
129:0   Note on                 2, note 37, velocity 106
129:0   Note on                 3, note 37, velocity 110
129:0   Note off                0, note 82, velocity 86
129:0   Note on                 0, note 74, velocity 88
129:0   Note off                1, note 37, velocity 110
129:0   Note off                2, note 37, velocity 106
129:0   Note off                3, note 37, velocity 110
129:0   Note off                0, note 74, velocity 86
129:0   Note on                 0, note 84, velocity 88
129:0   Note on                 1, note 37, velocity 110
129:0   Note on                 2, note 37, velocity 106
129:0   Note on                 3, note 37, velocity 110
129:0   Note off                0, note 84, velocity 86
129:0   Note on                 0, note 76, velocity 88
129:0   Note off                1, note 37, velocity 110
129:0   Note off                2, note 37, velocity 106
129:0   Note off                3, note 37, velocity 110
129:0   Note off                0, note 76, velocity 86
129:0   Note on                 0, note 82, velocity 88
129:0   Note on                 1, note 37, velocity 110
129:0   Note on                 2, note 37, velocity 106
129:0   Note on                 3, note 37, velocity 110
129:0   Note off                0, note 82, velocity 86
129:0   Note on                 0, note 74, velocity 88
129:0   Note on                 1, note 34, velocity 110
129:0   Note on                 2, note 34, velocity 99
129:0   Note on                 3, note 34, velocity 110
129:0   Note off                1, note 37, velocity 110
129:0   Note off                2, note 37, velocity 106
129:0   Note off                3, note 37, velocity 110
129:0   Note off                0, note 74, velocity 86
129:0   Note off                1, note 34, velocity 110
129:0   Note off                2, note 34, velocity 99
129:0   Note off                3, note 34, velocity 110
129:0   Note on                 1, note 36, velocity 110
129:0   Note on                 1, note 37, velocity 110
129:0   Note on                 2, note 37, velocity 106
129:0   Note on                 3, note 37, velocity 110
129:0   Note on                 2, note 36, velocity 99
129:0   Note on                 3, note 36, velocity 110
129:0   Note off                1, note 36, velocity 110
129:0   Note off                2, note 36, velocity 99
129:0   Note off                3, note 36, velocity 110
129:0   Note on                 1, note 37, velocity 110
129:0   Note on                 2, note 37, velocity 99
129:0   Note on                 3, note 37, velocity 110
129:0   Note off                1, note 37, velocity 110
129:0   Note off                2, note 37, velocity 106
129:0   Note off                3, note 37, velocity 110
129:0   Note off                1, note 37, velocity 110
129:0   Note off                2, note 37, velocity 99
129:0   Note off                3, note 37, velocity 110
129:0   Note on                 1, note 38, velocity 110
129:0   Note on                 1, note 37, velocity 110
129:0   Note on                 2, note 37, velocity 106
129:0   Note on                 3, note 37, velocity 110
129:0   Note on                 2, note 38, velocity 99
129:0   Note on                 3, note 38, velocity 110
129:0   Note off                1, note 38, velocity 110
129:0   Note off                2, note 38, velocity 99
129:0   Note off                3, note 38, velocity 110
129:0   Note on                 1, note 37, velocity 110
129:0   Note on                 2, note 37, velocity 99
129:0   Note on                 3, note 37, velocity 110
129:0   Note off                1, note 37, velocity 110
129:0   Note off                2, note 37, velocity 106
129:0   Note off                3, note 37, velocity 110
129:0   Note off                1, note 37, velocity 110
129:0   Note off                2, note 37, velocity 99
129:0   Note off                3, note 37, velocity 110
129:0   Note on                 1, note 40, velocity 110
129:0   Note on                 1, note 37, velocity 110
129:0   Note on                 2, note 37, velocity 106
129:0   Note on                 3, note 37, velocity 110
129:0   Note on                 2, note 40, velocity 99
129:0   Note on                 3, note 40, velocity 110
129:0   Note off                1, note 40, velocity 110
129:0   Note off                2, note 40, velocity 99
129:0   Note off                3, note 40, velocity 110
129:0   Note on                 0, note 78, velocity 88
129:0   Note on                 1, note 42, velocity 110
129:0   Note on                 2, note 42, velocity 99
129:0   Note on                 3, note 42, velocity 110
129:0   Note off                1, note 37, velocity 110
129:0   Note off                2, note 37, velocity 106
129:0   Note off                3, note 37, velocity 110
129:0   Note off                0, note 78, velocity 86
129:0   Note off                1, note 42, velocity 110
129:0   Note off                2, note 42, velocity 99
129:0   Note off                3, note 42, velocity 110
129:0   Note on                 0, note 79, velocity 88
129:0   Note on                 1, note 37, velocity 110
129:0   Note on                 2, note 37, velocity 106
129:0   Note on                 3, note 37, velocity 110
129:0   Note off                0, note 79, velocity 86
129:0   Note on                 0, note 81, velocity 88
129:0   Note off                1, note 37, velocity 110
129:0   Note off                2, note 37, velocity 106
129:0   Note off                3, note 37, velocity 110
129:0   Note off                0, note 81, velocity 86
129:0   Note on                 0, note 82, velocity 88
129:0   Note on                 1, note 37, velocity 110
129:0   Note on                 2, note 37, velocity 106
129:0   Note on                 3, note 37, velocity 110
129:0   Note off                0, note 82, velocity 86
129:0   Note on                 0, note 84, velocity 88
129:0   Note off                1, note 37, velocity 110
129:0   Note off                2, note 37, velocity 106
129:0   Note off                3, note 37, velocity 110
129:0   Note off                0, note 84, velocity 86
129:0   Note on                 0, note 85, velocity 88
129:0   Note on                 1, note 37, velocity 110
129:0   Note on                 2, note 37, velocity 106
129:0   Note on                 3, note 37, velocity 110
129:0   Note off                0, note 85, velocity 86
129:0   Note on                 0, note 87, velocity 88
129:0   Note off                1, note 37, velocity 110
129:0   Note off                2, note 37, velocity 106
129:0   Note off                3, note 37, velocity 110
129:0   Note off                0, note 87, velocity 86
129:0   Note on                 1, note 37, velocity 110
129:0   Note on                 2, note 37, velocity 106
129:0   Note on                 3, note 37, velocity 110
129:0   Note on                 1, note 34, velocity 110
129:0   Note on                 2, note 34, velocity 99
129:0   Note on                 3, note 34, velocity 110
129:0   Note off                1, note 37, velocity 110
129:0   Note off                2, note 37, velocity 106
129:0   Note off                3, note 37, velocity 110
129:0   Note off                1, note 34, velocity 110
129:0   Note off                2, note 34, velocity 99
129:0   Note off                3, note 34, velocity 110
129:0   Note on                 1, note 36, velocity 110
129:0   Note on                 1, note 37, velocity 110
129:0   Note on                 2, note 37, velocity 106
129:0   Note on                 3, note 37, velocity 110
129:0   Note on                 2, note 36, velocity 99
129:0   Note on                 3, note 36, velocity 110
129:0   Note off                1, note 36, velocity 110
129:0   Note off                2, note 36, velocity 99
129:0   Note off                3, note 36, velocity 110
129:0   Note on                 1, note 37, velocity 110
129:0   Note on                 2, note 37, velocity 99
129:0   Note on                 3, note 37, velocity 110
129:0   Note off                1, note 37, velocity 110
129:0   Note off                2, note 37, velocity 106
129:0   Note off                3, note 37, velocity 110
129:0   Note off                1, note 37, velocity 110
129:0   Note off                2, note 37, velocity 99
129:0   Note off                3, note 37, velocity 110
129:0   Note on                 1, note 38, velocity 110
129:0   Note on                 1, note 37, velocity 110
129:0   Note on                 2, note 37, velocity 106
129:0   Note on                 3, note 37, velocity 110
129:0   Note on                 2, note 38, velocity 99
129:0   Note on                 3, note 38, velocity 110
129:0   Note off                1, note 38, velocity 110
129:0   Note off                2, note 38, velocity 99
129:0   Note off                3, note 38, velocity 110
129:0   Note on                 1, note 37, velocity 110
129:0   Note on                 2, note 37, velocity 99
129:0   Note on                 3, note 37, velocity 110
129:0   Note off                1, note 37, velocity 110
129:0   Note off                2, note 37, velocity 106
129:0   Note off                3, note 37, velocity 110
129:0   Note off                1, note 37, velocity 110
129:0   Note off                2, note 37, velocity 99
129:0   Note off                3, note 37, velocity 110
129:0   Note on                 1, note 40, velocity 110
129:0   Note on                 1, note 37, velocity 110
129:0   Note on                 2, note 37, velocity 106
129:0   Note on                 3, note 37, velocity 110
129:0   Note on                 2, note 40, velocity 99
129:0   Note on                 3, note 40, velocity 110
129:0   Note off                1, note 40, velocity 110
129:0   Note off                2, note 40, velocity 99
129:0   Note off                3, note 40, velocity 110
129:0   Note on                 1, note 41, velocity 110
129:0   Note on                 2, note 41, velocity 99
129:0   Note on                 3, note 41, velocity 110
129:0   Note off                1, note 37, velocity 110
129:0   Note off                2, note 37, velocity 106
129:0   Note off                3, note 37, velocity 110
129:0   Note off                1, note 41, velocity 110
129:0   Note off                2, note 41, velocity 99
129:0   Note off                3, note 41, velocity 110
129:0   Note on                 1, note 37, velocity 110
129:0   Note on                 2, note 37, velocity 106
129:0   Note on                 3, note 37, velocity 110
129:0   Note on                 0, note 74, velocity 88
129:0   Note off                1, note 37, velocity 110
129:0   Note off                2, note 37, velocity 106
129:0   Note off                3, note 37, velocity 110
129:0   Note off                0, note 74, velocity 86
129:0   Note on                 0, note 75, velocity 88
129:0   Note on                 1, note 37, velocity 110
129:0   Note on                 2, note 37, velocity 106
129:0   Note on                 3, note 37, velocity 110
129:0   Note off                0, note 75, velocity 86
129:0   Note on                 0, note 76, velocity 88
129:0   Note off                1, note 37, velocity 110
129:0   Note off                2, note 37, velocity 106
129:0   Note off                3, note 37, velocity 110
129:0   Note off                0, note 76, velocity 86
129:0   Note on                 0, note 78, velocity 88
129:0   Note on                 1, note 37, velocity 110
129:0   Note on                 2, note 37, velocity 106
129:0   Note on                 3, note 37, velocity 110
129:0   Note off                0, note 78, velocity 86
129:0   Note on                 0, note 79, velocity 88
129:0   Note off                1, note 37, velocity 110
129:0   Note off                2, note 37, velocity 106
129:0   Note off                3, note 37, velocity 110
129:0   Note off                0, note 79, velocity 86
129:0   Note on                 0, note 81, velocity 88
129:0   Note on                 1, note 37, velocity 110
129:0   Note on                 2, note 37, velocity 106
129:0   Note on                 3, note 37, velocity 110
129:0   Note off                0, note 81, velocity 86
129:0   Note on                 0, note 82, velocity 88
129:0   Note off                1, note 37, velocity 110
129:0   Note off                2, note 37, velocity 106
129:0   Note off                3, note 37, velocity 110
129:0   Note off                0, note 82, velocity 86
129:0   Note on                 0, note 84, velocity 88
129:0   Note on                 1, note 37, velocity 110
129:0   Note on                 2, note 37, velocity 106
129:0   Note on                 3, note 37, velocity 110
129:0   Note on                 0, note 81, velocity 88
129:0   Note off                0, note 84, velocity 86
129:0   Note on                 0, note 75, velocity 88
129:0   Note off                0, note 81, velocity 86
129:0   Note off                1, note 37, velocity 110
129:0   Note off                2, note 37, velocity 106
129:0   Note off                3, note 37, velocity 110
129:0   Note off                0, note 75, velocity 86
129:0   Note on                 0, note 81, velocity 88
129:0   Note on                 1, note 37, velocity 110
129:0   Note on                 2, note 37, velocity 106
129:0   Note on                 3, note 37, velocity 110
129:0   Note on                 0, note 77, velocity 88
129:0   Note off                0, note 81, velocity 86
129:0   Note on                 0, note 70, velocity 88
129:0   Note off                0, note 77, velocity 86
129:0   Note off                1, note 37, velocity 110
129:0   Note off                2, note 37, velocity 106
129:0   Note off                3, note 37, velocity 110
129:0   Note off                0, note 70, velocity 86
129:0   Note on                 1, note 37, velocity 110
129:0   Note on                 2, note 37, velocity 106
129:0   Note on                 3, note 37, velocity 110
129:0   Note on                 1, note 50, velocity 110
129:0   Note on                 2, note 50, velocity 99
129:0   Note on                 3, note 50, velocity 110
129:0   Note off                1, note 37, velocity 110
129:0   Note off                2, note 37, velocity 106
129:0   Note off                3, note 37, velocity 110
129:0   Note off                1, note 50, velocity 110
129:0   Note off                2, note 50, velocity 99
129:0   Note off                3, note 50, velocity 110
129:0   Note on                 1, note 57, velocity 110
129:0   Note on                 1, note 37, velocity 110
129:0   Note on                 2, note 37, velocity 106
129:0   Note on                 3, note 37, velocity 110
129:0   Note on                 2, note 57, velocity 99
129:0   Note on                 3, note 57, velocity 110
129:0   Note on                 1, note 58, velocity 110
129:0   Note on                 2, note 58, velocity 99
129:0   Note on                 3, note 58, velocity 110
129:0   Note off                1, note 57, velocity 110
129:0   Note off                2, note 57, velocity 99
129:0   Note off                3, note 57, velocity 110
129:0   Note on                 1, note 56, velocity 110
129:0   Note on                 2, note 56, velocity 99
129:0   Note on                 3, note 56, velocity 110
129:0   Note off                1, note 58, velocity 110
129:0   Note off                2, note 58, velocity 99
129:0   Note off                3, note 58, velocity 110
129:0   Note off                1, note 37, velocity 110
129:0   Note off                2, note 37, velocity 106
129:0   Note off                3, note 37, velocity 110
129:0   Note on                 1, note 52, velocity 110
129:0   Note on                 2, note 52, velocity 99
129:0   Note on                 3, note 52, velocity 110
129:0   Note off                1, note 56, velocity 110
129:0   Note off                2, note 56, velocity 99
129:0   Note off                3, note 56, velocity 110
129:0   Note off                1, note 52, velocity 110
129:0   Note off                2, note 52, velocity 99
129:0   Note off                3, note 52, velocity 110
129:0   Note on                 1, note 56, velocity 110
129:0   Note on                 1, note 37, velocity 110
129:0   Note on                 2, note 37, velocity 106
129:0   Note on                 3, note 37, velocity 110
129:0   Note on                 2, note 56, velocity 99
129:0   Note on                 3, note 56, velocity 110
129:0   Note off                1, note 56, velocity 110
129:0   Note off                1, note 37, velocity 110
129:0   Note off                2, note 37, velocity 106
129:0   Note off                3, note 37, velocity 110
129:0   Note off                2, note 56, velocity 99
129:0   Note off                3, note 56, velocity 110
129:0   Note on                 1, note 50, velocity 110
129:0   Note on                 2, note 50, velocity 99
129:0   Note on                 3, note 50, velocity 110
129:0   Note on                 1, note 53, velocity 110
129:0   Note on                 1, note 37, velocity 110
129:0   Note on                 2, note 37, velocity 106
129:0   Note on                 3, note 37, velocity 110
129:0   Note on                 2, note 53, velocity 99
129:0   Note on                 3, note 53, velocity 110
129:0   Note off                1, note 50, velocity 110
129:0   Note off                2, note 50, velocity 99
129:0   Note off                3, note 50, velocity 110
129:0   Note off                1, note 53, velocity 110
129:0   Note off                2, note 53, velocity 99
129:0   Note off                3, note 53, velocity 110
129:0   Note off                1, note 37, velocity 110
129:0   Note off                2, note 37, velocity 106
129:0   Note off                3, note 37, velocity 110
129:0   Note on                 1, note 37, velocity 110
129:0   Note on                 2, note 37, velocity 106
129:0   Note on                 3, note 37, velocity 110
129:0   Note off                1, note 37, velocity 110
129:0   Note off                2, note 37, velocity 106
129:0   Note off                3, note 37, velocity 110
129:0   Note on                 0, note 82, velocity 88
129:0   Note on                 1, note 37, velocity 110
129:0   Note on                 2, note 37, velocity 106
129:0   Note on                 3, note 37, velocity 110
129:0   Note off                0, note 82, velocity 86
129:0   Note on                 0, note 81, velocity 88
129:0   Note off                0, note 81, velocity 86
129:0   Note on                 0, note 80, velocity 88
129:0   Note off                1, note 37, velocity 110
129:0   Note off                2, note 37, velocity 106
129:0   Note off                3, note 37, velocity 110
129:0   Note off                0, note 80, velocity 86
129:0   Note on                 0, note 74, velocity 88
129:0   Note on                 1, note 37, velocity 110
129:0   Note on                 2, note 37, velocity 106
129:0   Note on                 3, note 37, velocity 110
129:0   Note off                0, note 74, velocity 86
129:0   Note on                 0, note 73, velocity 88
129:0   Note off                0, note 73, velocity 86
129:0   Note on                 0, note 71, velocity 88
129:0   Note off                1, note 37, velocity 110
129:0   Note off                2, note 37, velocity 106
129:0   Note off                3, note 37, velocity 110
129:0   Note off                0, note 71, velocity 86
129:0   Note on                 0, note 79, velocity 88
129:0   Note on                 1, note 37, velocity 110
129:0   Note on                 2, note 37, velocity 106
129:0   Note on                 3, note 37, velocity 110
129:0   Note off                0, note 79, velocity 86
129:0   Note on                 0, note 71, velocity 88
129:0   Note off                0, note 71, velocity 86
129:0   Note off                1, note 37, velocity 110
129:0   Note off                2, note 37, velocity 106
129:0   Note off                3, note 37, velocity 110
129:0   Note on                 0, note 84, velocity 88
129:0   Note on                 1, note 37, velocity 110
129:0   Note on                 2, note 37, velocity 106
129:0   Note on                 3, note 37, velocity 110
129:0   Note off                0, note 84, velocity 86
129:0   Note on                 0, note 83, velocity 88
129:0   Note off                0, note 83, velocity 86
129:0   Note on                 0, note 82, velocity 88
129:0   Note off                1, note 37, velocity 110
129:0   Note off                2, note 37, velocity 106
129:0   Note off                3, note 37, velocity 110
129:0   Note off                0, note 82, velocity 86
129:0   Note on                 0, note 71, velocity 88
129:0   Note on                 1, note 60, velocity 110
129:0   Note on                 1, note 37, velocity 110
129:0   Note on                 2, note 37, velocity 106
129:0   Note on                 3, note 37, velocity 110
129:0   Note on                 2, note 60, velocity 99
129:0   Note on                 3, note 60, velocity 110
129:0   Note off                0, note 71, velocity 86
129:0   Note off                1, note 60, velocity 110
129:0   Note off                2, note 60, velocity 99
129:0   Note off                3, note 60, velocity 110
129:0   Note on                 1, note 59, velocity 110
129:0   Note on                 2, note 59, velocity 99
129:0   Note on                 3, note 59, velocity 110
129:0   Note off                1, note 59, velocity 110
129:0   Note off                2, note 59, velocity 99
129:0   Note off                3, note 59, velocity 110
129:0   Note on                 1, note 58, velocity 110
129:0   Note off                1, note 37, velocity 110
129:0   Note off                2, note 37, velocity 106
129:0   Note off                3, note 37, velocity 110
129:0   Note on                 2, note 58, velocity 99
129:0   Note on                 3, note 58, velocity 110
129:0   Note off                1, note 58, velocity 110
129:0   Note off                2, note 58, velocity 99
129:0   Note off                3, note 58, velocity 110
129:0   Note on                 1, note 47, velocity 110
129:0   Note on                 1, note 37, velocity 110
129:0   Note on                 2, note 37, velocity 106
129:0   Note on                 3, note 37, velocity 110
129:0   Note on                 2, note 47, velocity 99
129:0   Note on                 3, note 47, velocity 110
129:0   Note off                1, note 47, velocity 110
129:0   Note off                2, note 47, velocity 99
129:0   Note off                3, note 47, velocity 110
129:0   Note off                1, note 37, velocity 110
129:0   Note off                2, note 37, velocity 106
129:0   Note off                3, note 37, velocity 110
129:0   Note on                 1, note 37, velocity 110
129:0   Note on                 2, note 37, velocity 106
129:0   Note on                 3, note 37, velocity 110
129:0   Note on                 0, note 86, velocity 88
129:0   Note off                0, note 86, velocity 86
129:0   Note on                 0, note 85, velocity 88
129:0   Note off                1, note 37, velocity 110
129:0   Note off                2, note 37, velocity 106
129:0   Note off                3, note 37, velocity 110
129:0   Note off                0, note 85, velocity 86
129:0   Note on                 0, note 84, velocity 88
129:0   Note on                 1, note 37, velocity 110
129:0   Note on                 2, note 37, velocity 106
129:0   Note on                 3, note 37, velocity 110
129:0   Note off                0, note 84, velocity 86
129:0   Note on                 0, note 73, velocity 88
129:0   Note off                0, note 73, velocity 86
129:0   Note off                1, note 37, velocity 110
129:0   Note off                2, note 37, velocity 106
129:0   Note off                3, note 37, velocity 110
129:0   Note on                 1, note 62, velocity 110
129:0   Note on                 1, note 37, velocity 110
129:0   Note on                 2, note 37, velocity 106
129:0   Note on                 3, note 37, velocity 110
129:0   Note on                 2, note 62, velocity 99
129:0   Note on                 3, note 62, velocity 110
129:0   Note off                1, note 62, velocity 110
129:0   Note off                2, note 62, velocity 99
129:0   Note off                3, note 62, velocity 110
129:0   Note on                 1, note 61, velocity 110
129:0   Note on                 2, note 61, velocity 99
129:0   Note on                 3, note 61, velocity 110
129:0   Note off                1, note 61, velocity 110
129:0   Note off                2, note 61, velocity 99
129:0   Note off                3, note 61, velocity 110
129:0   Note on                 1, note 60, velocity 110
129:0   Note off                1, note 37, velocity 110
129:0   Note off                2, note 37, velocity 106
129:0   Note off                3, note 37, velocity 110
129:0   Note on                 2, note 60, velocity 99
129:0   Note on                 3, note 60, velocity 110
129:0   Note off                1, note 60, velocity 110
129:0   Note off                2, note 60, velocity 99
129:0   Note off                3, note 60, velocity 110
129:0   Note on                 1, note 49, velocity 110
129:0   Note on                 1, note 37, velocity 110
129:0   Note on                 2, note 37, velocity 106
129:0   Note on                 3, note 37, velocity 110
129:0   Note on                 2, note 49, velocity 99
129:0   Note on                 3, note 49, velocity 110
129:0   Note off                1, note 49, velocity 110
129:0   Note off                2, note 49, velocity 99
129:0   Note off                3, note 49, velocity 110
129:0   Note off                1, note 37, velocity 110
129:0   Note off                2, note 37, velocity 106
129:0   Note off                3, note 37, velocity 110
129:0   Note on                 1, note 37, velocity 110
129:0   Note on                 2, note 37, velocity 106
129:0   Note on                 3, note 37, velocity 110
129:0   Note on                 0, note 82, velocity 88
129:0   Note off                0, note 82, velocity 95
129:0   Note on                 0, note 77, velocity 88
129:0   Note off                1, note 37, velocity 110
129:0   Note off                2, note 37, velocity 106
129:0   Note off                3, note 37, velocity 110
129:0   Note off                0, note 77, velocity 95
129:0   Note on                 0, note 72, velocity 88
129:0   Note on                 1, note 55, velocity 110
129:0   Note on                 1, note 37, velocity 110
129:0   Note on                 2, note 37, velocity 106
129:0   Note on                 3, note 37, velocity 110
129:0   Note on                 2, note 55, velocity 99
129:0   Note on                 3, note 55, velocity 110
129:0   Note off                0, note 72, velocity 95
129:0   Note on                 0, note 84, velocity 88
129:0   Note off                0, note 84, velocity 95
129:0   Note on                 0, note 68, velocity 88
129:0   Note off                1, note 37, velocity 110
129:0   Note off                2, note 37, velocity 106
129:0   Note off                3, note 37, velocity 110
129:0   Note off                0, note 68, velocity 86
129:0   Note off                1, note 55, velocity 110
129:0   Note off                2, note 55, velocity 99
129:0   Note off                3, note 55, velocity 110
129:0   Note on                 0, note 70, velocity 88
129:0   Note on                 1, note 50, velocity 110
129:0   Note on                 1, note 37, velocity 110
129:0   Note on                 2, note 37, velocity 106
129:0   Note on                 3, note 37, velocity 110
129:0   Note on                 2, note 50, velocity 99
129:0   Note on                 3, note 50, velocity 110
129:0   Note off                0, note 70, velocity 86
129:0   Note on                 0, note 68, velocity 88
129:0   Note off                0, note 68, velocity 86
129:0   Note on                 0, note 75, velocity 88
129:0   Note off                1, note 37, velocity 110
129:0   Note off                2, note 37, velocity 106
129:0   Note off                3, note 37, velocity 110
129:0   Note off                0, note 75, velocity 86
129:0   Note off                1, note 50, velocity 110
129:0   Note off                2, note 50, velocity 99
129:0   Note off                3, note 50, velocity 110
129:0   Note on                 0, note 72, velocity 88
129:0   Note on                 1, note 48, velocity 110
129:0   Note on                 1, note 37, velocity 110
129:0   Note on                 2, note 37, velocity 106
129:0   Note on                 3, note 37, velocity 110
129:0   Note on                 2, note 48, velocity 99
129:0   Note on                 3, note 48, velocity 110
129:0   Note off                0, note 72, velocity 86
129:0   Note off                1, note 48, velocity 110
129:0   Note off                2, note 48, velocity 99
129:0   Note off                3, note 48, velocity 110
129:0   Note on                 0, note 77, velocity 88
129:0   Note on                 1, note 53, velocity 110
129:0   Note on                 2, note 53, velocity 99
129:0   Note on                 3, note 53, velocity 110
129:0   Note off                0, note 77, velocity 86
129:0   Note off                1, note 53, velocity 110
129:0   Note off                2, note 53, velocity 99
129:0   Note off                3, note 53, velocity 110
129:0   Note on                 0, note 72, velocity 88
129:0   Note on                 1, note 58, velocity 110
129:0   Note off                1, note 37, velocity 110
129:0   Note off                2, note 37, velocity 106
129:0   Note off                3, note 37, velocity 110
129:0   Note on                 2, note 58, velocity 99
129:0   Note on                 3, note 58, velocity 110
129:0   Note off                0, note 72, velocity 86
129:0   Note off                1, note 58, velocity 110
129:0   Note off                2, note 58, velocity 99
129:0   Note off                3, note 58, velocity 110
129:0   Note on                 0, note 77, velocity 88
129:0   Note on                 1, note 51, velocity 110
129:0   Note on                 1, note 37, velocity 110
129:0   Note on                 2, note 37, velocity 106
129:0   Note on                 3, note 37, velocity 110
129:0   Note on                 2, note 51, velocity 99
129:0   Note on                 3, note 51, velocity 110
129:0   Note off                0, note 77, velocity 86
129:0   Note off                1, note 51, velocity 110
129:0   Note off                2, note 51, velocity 99
129:0   Note off                3, note 51, velocity 110
129:0   Note on                 0, note 84, velocity 88
129:0   Note on                 1, note 47, velocity 110
129:0   Note on                 2, note 47, velocity 99
129:0   Note on                 3, note 47, velocity 110
129:0   Note off                0, note 84, velocity 86
129:0   Note off                1, note 47, velocity 110
129:0   Note off                2, note 47, velocity 99
129:0   Note off                3, note 47, velocity 110
129:0   Note on                 0, note 79, velocity 88
129:0   Note on                 1, note 53, velocity 110
129:0   Note off                1, note 37, velocity 110
129:0   Note off                2, note 37, velocity 106
129:0   Note off                3, note 37, velocity 110
129:0   Note on                 2, note 53, velocity 99
129:0   Note on                 3, note 53, velocity 110
129:0   Note off                0, note 79, velocity 86
129:0   Note off                1, note 53, velocity 110
129:0   Note off                2, note 53, velocity 99
129:0   Note off                3, note 53, velocity 110
129:0   Note on                 0, note 85, velocity 88
129:0   Note on                 1, note 48, velocity 110
129:0   Note on                 1, note 37, velocity 110
129:0   Note on                 2, note 37, velocity 106
129:0   Note on                 3, note 37, velocity 110
129:0   Note on                 2, note 48, velocity 99
129:0   Note on                 3, note 48, velocity 110
129:0   Note off                0, note 85, velocity 86
129:0   Note off                1, note 48, velocity 110
129:0   Note off                2, note 48, velocity 99
129:0   Note off                3, note 48, velocity 110
129:0   Note on                 0, note 84, velocity 88
129:0   Note on                 1, note 55, velocity 110
129:0   Note on                 2, note 55, velocity 99
129:0   Note on                 3, note 55, velocity 110
129:0   Note off                0, note 84, velocity 95
129:0   Note off                1, note 55, velocity 110
129:0   Note off                2, note 55, velocity 99
129:0   Note off                3, note 55, velocity 110
129:0   Note on                 0, note 84, velocity 88
129:0   Note on                 1, note 50, velocity 110
129:0   Note off                1, note 37, velocity 110
129:0   Note off                2, note 37, velocity 106
129:0   Note off                3, note 37, velocity 110
129:0   Note on                 2, note 50, velocity 99
129:0   Note on                 3, note 50, velocity 110
129:0   Note off                0, note 84, velocity 95
129:0   Note off                1, note 50, velocity 110
129:0   Note off                2, note 50, velocity 99
129:0   Note off                3, note 50, velocity 110
129:0   Note on                 0, note 84, velocity 88
129:0   Note on                 1, note 60, velocity 110
129:0   Note on                 1, note 37, velocity 110
129:0   Note on                 2, note 37, velocity 106
129:0   Note on                 3, note 37, velocity 110
129:0   Note on                 2, note 60, velocity 99
129:0   Note on                 3, note 60, velocity 110
129:0   Note off                0, note 84, velocity 95
129:0   Note off                1, note 60, velocity 110
129:0   Note off                2, note 60, velocity 99
129:0   Note off                3, note 60, velocity 110
129:0   Note on                 1, note 60, velocity 110
129:0   Note on                 2, note 60, velocity 99
129:0   Note on                 3, note 60, velocity 110
129:0   Note off                1, note 60, velocity 110
129:0   Note off                2, note 60, velocity 99
129:0   Note off                3, note 60, velocity 110
129:0   Note on                 0, note 86, velocity 88
129:0   Note on                 1, note 60, velocity 110
129:0   Note off                1, note 37, velocity 110
129:0   Note off                2, note 37, velocity 106
129:0   Note off                3, note 37, velocity 110
129:0   Note on                 2, note 60, velocity 99
129:0   Note on                 3, note 60, velocity 110
129:0   Note off                0, note 86, velocity 86
129:0   Note off                1, note 60, velocity 110
129:0   Note off                2, note 60, velocity 99
129:0   Note off                3, note 60, velocity 110
129:0   Note on                 0, note 74, velocity 88
129:0   Note on                 1, note 37, velocity 110
129:0   Note on                 2, note 37, velocity 106
129:0   Note on                 3, note 37, velocity 110
129:0   Note off                0, note 74, velocity 127
129:0   Note on                 0, note 73, velocity 88
129:0   Note off                0, note 73, velocity 127
129:0   Note on                 0, note 84, velocity 88
129:0   Note on                 1, note 48, velocity 110
129:0   Note off                1, note 37, velocity 110
129:0   Note off                2, note 37, velocity 106
129:0   Note off                3, note 37, velocity 110
129:0   Note on                 2, note 48, velocity 99
129:0   Note on                 3, note 48, velocity 110
129:0   Note off                0, note 84, velocity 127
129:0   Note off                1, note 48, velocity 110
129:0   Note off                2, note 48, velocity 99
129:0   Note off                3, note 48, velocity 110
129:0   Note on                 0, note 77, velocity 88
129:0   Note on                 1, note 50, velocity 110
129:0   Note on                 1, note 37, velocity 110
129:0   Note on                 2, note 37, velocity 106
129:0   Note on                 3, note 37, velocity 110
129:0   Note on                 2, note 50, velocity 99
129:0   Note on                 3, note 50, velocity 110
129:0   Note off                0, note 77, velocity 127
129:0   Note on                 0, note 77, velocity 88
129:0   Note off                0, note 77, velocity 127
129:0   Note on                 0, note 79, velocity 88
129:0   Note off                1, note 37, velocity 110
129:0   Note off                2, note 37, velocity 106
129:0   Note off                3, note 37, velocity 110
129:0   Note off                0, note 79, velocity 127
129:0   Note off                1, note 50, velocity 110
129:0   Note off                2, note 50, velocity 99
129:0   Note off                3, note 50, velocity 110
129:0   Note on                 0, note 72, velocity 88
129:0   Note on                 1, note 48, velocity 110
129:0   Note on                 1, note 37, velocity 110
129:0   Note on                 2, note 37, velocity 106
129:0   Note on                 3, note 37, velocity 110
129:0   Note on                 2, note 48, velocity 99
129:0   Note on                 3, note 48, velocity 110
129:0   Note off                0, note 72, velocity 127
129:0   Note off                1, note 48, velocity 110
129:0   Note off                2, note 48, velocity 99
129:0   Note off                3, note 48, velocity 110
129:0   Note on                 0, note 82, velocity 88
129:0   Note on                 1, note 53, velocity 110
129:0   Note on                 2, note 53, velocity 99
129:0   Note on                 3, note 53, velocity 110
129:0   Note off                0, note 82, velocity 127
129:0   Note off                1, note 53, velocity 110
129:0   Note off                2, note 53, velocity 99
129:0   Note off                3, note 53, velocity 110
129:0   Note on                 0, note 84, velocity 88
129:0   Note on                 1, note 50, velocity 110
129:0   Note off                1, note 37, velocity 110
129:0   Note off                2, note 37, velocity 106
129:0   Note off                3, note 37, velocity 110
129:0   Note on                 2, note 50, velocity 99
129:0   Note on                 3, note 50, velocity 110
129:0   Note off                0, note 84, velocity 127
129:0   Note off                1, note 50, velocity 110
129:0   Note off                2, note 50, velocity 99
129:0   Note off                3, note 50, velocity 110
129:0   Note on                 1, note 58, velocity 110
129:0   Note on                 1, note 37, velocity 110
129:0   Note on                 2, note 37, velocity 106
129:0   Note on                 3, note 37, velocity 110
129:0   Note on                 2, note 58, velocity 99
129:0   Note on                 3, note 58, velocity 110
129:0   Note off                1, note 58, velocity 110
129:0   Note off                2, note 58, velocity 99
129:0   Note off                3, note 58, velocity 110
129:0   Note on                 1, note 60, velocity 110
129:0   Note on                 2, note 60, velocity 99
129:0   Note on                 3, note 60, velocity 110
129:0   Note off                1, note 60, velocity 110
129:0   Note off                2, note 60, velocity 99
129:0   Note off                3, note 60, velocity 110
129:0   Note on                 0, note 67, velocity 88
129:0   Note off                1, note 37, velocity 110
129:0   Note off                2, note 37, velocity 106
129:0   Note off                3, note 37, velocity 110
129:0   Note off                0, note 67, velocity 121
129:0   Note on                 0, note 72, velocity 88
129:0   Note on                 1, note 37, velocity 110
129:0   Note on                 2, note 37, velocity 106
129:0   Note on                 3, note 37, velocity 110
129:0   Note off                0, note 72, velocity 121
129:0   Note on                 0, note 65, velocity 88
129:0   Note on                 1, note 47, velocity 110
129:0   Note on                 2, note 47, velocity 99
129:0   Note on                 3, note 47, velocity 110
129:0   Note off                0, note 65, velocity 121
129:0   Note off                1, note 47, velocity 110
129:0   Note off                2, note 47, velocity 99
129:0   Note off                3, note 47, velocity 110
129:0   Note on                 0, note 70, velocity 88
129:0   Note on                 1, note 52, velocity 110
129:0   Note off                1, note 37, velocity 110
129:0   Note off                2, note 37, velocity 106
129:0   Note off                3, note 37, velocity 110
129:0   Note on                 2, note 52, velocity 99
129:0   Note on                 3, note 52, velocity 110
129:0   Note off                0, note 70, velocity 121
129:0   Note off                1, note 52, velocity 110
129:0   Note off                2, note 52, velocity 99
129:0   Note off                3, note 52, velocity 110
129:0   Note on                 0, note 72, velocity 88
129:0   Note on                 1, note 41, velocity 110
129:0   Note on                 1, note 37, velocity 110
129:0   Note on                 2, note 37, velocity 106
129:0   Note on                 3, note 37, velocity 110
129:0   Note on                 2, note 41, velocity 99
129:0   Note on                 3, note 41, velocity 110
129:0   Note off                0, note 72, velocity 121
129:0   Note off                1, note 41, velocity 110
129:0   Note off                2, note 41, velocity 99
129:0   Note off                3, note 41, velocity 110
129:0   Note on                 0, note 77, velocity 88
129:0   Note on                 1, note 46, velocity 110
129:0   Note on                 2, note 46, velocity 99
129:0   Note on                 3, note 46, velocity 110
129:0   Note off                0, note 77, velocity 121
129:0   Note off                1, note 46, velocity 110
129:0   Note off                2, note 46, velocity 99
129:0   Note off                3, note 46, velocity 110
129:0   Note on                 0, note 79, velocity 88
129:0   Note on                 1, note 48, velocity 110
129:0   Note off                1, note 37, velocity 110
129:0   Note off                2, note 37, velocity 106
129:0   Note off                3, note 37, velocity 110
129:0   Note on                 2, note 48, velocity 99
129:0   Note on                 3, note 48, velocity 110
129:0   Note off                0, note 79, velocity 121
129:0   Note off                1, note 48, velocity 110
129:0   Note off                2, note 48, velocity 99
129:0   Note off                3, note 48, velocity 110
129:0   Note on                 1, note 53, velocity 110
129:0   Note on                 1, note 37, velocity 110
129:0   Note on                 2, note 37, velocity 106
129:0   Note on                 3, note 37, velocity 110
129:0   Note on                 2, note 53, velocity 99
129:0   Note on                 3, note 53, velocity 110
129:0   Note off                1, note 53, velocity 110
129:0   Note off                2, note 53, velocity 99
129:0   Note off                3, note 53, velocity 110
129:0   Note on                 1, note 55, velocity 110
129:0   Note on                 2, note 55, velocity 99
129:0   Note on                 3, note 55, velocity 110
129:0   Note off                1, note 55, velocity 110
129:0   Note off                2, note 55, velocity 99
129:0   Note off                3, note 55, velocity 110
129:0   Note on                 0, note 67, velocity 88
129:0   Note off                1, note 37, velocity 110
129:0   Note off                2, note 37, velocity 106
129:0   Note off                3, note 37, velocity 110
129:0   Note off                0, note 67, velocity 121
129:0   Note on                 0, note 72, velocity 88
129:0   Note on                 1, note 37, velocity 110
129:0   Note on                 2, note 37, velocity 106
129:0   Note on                 3, note 37, velocity 110
129:0   Note off                0, note 72, velocity 121
129:0   Note on                 0, note 65, velocity 88
129:0   Note on                 1, note 47, velocity 110
129:0   Note on                 2, note 47, velocity 99
129:0   Note on                 3, note 47, velocity 110
129:0   Note off                0, note 65, velocity 121
129:0   Note off                1, note 47, velocity 110
129:0   Note off                2, note 47, velocity 99
129:0   Note off                3, note 47, velocity 110
129:0   Note on                 0, note 70, velocity 88
129:0   Note on                 1, note 52, velocity 110
129:0   Note off                1, note 37, velocity 110
129:0   Note off                2, note 37, velocity 106
129:0   Note off                3, note 37, velocity 110
129:0   Note on                 2, note 52, velocity 99
129:0   Note on                 3, note 52, velocity 110
129:0   Note off                0, note 70, velocity 121
129:0   Note off                1, note 52, velocity 110
129:0   Note off                2, note 52, velocity 99
129:0   Note off                3, note 52, velocity 110
129:0   Note on                 0, note 72, velocity 88
129:0   Note on                 1, note 41, velocity 110
129:0   Note on                 1, note 37, velocity 110
129:0   Note on                 2, note 37, velocity 106
129:0   Note on                 3, note 37, velocity 110
129:0   Note on                 2, note 41, velocity 99
129:0   Note on                 3, note 41, velocity 110
129:0   Note off                0, note 72, velocity 121
129:0   Note off                1, note 41, velocity 110
129:0   Note off                2, note 41, velocity 99
129:0   Note off                3, note 41, velocity 110
129:0   Note on                 0, note 77, velocity 88
129:0   Note on                 1, note 46, velocity 110
129:0   Note on                 2, note 46, velocity 99
129:0   Note on                 3, note 46, velocity 110
129:0   Note off                0, note 77, velocity 121
129:0   Note off                1, note 46, velocity 110
129:0   Note off                2, note 46, velocity 99
129:0   Note off                3, note 46, velocity 110
129:0   Note on                 0, note 79, velocity 88
129:0   Note on                 1, note 48, velocity 110
129:0   Note off                1, note 37, velocity 110
129:0   Note off                2, note 37, velocity 106
129:0   Note off                3, note 37, velocity 110
129:0   Note on                 2, note 48, velocity 99
129:0   Note on                 3, note 48, velocity 110
129:0   Note off                0, note 79, velocity 121
129:0   Note off                1, note 48, velocity 110
129:0   Note off                2, note 48, velocity 99
129:0   Note off                3, note 48, velocity 110
129:0   Note on                 1, note 53, velocity 110
129:0   Note on                 1, note 37, velocity 110
129:0   Note on                 2, note 37, velocity 106
129:0   Note on                 3, note 37, velocity 110
129:0   Note on                 2, note 53, velocity 99
129:0   Note on                 3, note 53, velocity 110
129:0   Note off                1, note 53, velocity 110
129:0   Note off                2, note 53, velocity 99
129:0   Note off                3, note 53, velocity 110
129:0   Note on                 1, note 55, velocity 110
129:0   Note on                 2, note 55, velocity 99
129:0   Note on                 3, note 55, velocity 110
129:0   Note off                1, note 55, velocity 110
129:0   Note off                2, note 55, velocity 99
129:0   Note off                3, note 55, velocity 110
129:0   Note on                 0, note 77, velocity 88
129:0   Note on                 1, note 55, velocity 110
129:0   Note off                1, note 37, velocity 110
129:0   Note off                2, note 37, velocity 106
129:0   Note off                3, note 37, velocity 110
129:0   Note on                 2, note 55, velocity 99
129:0   Note on                 3, note 55, velocity 110
129:0   Note off                0, note 77, velocity 121
129:0   Note off                1, note 55, velocity 110
129:0   Note off                2, note 55, velocity 99
129:0   Note off                3, note 55, velocity 110
129:0   Note on                 0, note 79, velocity 88
129:0   Note on                 1, note 55, velocity 110
129:0   Note on                 1, note 37, velocity 110
129:0   Note on                 2, note 37, velocity 106
129:0   Note on                 3, note 37, velocity 110
129:0   Note on                 2, note 55, velocity 99
129:0   Note on                 3, note 55, velocity 110
129:0   Note off                0, note 79, velocity 121
129:0   Note off                1, note 55, velocity 110
129:0   Note off                2, note 55, velocity 99
129:0   Note off                3, note 55, velocity 110
129:0   Note on                 0, note 72, velocity 88
129:0   Note on                 1, note 55, velocity 110
129:0   Note on                 2, note 55, velocity 99
129:0   Note on                 3, note 55, velocity 110
129:0   Note off                0, note 72, velocity 121
129:0   Note off                1, note 55, velocity 110
129:0   Note off                2, note 55, velocity 99
129:0   Note off                3, note 55, velocity 110
129:0   Note on                 0, note 77, velocity 88
129:0   Note on                 1, note 55, velocity 110
129:0   Note off                1, note 37, velocity 110
129:0   Note off                2, note 37, velocity 106
129:0   Note off                3, note 37, velocity 110
129:0   Note on                 2, note 55, velocity 99
129:0   Note on                 3, note 55, velocity 110
129:0   Note off                0, note 77, velocity 121
129:0   Note off                1, note 55, velocity 110
129:0   Note off                2, note 55, velocity 99
129:0   Note off                3, note 55, velocity 110
129:0   Note on                 0, note 79, velocity 88
129:0   Note on                 1, note 55, velocity 110
129:0   Note on                 1, note 37, velocity 110
129:0   Note on                 2, note 37, velocity 106
129:0   Note on                 3, note 37, velocity 110
129:0   Note on                 2, note 55, velocity 99
129:0   Note on                 3, note 55, velocity 110
129:0   Note off                0, note 79, velocity 121
129:0   Note off                1, note 55, velocity 110
129:0   Note off                2, note 55, velocity 99
129:0   Note off                3, note 55, velocity 110
129:0   Note on                 0, note 82, velocity 88
129:0   Note on                 1, note 55, velocity 87
129:0   Note on                 2, note 55, velocity 78
129:0   Note on                 3, note 55, velocity 110
129:0   Note off                0, note 82, velocity 121
129:0   Note off                1, note 37, velocity 110
129:0   Note off                2, note 37, velocity 106
129:0   Note off                3, note 37, velocity 110
129:0   Note off                1, note 55, velocity 87
129:0   Note off                2, note 55, velocity 78
129:0   Note off                3, note 55, velocity 110
129:0   Note on                 0, note 84, velocity 88
129:0   Note on                 1, note 55, velocity 110
129:0   Note on                 1, note 37, velocity 110
129:0   Note on                 2, note 37, velocity 106
129:0   Note on                 3, note 37, velocity 110
129:0   Note on                 2, note 55, velocity 99
129:0   Note on                 3, note 55, velocity 110
129:0   Note off                0, note 84, velocity 127
129:0   Note off                1, note 55, velocity 110
129:0   Note off                2, note 55, velocity 99
129:0   Note off                3, note 55, velocity 110
129:0   Note on                 0, note 84, velocity 88
129:0   Note off                0, note 84, velocity 127
129:0   Note off                1, note 37, velocity 110
129:0   Note off                2, note 37, velocity 106
129:0   Note off                3, note 37, velocity 110
129:0   Note on                 0, note 84, velocity 88
129:0   Note on                 1, note 37, velocity 110
129:0   Note on                 2, note 37, velocity 106
129:0   Note on                 3, note 37, velocity 110
129:0   Note off                0, note 84, velocity 127
129:0   Note on                 0, note 84, velocity 88
129:0   Note off                0, note 84, velocity 127
129:0   Note on                 1, note 55, velocity 110
129:0   Note off                1, note 37, velocity 110
129:0   Note off                2, note 37, velocity 106
129:0   Note off                3, note 37, velocity 110
129:0   Note on                 2, note 55, velocity 99
129:0   Note on                 3, note 55, velocity 110
129:0   Note off                1, note 55, velocity 110
129:0   Note off                2, note 55, velocity 99
129:0   Note off                3, note 55, velocity 110
129:0   Note on                 0, note 84, velocity 88
129:0   Note on                 1, note 55, velocity 110
129:0   Note on                 1, note 37, velocity 110
129:0   Note on                 2, note 37, velocity 106
129:0   Note on                 3, note 37, velocity 110
129:0   Note on                 2, note 55, velocity 99
129:0   Note on                 3, note 55, velocity 110
129:0   Note off                0, note 84, velocity 127
129:0   Note off                1, note 55, velocity 110
129:0   Note off                2, note 55, velocity 99
129:0   Note off                3, note 55, velocity 110
129:0   Note on                 0, note 84, velocity 88
129:0   Note on                 1, note 55, velocity 87
129:0   Note on                 2, note 55, velocity 78
129:0   Note on                 3, note 55, velocity 110
129:0   Note off                0, note 84, velocity 127
129:0   Note on                 0, note 86, velocity 88
129:0   Note off                1, note 37, velocity 110
129:0   Note off                2, note 37, velocity 106
129:0   Note off                3, note 37, velocity 110
129:0   Note off                1, note 55, velocity 87
129:0   Note off                2, note 55, velocity 78
129:0   Note off                3, note 55, velocity 110
129:0   Note off                0, note 86, velocity 127
129:0   Note on                 1, note 55, velocity 110
129:0   Note on                 1, note 37, velocity 110
129:0   Note on                 2, note 37, velocity 106
129:0   Note on                 3, note 37, velocity 110
129:0   Note on                 2, note 55, velocity 99
129:0   Note on                 3, note 55, velocity 110
129:0   Note off                1, note 55, velocity 110
129:0   Note off                2, note 55, velocity 99
129:0   Note off                3, note 55, velocity 110
129:0   Note on                 1, note 55, velocity 87
129:0   Note on                 2, note 55, velocity 78
129:0   Note on                 3, note 55, velocity 110
129:0   Note on                 0, note 84, velocity 88
129:0   Note off                1, note 37, velocity 110
129:0   Note off                2, note 37, velocity 106
129:0   Note off                3, note 37, velocity 110
129:0   Note off                1, note 55, velocity 87
129:0   Note off                2, note 55, velocity 78
129:0   Note off                3, note 55, velocity 110
129:0   Note off                0, note 84, velocity 127
129:0   Note on                 1, note 55, velocity 110
129:0   Note on                 1, note 37, velocity 110
129:0   Note on                 2, note 37, velocity 106
129:0   Note on                 3, note 37, velocity 110
129:0   Note on                 2, note 55, velocity 99
129:0   Note on                 3, note 55, velocity 110
129:0   Note off                1, note 55, velocity 110
129:0   Note off                2, note 55, velocity 99
129:0   Note off                3, note 55, velocity 110
129:0   Note on                 0, note 84, velocity 88
129:0   Note off                1, note 37, velocity 110
129:0   Note off                2, note 37, velocity 106
129:0   Note off                3, note 37, velocity 110
129:0   Note off                0, note 84, velocity 127
129:0   Note on                 0, note 84, velocity 88
129:0   Note on                 1, note 43, velocity 87
129:0   Note on                 1, note 37, velocity 110
129:0   Note on                 2, note 37, velocity 106
129:0   Note on                 3, note 37, velocity 110
129:0   Note on                 2, note 43, velocity 78
129:0   Note on                 3, note 43, velocity 110
129:0   Note off                0, note 84, velocity 127
129:0   Note off                1, note 43, velocity 87
129:0   Note off                2, note 43, velocity 78
129:0   Note off                3, note 43, velocity 110
129:0   Note on                 1, note 48, velocity 87
129:0   Note on                 2, note 48, velocity 78
129:0   Note on                 3, note 48, velocity 110
129:0   Note off                1, note 48, velocity 87
129:0   Note off                2, note 48, velocity 78
129:0   Note off                3, note 48, velocity 110
129:0   Note on                 1, note 45, velocity 87
129:0   Note off                1, note 37, velocity 110
129:0   Note off                2, note 37, velocity 106
129:0   Note off                3, note 37, velocity 110
129:0   Note on                 2, note 45, velocity 78
129:0   Note on                 3, note 45, velocity 110
129:0   Note off                1, note 45, velocity 87
129:0   Note off                2, note 45, velocity 78
129:0   Note off                3, note 45, velocity 110
129:0   Note on                 1, note 50, velocity 87
129:0   Note on                 1, note 37, velocity 110
129:0   Note on                 2, note 37, velocity 106
129:0   Note on                 3, note 37, velocity 110
129:0   Note on                 2, note 50, velocity 78
129:0   Note on                 3, note 50, velocity 110
129:0   Note off                1, note 50, velocity 87
129:0   Note off                2, note 50, velocity 78
129:0   Note off                3, note 50, velocity 110
129:0   Note on                 0, note 67, velocity 88
129:0   Note on                 1, note 55, velocity 110
129:0   Note on                 2, note 55, velocity 99
129:0   Note on                 3, note 55, velocity 110
129:0   Note off                0, note 67, velocity 127
129:0   Note off                1, note 55, velocity 110
129:0   Note off                2, note 55, velocity 99
129:0   Note off                3, note 55, velocity 110
129:0   Note on                 0, note 72, velocity 88
129:0   Note on                 1, note 60, velocity 110
129:0   Note off                1, note 37, velocity 110
129:0   Note off                2, note 37, velocity 106
129:0   Note off                3, note 37, velocity 110
129:0   Note on                 2, note 60, velocity 99
129:0   Note on                 3, note 60, velocity 110
129:0   Note off                0, note 72, velocity 127
129:0   Note off                1, note 60, velocity 110
129:0   Note off                2, note 60, velocity 99
129:0   Note off                3, note 60, velocity 110
129:0   Note on                 0, note 64, velocity 88
129:0   Note on                 1, note 52, velocity 87
129:0   Note on                 1, note 37, velocity 110
129:0   Note on                 2, note 37, velocity 106
129:0   Note on                 3, note 37, velocity 110
129:0   Note on                 2, note 52, velocity 78
129:0   Note on                 3, note 52, velocity 110
129:0   Note off                1, note 52, velocity 87
129:0   Note off                2, note 52, velocity 78
129:0   Note off                3, note 52, velocity 110
129:0   Note on                 0, note 70, velocity 88
129:0   Note on                 1, note 62, velocity 87
129:0   Note on                 2, note 62, velocity 78
129:0   Note on                 3, note 62, velocity 110
129:0   Note off                0, note 70, velocity 127
129:0   Note off                1, note 62, velocity 87
129:0   Note off                2, note 62, velocity 78
129:0   Note off                3, note 62, velocity 110
129:0   Note off                0, note 64, velocity 127
129:0   Note on                 0, note 69, velocity 88
129:0   Note on                 1, note 62, velocity 87
129:0   Note off                1, note 37, velocity 110
129:0   Note off                2, note 37, velocity 106
129:0   Note off                3, note 37, velocity 110
129:0   Note on                 2, note 62, velocity 78
129:0   Note on                 3, note 62, velocity 110
129:0   Note off                0, note 69, velocity 127
129:0   Note off                1, note 62, velocity 87
129:0   Note off                2, note 62, velocity 78
129:0   Note off                3, note 62, velocity 110
129:0   Note on                 0, note 74, velocity 88
129:0   Note on                 1, note 60, velocity 87
129:0   Note on                 1, note 37, velocity 110
129:0   Note on                 2, note 37, velocity 106
129:0   Note on                 3, note 37, velocity 110
129:0   Note on                 2, note 60, velocity 78
129:0   Note on                 3, note 60, velocity 110
129:0   Note off                0, note 74, velocity 127
129:0   Note off                1, note 60, velocity 87
129:0   Note off                2, note 60, velocity 78
129:0   Note off                3, note 60, velocity 110
129:0   Note on                 0, note 79, velocity 88
129:0   Note on                 1, note 62, velocity 87
129:0   Note on                 2, note 62, velocity 78
129:0   Note on                 3, note 62, velocity 110
129:0   Note off                0, note 79, velocity 127
129:0   Note off                1, note 62, velocity 87
129:0   Note off                2, note 62, velocity 78
129:0   Note off                3, note 62, velocity 110
129:0   Note on                 0, note 84, velocity 88
129:0   Note on                 1, note 62, velocity 87
129:0   Note off                1, note 37, velocity 110
129:0   Note off                2, note 37, velocity 106
129:0   Note off                3, note 37, velocity 110
129:0   Note on                 2, note 62, velocity 78
129:0   Note on                 3, note 62, velocity 110
129:0   Note off                0, note 84, velocity 127
129:0   Note off                1, note 62, velocity 87
129:0   Note off                2, note 62, velocity 78
129:0   Note off                3, note 62, velocity 110
129:0   Note on                 0, note 74, velocity 88
129:0   Note on                 1, note 60, velocity 87
129:0   Note on                 1, note 37, velocity 110
129:0   Note on                 2, note 37, velocity 106
129:0   Note on                 3, note 37, velocity 110
129:0   Note on                 2, note 60, velocity 78
129:0   Note on                 3, note 60, velocity 110
129:0   Note off                0, note 74, velocity 127
129:0   Note off                1, note 60, velocity 87
129:0   Note off                2, note 60, velocity 78
129:0   Note off                3, note 60, velocity 110
129:0   Note on                 0, note 81, velocity 88
129:0   Note on                 1, note 62, velocity 87
129:0   Note on                 2, note 62, velocity 78
129:0   Note on                 3, note 62, velocity 110
129:0   Note off                0, note 81, velocity 127
129:0   Note off                1, note 62, velocity 87
129:0   Note off                2, note 62, velocity 78
129:0   Note off                3, note 62, velocity 110
129:0   Note on                 0, note 80, velocity 88
129:0   Note on                 1, note 62, velocity 87
129:0   Note off                1, note 37, velocity 110
129:0   Note off                2, note 37, velocity 106
129:0   Note off                3, note 37, velocity 110
129:0   Note on                 2, note 62, velocity 78
129:0   Note on                 3, note 62, velocity 110
129:0   Note off                0, note 80, velocity 127
129:0   Note off                1, note 62, velocity 87
129:0   Note off                2, note 62, velocity 78
129:0   Note off                3, note 62, velocity 110
129:0   Note on                 0, note 76, velocity 88
129:0   Note on                 1, note 60, velocity 87
129:0   Note on                 1, note 37, velocity 110
129:0   Note on                 2, note 37, velocity 106
129:0   Note on                 3, note 37, velocity 110
129:0   Note on                 2, note 60, velocity 78
129:0   Note on                 3, note 60, velocity 110
129:0   Note off                0, note 76, velocity 127
129:0   Note off                1, note 60, velocity 87
129:0   Note off                2, note 60, velocity 78
129:0   Note off                3, note 60, velocity 110
129:0   Note on                 0, note 81, velocity 88
129:0   Note on                 1, note 62, velocity 87
129:0   Note on                 2, note 62, velocity 78
129:0   Note on                 3, note 62, velocity 110
129:0   Note off                0, note 81, velocity 127
129:0   Note off                1, note 62, velocity 87
129:0   Note off                2, note 62, velocity 78
129:0   Note off                3, note 62, velocity 110
129:0   Note on                 0, note 83, velocity 88
129:0   Note on                 1, note 62, velocity 87
129:0   Note off                1, note 37, velocity 110
129:0   Note off                2, note 37, velocity 106
129:0   Note off                3, note 37, velocity 110
129:0   Note on                 2, note 62, velocity 78
129:0   Note on                 3, note 62, velocity 110
129:0   Note off                0, note 83, velocity 127
129:0   Note off                1, note 62, velocity 87
129:0   Note off                2, note 62, velocity 78
129:0   Note off                3, note 62, velocity 110
129:0   Note on                 0, note 84, velocity 88
129:0   Note on                 1, note 37, velocity 110
129:0   Note on                 2, note 37, velocity 106
129:0   Note on                 3, note 37, velocity 110
129:0   Note off                0, note 84, velocity 127
129:0   Note on                 0, note 84, velocity 88
129:0   Note on                 1, note 50, velocity 87
129:0   Note off                1, note 37, velocity 110
129:0   Note off                2, note 37, velocity 106
129:0   Note off                3, note 37, velocity 110
129:0   Note on                 2, note 50, velocity 78
129:0   Note on                 3, note 50, velocity 110
129:0   Note off                0, note 84, velocity 127
129:0   Note off                1, note 50, velocity 87
129:0   Note off                2, note 50, velocity 78
129:0   Note off                3, note 50, velocity 110
129:0   Note on                 0, note 86, velocity 88
129:0   Note on                 1, note 55, velocity 87
129:0   Note on                 1, note 37, velocity 110
129:0   Note on                 2, note 37, velocity 106
129:0   Note on                 3, note 37, velocity 110
129:0   Note on                 2, note 55, velocity 78
129:0   Note on                 3, note 55, velocity 110
129:0   Note off                1, note 55, velocity 87
129:0   Note off                2, note 55, velocity 78
129:0   Note off                3, note 55, velocity 110
129:0   Note off                0, note 86, velocity 127
129:0   Note on                 1, note 60, velocity 87
129:0   Note on                 2, note 60, velocity 78
129:0   Note on                 3, note 60, velocity 110
129:0   Note off                1, note 60, velocity 87
129:0   Note off                2, note 60, velocity 78
129:0   Note off                3, note 60, velocity 110
129:0   Note on                 0, note 86, velocity 88
129:0   Note on                 1, note 58, velocity 87
129:0   Note off                1, note 37, velocity 110
129:0   Note off                2, note 37, velocity 106
129:0   Note off                3, note 37, velocity 110
129:0   Note on                 2, note 58, velocity 78
129:0   Note on                 3, note 58, velocity 110
129:0   Note off                1, note 58, velocity 87
129:0   Note off                2, note 58, velocity 78
129:0   Note off                3, note 58, velocity 110
129:0   Note off                0, note 86, velocity 127
129:0   Note on                 1, note 62, velocity 87
129:0   Note on                 1, note 37, velocity 110
129:0   Note on                 2, note 37, velocity 106
129:0   Note on                 3, note 37, velocity 110
129:0   Note on                 2, note 62, velocity 78
129:0   Note on                 3, note 62, velocity 110
129:0   Note off                1, note 62, velocity 87
129:0   Note off                2, note 62, velocity 78
129:0   Note off                3, note 62, velocity 110
129:0   Note on                 0, note 86, velocity 88
129:0   Note on                 1, note 60, velocity 87
129:0   Note on                 2, note 60, velocity 78
129:0   Note on                 3, note 60, velocity 110
129:0   Note off                1, note 60, velocity 87
129:0   Note off                2, note 60, velocity 78
129:0   Note off                3, note 60, velocity 110
129:0   Note off                0, note 86, velocity 127
129:0   Note on                 1, note 52, velocity 87
129:0   Note off                1, note 37, velocity 110
129:0   Note off                2, note 37, velocity 106
129:0   Note off                3, note 37, velocity 110
129:0   Note on                 2, note 52, velocity 78
129:0   Note on                 3, note 52, velocity 110
129:0   Note off                1, note 52, velocity 87
129:0   Note off                2, note 52, velocity 78
129:0   Note off                3, note 52, velocity 110
129:0   Note on                 0, note 86, velocity 88
129:0   Note on                 1, note 37, velocity 110
129:0   Note on                 2, note 37, velocity 106
129:0   Note on                 3, note 37, velocity 110
129:0   Note off                0, note 86, velocity 127
129:0   Note on                 0, note 86, velocity 88
129:0   Note on                 1, note 60, velocity 87
129:0   Note off                1, note 37, velocity 110
129:0   Note off                2, note 37, velocity 106
129:0   Note off                3, note 37, velocity 110
129:0   Note on                 2, note 60, velocity 78
129:0   Note on                 3, note 60, velocity 110
129:0   Note off                1, note 60, velocity 87
129:0   Note off                2, note 60, velocity 78
129:0   Note off                3, note 60, velocity 110
129:0   Note off                0, note 86, velocity 127
129:0   Note on                 1, note 52, velocity 87
129:0   Note on                 1, note 37, velocity 110
129:0   Note on                 2, note 37, velocity 106
129:0   Note on                 3, note 37, velocity 110
129:0   Note on                 2, note 52, velocity 78
129:0   Note on                 3, note 52, velocity 110
129:0   Note off                1, note 52, velocity 87
129:0   Note off                2, note 52, velocity 78
129:0   Note off                3, note 52, velocity 110
129:0   Note on                 0, note 86, velocity 88
129:0   Note on                 1, note 60, velocity 87
129:0   Note on                 2, note 60, velocity 78
129:0   Note on                 3, note 60, velocity 110
129:0   Note off                1, note 60, velocity 87
129:0   Note off                2, note 60, velocity 78
129:0   Note off                3, note 60, velocity 110
129:0   Note off                0, note 86, velocity 127
129:0   Note on                 1, note 58, velocity 87
129:0   Note off                1, note 37, velocity 110
129:0   Note off                2, note 37, velocity 106
129:0   Note off                3, note 37, velocity 110
129:0   Note on                 2, note 58, velocity 78
129:0   Note on                 3, note 58, velocity 110
129:0   Note off                1, note 58, velocity 87
129:0   Note off                2, note 58, velocity 78
129:0   Note off                3, note 58, velocity 110
129:0   Note on                 1, note 62, velocity 87
129:0   Note on                 1, note 37, velocity 110
129:0   Note on                 2, note 37, velocity 106
129:0   Note on                 3, note 37, velocity 110
129:0   Note on                 2, note 62, velocity 78
129:0   Note on                 3, note 62, velocity 110
129:0   Note off                1, note 62, velocity 87
129:0   Note off                2, note 62, velocity 78
129:0   Note off                3, note 62, velocity 110
129:0   Note on                 0, note 86, velocity 88
129:0   Note on                 1, note 62, velocity 87
129:0   Note on                 2, note 62, velocity 78
129:0   Note on                 3, note 62, velocity 110
129:0   Note off                0, note 86, velocity 127
129:0   Note off                1, note 62, velocity 87
129:0   Note off                2, note 62, velocity 78
129:0   Note off                3, note 62, velocity 110
129:0   Note on                 0, note 86, velocity 88
129:0   Note on                 1, note 64, velocity 87
129:0   Note off                1, note 37, velocity 110
129:0   Note off                2, note 37, velocity 106
129:0   Note off                3, note 37, velocity 110
129:0   Note on                 2, note 64, velocity 78
129:0   Note on                 3, note 64, velocity 110
129:0   Note off                0, note 86, velocity 127
129:0   Note off                1, note 64, velocity 87
129:0   Note off                2, note 64, velocity 78
129:0   Note off                3, note 64, velocity 110
129:0   Note on                 0, note 86, velocity 88
129:0   Note on                 1, note 37, velocity 110
129:0   Note on                 2, note 37, velocity 106
129:0   Note on                 3, note 37, velocity 110
129:0   Note off                0, note 86, velocity 127
129:0   Note on                 0, note 86, velocity 88
129:0   Note on                 1, note 62, velocity 87
129:0   Note off                1, note 37, velocity 110
129:0   Note off                2, note 37, velocity 106
129:0   Note off                3, note 37, velocity 110
129:0   Note on                 2, note 62, velocity 78
129:0   Note on                 3, note 62, velocity 110
129:0   Note off                1, note 62, velocity 87
129:0   Note off                2, note 62, velocity 78
129:0   Note off                3, note 62, velocity 110
129:0   Note off                0, note 86, velocity 127
129:0   Note on                 1, note 37, velocity 110
129:0   Note on                 2, note 37, velocity 106
129:0   Note on                 3, note 37, velocity 110
129:0   Note on                 0, note 86, velocity 88
129:0   Note on                 1, note 62, velocity 87
129:0   Note on                 2, note 62, velocity 78
129:0   Note on                 3, note 62, velocity 110
129:0   Note off                0, note 86, velocity 127
129:0   Note off                1, note 62, velocity 87
129:0   Note off                1, note 37, velocity 110
129:0   Note off                2, note 37, velocity 106
129:0   Note off                3, note 37, velocity 110
129:0   Note off                2, note 62, velocity 78
129:0   Note off                3, note 62, velocity 110
129:0   Note on                 1, note 64, velocity 87
129:0   Note on                 1, note 37, velocity 110
129:0   Note on                 2, note 37, velocity 106
129:0   Note on                 3, note 37, velocity 110
129:0   Note on                 2, note 64, velocity 78
129:0   Note on                 3, note 64, velocity 110
129:0   Note off                1, note 64, velocity 87
129:0   Note off                2, note 64, velocity 78
129:0   Note off                3, note 64, velocity 110
129:0   Note on                 0, note 86, velocity 88
129:0   Note on                 1, note 62, velocity 87
129:0   Note on                 2, note 62, velocity 78
129:0   Note on                 3, note 62, velocity 110
129:0   Note off                0, note 86, velocity 127
129:0   Note off                1, note 62, velocity 87
129:0   Note off                2, note 62, velocity 78
129:0   Note off                3, note 62, velocity 110
129:0   Note on                 0, note 86, velocity 88
129:0   Note on                 1, note 55, velocity 87
129:0   Note off                1, note 37, velocity 110
129:0   Note off                2, note 37, velocity 106
129:0   Note off                3, note 37, velocity 110
129:0   Note on                 2, note 55, velocity 78
129:0   Note on                 3, note 55, velocity 110
129:0   Note off                0, note 86, velocity 127
129:0   Note off                1, note 55, velocity 87
129:0   Note off                2, note 55, velocity 78
129:0   Note off                3, note 55, velocity 110
129:0   Note on                 0, note 86, velocity 88
129:0   Note on                 1, note 55, velocity 87
129:0   Note on                 1, note 37, velocity 110
129:0   Note on                 2, note 37, velocity 106
129:0   Note on                 3, note 37, velocity 110
129:0   Note on                 2, note 55, velocity 78
129:0   Note on                 3, note 55, velocity 110
129:0   Note off                1, note 55, velocity 87
129:0   Note off                2, note 55, velocity 78
129:0   Note off                3, note 55, velocity 110
129:0   Note off                0, note 86, velocity 127
129:0   Note on                 1, note 57, velocity 87
129:0   Note on                 2, note 57, velocity 78
129:0   Note on                 3, note 57, velocity 110
129:0   Note off                1, note 57, velocity 87
129:0   Note off                2, note 57, velocity 78
129:0   Note off                3, note 57, velocity 110
129:0   Note on                 0, note 86, velocity 88
129:0   Note on                 1, note 59, velocity 87
129:0   Note off                1, note 37, velocity 110
129:0   Note off                2, note 37, velocity 106
129:0   Note off                3, note 37, velocity 110
129:0   Note on                 2, note 59, velocity 78
129:0   Note on                 3, note 59, velocity 110
129:0   Note off                1, note 59, velocity 87
129:0   Note off                2, note 59, velocity 78
129:0   Note off                3, note 59, velocity 110
129:0   Note off                0, note 86, velocity 127
129:0   Note on                 1, note 60, velocity 87
129:0   Note on                 1, note 37, velocity 110
129:0   Note on                 2, note 37, velocity 106
129:0   Note on                 3, note 37, velocity 110
129:0   Note on                 2, note 60, velocity 78
129:0   Note on                 3, note 60, velocity 110
129:0   Note off                1, note 60, velocity 87
129:0   Note off                2, note 60, velocity 78
129:0   Note off                3, note 60, velocity 110
129:0   Note on                 1, note 62, velocity 87
129:0   Note on                 2, note 62, velocity 78
129:0   Note on                 3, note 62, velocity 110
129:0   Note off                1, note 62, velocity 87
129:0   Note off                2, note 62, velocity 78
129:0   Note off                3, note 62, velocity 110
129:0   Note on                 1, note 62, velocity 87
129:0   Note off                1, note 37, velocity 110
129:0   Note off                2, note 37, velocity 106
129:0   Note off                3, note 37, velocity 110
129:0   Note on                 2, note 62, velocity 78
129:0   Note on                 3, note 62, velocity 110
129:0   Note off                1, note 62, velocity 87
129:0   Note off                2, note 62, velocity 78
129:0   Note off                3, note 62, velocity 110
129:0   Note on                 0, note 86, velocity 88
129:0   Note on                 1, note 37, velocity 110
129:0   Note on                 2, note 37, velocity 106
129:0   Note on                 3, note 37, velocity 110
129:0   Note off                0, note 86, velocity 127
129:0   Note on                 0, note 86, velocity 88
129:0   Note on                 1, note 57, velocity 87
129:0   Note on                 2, note 57, velocity 78
129:0   Note on                 3, note 57, velocity 110
129:0   Note off                0, note 86, velocity 127
129:0   Note off                1, note 57, velocity 87
129:0   Note off                2, note 57, velocity 78
129:0   Note off                3, note 57, velocity 110
129:0   Note on                 0, note 86, velocity 88
129:0   Note off                1, note 37, velocity 110
129:0   Note off                2, note 37, velocity 106
129:0   Note off                3, note 37, velocity 110
129:0   Note off                0, note 86, velocity 127
129:0   Note on                 0, note 86, velocity 88
129:0   Note on                 1, note 52, velocity 87
129:0   Note on                 1, note 37, velocity 110
129:0   Note on                 2, note 37, velocity 106
129:0   Note on                 3, note 37, velocity 110
129:0   Note on                 2, note 52, velocity 78
129:0   Note on                 3, note 52, velocity 110
129:0   Note off                0, note 86, velocity 127
129:0   Note off                1, note 52, velocity 87
129:0   Note off                2, note 52, velocity 78
129:0   Note off                3, note 52, velocity 110
129:0   Note on                 0, note 88, velocity 88
129:0   Note on                 1, note 50, velocity 87
129:0   Note on                 2, note 50, velocity 78
129:0   Note on                 3, note 50, velocity 110
129:0   Note off                0, note 88, velocity 127
129:0   Note off                1, note 50, velocity 87
129:0   Note off                2, note 50, velocity 78
129:0   Note off                3, note 50, velocity 110
129:0   Note on                 0, note 90, velocity 88
129:0   Note on                 1, note 57, velocity 87
129:0   Note off                1, note 37, velocity 110
129:0   Note off                2, note 37, velocity 106
129:0   Note off                3, note 37, velocity 110
129:0   Note on                 2, note 57, velocity 78
129:0   Note on                 3, note 57, velocity 110
129:0   Note off                0, note 90, velocity 127
129:0   Note off                1, note 57, velocity 87
129:0   Note off                2, note 57, velocity 78
129:0   Note off                3, note 57, velocity 110
129:0   Note on                 1, note 55, velocity 87
129:0   Note on                 1, note 37, velocity 110
129:0   Note on                 2, note 37, velocity 106
129:0   Note on                 3, note 37, velocity 110
129:0   Note on                 2, note 55, velocity 78
129:0   Note on                 3, note 55, velocity 110
129:0   Note off                1, note 55, velocity 87
129:0   Note off                2, note 55, velocity 78
129:0   Note off                3, note 55, velocity 110
129:0   Note on                 1, note 64, velocity 87
129:0   Note on                 2, note 64, velocity 78
129:0   Note on                 3, note 64, velocity 110
129:0   Note off                1, note 64, velocity 87
129:0   Note off                2, note 64, velocity 78
129:0   Note off                3, note 64, velocity 110
129:0   Note on                 0, note 86, velocity 88
129:0   Note off                1, note 37, velocity 110
129:0   Note off                2, note 37, velocity 106
129:0   Note off                3, note 37, velocity 110
129:0   Note off                0, note 86, velocity 127
129:0   Note on                 0, note 86, velocity 88
129:0   Note on                 1, note 52, velocity 87
129:0   Note on                 1, note 37, velocity 110
129:0   Note on                 2, note 37, velocity 106
129:0   Note on                 3, note 37, velocity 110
129:0   Note on                 2, note 52, velocity 78
129:0   Note on                 3, note 52, velocity 110
129:0   Note off                1, note 52, velocity 87
129:0   Note off                2, note 52, velocity 78
129:0   Note off                3, note 52, velocity 110
129:0   Note off                0, note 86, velocity 127
129:0   Note on                 1, note 50, velocity 87
129:0   Note on                 2, note 50, velocity 78
129:0   Note on                 3, note 50, velocity 110
129:0   Note off                1, note 50, velocity 87
129:0   Note off                2, note 50, velocity 78
129:0   Note off                3, note 50, velocity 110
129:0   Note on                 0, note 86, velocity 88
129:0   Note on                 1, note 57, velocity 87
129:0   Note off                1, note 37, velocity 110
129:0   Note off                2, note 37, velocity 106
129:0   Note off                3, note 37, velocity 110
129:0   Note on                 2, note 57, velocity 78
129:0   Note on                 3, note 57, velocity 110
129:0   Note off                1, note 57, velocity 87
129:0   Note off                2, note 57, velocity 78
129:0   Note off                3, note 57, velocity 110
129:0   Note off                0, note 86, velocity 127
129:0   Note on                 1, note 55, velocity 87
129:0   Note on                 1, note 37, velocity 110
129:0   Note on                 2, note 37, velocity 106
129:0   Note on                 3, note 37, velocity 110
129:0   Note on                 2, note 55, velocity 78
129:0   Note on                 3, note 55, velocity 110
129:0   Note off                1, note 55, velocity 87
129:0   Note off                2, note 55, velocity 78
129:0   Note off                3, note 55, velocity 110
129:0   Note on                 0, note 86, velocity 88
129:0   Note on                 1, note 64, velocity 87
129:0   Note on                 2, note 64, velocity 78
129:0   Note on                 3, note 64, velocity 110
129:0   Note off                1, note 64, velocity 87
129:0   Note off                2, note 64, velocity 78
129:0   Note off                3, note 64, velocity 110
129:0   Note off                0, note 86, velocity 127
129:0   Note off                1, note 37, velocity 110
129:0   Note off                2, note 37, velocity 106
129:0   Note off                3, note 37, velocity 110
129:0   Note on                 1, note 52, velocity 87
129:0   Note on                 1, note 37, velocity 110
129:0   Note on                 2, note 37, velocity 106
129:0   Note on                 3, note 37, velocity 110
129:0   Note on                 2, note 52, velocity 78
129:0   Note on                 3, note 52, velocity 110
129:0   Note off                1, note 52, velocity 87
129:0   Note off                2, note 52, velocity 78
129:0   Note off                3, note 52, velocity 110
129:0   Note on                 0, note 86, velocity 88
129:0   Note on                 1, note 50, velocity 87
129:0   Note on                 2, note 50, velocity 78
129:0   Note on                 3, note 50, velocity 110
129:0   Note off                1, note 50, velocity 87
129:0   Note off                2, note 50, velocity 78
129:0   Note off                3, note 50, velocity 110
129:0   Note off                0, note 86, velocity 127
129:0   Note on                 1, note 57, velocity 87
129:0   Note off                1, note 37, velocity 110
129:0   Note off                2, note 37, velocity 106
129:0   Note off                3, note 37, velocity 110
129:0   Note on                 2, note 57, velocity 78
129:0   Note on                 3, note 57, velocity 110
129:0   Note off                1, note 57, velocity 87
129:0   Note off                2, note 57, velocity 78
129:0   Note off                3, note 57, velocity 110
129:0   Note on                 1, note 55, velocity 87
129:0   Note on                 1, note 37, velocity 110
129:0   Note on                 2, note 37, velocity 106
129:0   Note on                 3, note 37, velocity 110
129:0   Note on                 2, note 55, velocity 78
129:0   Note on                 3, note 55, velocity 110
129:0   Note off                1, note 55, velocity 87
129:0   Note off                2, note 55, velocity 78
129:0   Note off                3, note 55, velocity 110
129:0   Note on                 1, note 64, velocity 87
129:0   Note on                 2, note 64, velocity 78
129:0   Note on                 3, note 64, velocity 110
129:0   Note off                1, note 64, velocity 87
129:0   Note off                2, note 64, velocity 78
129:0   Note off                3, note 64, velocity 110
129:0   Note on                 0, note 86, velocity 88
129:0   Note off                1, note 37, velocity 110
129:0   Note off                2, note 37, velocity 106
129:0   Note off                3, note 37, velocity 110
129:0   Note off                0, note 86, velocity 127
129:0   Note on                 0, note 88, velocity 88
129:0   Note on                 1, note 52, velocity 87
129:0   Note on                 1, note 37, velocity 110
129:0   Note on                 2, note 37, velocity 106
129:0   Note on                 3, note 37, velocity 110
129:0   Note on                 2, note 52, velocity 78
129:0   Note on                 3, note 52, velocity 110
129:0   Note off                0, note 88, velocity 127
129:0   Note on                 0, note 86, velocity 88
129:0   Note off                1, note 52, velocity 87
129:0   Note off                2, note 52, velocity 78
129:0   Note off                3, note 52, velocity 110
129:0   Note off                0, note 86, velocity 109
129:0   Note on                 1, note 50, velocity 87
129:0   Note off                1, note 37, velocity 110
129:0   Note off                2, note 37, velocity 106
129:0   Note off                3, note 37, velocity 110
129:0   Note on                 2, note 50, velocity 78
129:0   Note on                 3, note 50, velocity 110
129:0   Note on                 1, note 37, velocity 110
129:0   Note on                 2, note 37, velocity 106
129:0   Note on                 3, note 37, velocity 110
129:0   Note off                1, note 50, velocity 87
129:0   Note off                2, note 50, velocity 78
129:0   Note off                3, note 50, velocity 110
129:0   Note on                 1, note 57, velocity 87
129:0   Note on                 2, note 57, velocity 78
129:0   Note on                 3, note 57, velocity 110
129:0   Note on                 0, note 86, velocity 88
129:0   Note off                1, note 37, velocity 110
129:0   Note off                2, note 37, velocity 106
129:0   Note off                3, note 37, velocity 110
129:0   Note off                1, note 57, velocity 87
129:0   Note off                2, note 57, velocity 78
129:0   Note off                3, note 57, velocity 110
129:0   Note off                0, note 86, velocity 127
129:0   Note on                 1, note 58, velocity 87
129:0   Note on                 1, note 37, velocity 110
129:0   Note on                 2, note 37, velocity 106
129:0   Note on                 3, note 37, velocity 110
129:0   Note on                 2, note 58, velocity 78
129:0   Note on                 3, note 58, velocity 110
129:0   Note on                 0, note 86, velocity 88
129:0   Note off                1, note 58, velocity 87
129:0   Note off                2, note 58, velocity 78
129:0   Note off                3, note 58, velocity 110
129:0   Note off                0, note 86, velocity 127
129:0   Note on                 1, note 60, velocity 87
129:0   Note off                1, note 37, velocity 110
129:0   Note off                2, note 37, velocity 106
129:0   Note off                3, note 37, velocity 110
129:0   Note on                 2, note 60, velocity 78
129:0   Note on                 3, note 60, velocity 110
129:0   Note on                 1, note 37, velocity 110
129:0   Note on                 2, note 37, velocity 106
129:0   Note on                 3, note 37, velocity 110
129:0   Note off                1, note 60, velocity 87
129:0   Note off                2, note 60, velocity 78
129:0   Note off                3, note 60, velocity 110
129:0   Note on                 0, note 86, velocity 88
129:0   Note on                 1, note 56, velocity 87
129:0   Note on                 2, note 56, velocity 78
129:0   Note on                 3, note 56, velocity 110
129:0   Note off                0, note 86, velocity 127
129:0   Note on                 0, note 88, velocity 88
129:0   Note off                1, note 37, velocity 110
129:0   Note off                2, note 37, velocity 106
129:0   Note off                3, note 37, velocity 110
129:0   Note off                1, note 56, velocity 87
129:0   Note off                2, note 56, velocity 78
129:0   Note off                3, note 56, velocity 110
129:0   Note off                0, note 88, velocity 127
129:0   Note on                 0, note 88, velocity 88
129:0   Note on                 1, note 44, velocity 87
129:0   Note on                 1, note 37, velocity 110
129:0   Note on                 2, note 37, velocity 106
129:0   Note on                 3, note 37, velocity 110
129:0   Note on                 2, note 44, velocity 78
129:0   Note on                 3, note 44, velocity 110
129:0   Note off                0, note 88, velocity 127
129:0   Note on                 0, note 88, velocity 88
129:0   Note off                1, note 44, velocity 87
129:0   Note off                2, note 44, velocity 78
129:0   Note off                3, note 44, velocity 110
129:0   Note off                0, note 88, velocity 109
129:0   Note on                 1, note 51, velocity 87
129:0   Note off                1, note 37, velocity 110
129:0   Note off                2, note 37, velocity 106
129:0   Note off                3, note 37, velocity 110
129:0   Note on                 2, note 51, velocity 78
129:0   Note on                 3, note 51, velocity 110
129:0   Note on                 0, note 88, velocity 88
129:0   Note on                 1, note 37, velocity 110
129:0   Note on                 2, note 37, velocity 106
129:0   Note on                 3, note 37, velocity 110
129:0   Note off                0, note 88, velocity 109
129:0   Note off                1, note 51, velocity 87
129:0   Note off                2, note 51, velocity 78
129:0   Note off                3, note 51, velocity 110
129:0   Note off                1, note 37, velocity 110
129:0   Note off                2, note 37, velocity 106
129:0   Note off                3, note 37, velocity 110
129:0   Note on                 1, note 37, velocity 110
129:0   Note on                 2, note 37, velocity 106
129:0   Note on                 3, note 37, velocity 110
129:0   Note off                1, note 37, velocity 110
129:0   Note off                2, note 37, velocity 106
129:0   Note off                3, note 37, velocity 110
129:0   Note on                 1, note 64, velocity 87
129:0   Note on                 1, note 37, velocity 110
129:0   Note on                 2, note 37, velocity 106
129:0   Note on                 3, note 37, velocity 110
129:0   Note on                 2, note 64, velocity 78
129:0   Note on                 3, note 64, velocity 110
129:0   Note off                1, note 37, velocity 110
129:0   Note off                2, note 37, velocity 106
129:0   Note off                3, note 37, velocity 110
129:0   Note on                 1, note 66, velocity 87
129:0   Note on                 2, note 66, velocity 78
129:0   Note on                 3, note 66, velocity 110
129:0   Note off                1, note 64, velocity 87
129:0   Note off                2, note 64, velocity 78
129:0   Note off                3, note 64, velocity 110
129:0   Note on                 1, note 37, velocity 110
129:0   Note on                 2, note 37, velocity 106
129:0   Note on                 3, note 37, velocity 110
129:0   Note on                 1, note 62, velocity 87
129:0   Note off                1, note 37, velocity 110
129:0   Note off                2, note 37, velocity 106
129:0   Note off                3, note 37, velocity 110
129:0   Note on                 2, note 62, velocity 78
129:0   Note on                 3, note 62, velocity 110
129:0   Note off                1, note 66, velocity 87
129:0   Note off                2, note 66, velocity 78
129:0   Note off                3, note 66, velocity 110
129:0   Note on                 1, note 37, velocity 110
129:0   Note on                 2, note 37, velocity 106
129:0   Note on                 3, note 37, velocity 110
129:0   Note off                1, note 62, velocity 87
129:0   Note on                 1, note 50, velocity 87
129:0   Note off                2, note 62, velocity 78
129:0   Note on                 2, note 50, velocity 78
129:0   Note off                3, note 62, velocity 110
129:0   Note on                 3, note 50, velocity 110
129:0   Note off                1, note 37, velocity 110
129:0   Note off                2, note 37, velocity 106
129:0   Note off                3, note 37, velocity 110
129:0   Note on                 1, note 57, velocity 87
129:0   Note on                 2, note 57, velocity 78
129:0   Note on                 3, note 57, velocity 110
129:0   Note off                1, note 57, velocity 87
129:0   Note off                2, note 57, velocity 78
129:0   Note off                3, note 57, velocity 110
129:0   Note off                1, note 50, velocity 87
129:0   Note on                 1, note 65, velocity 87
129:0   Note on                 1, note 37, velocity 110
129:0   Note on                 2, note 37, velocity 106
129:0   Note on                 3, note 37, velocity 110
129:0   Note off                2, note 50, velocity 78
129:0   Note on                 2, note 65, velocity 78
129:0   Note off                3, note 50, velocity 110
129:0   Note on                 3, note 65, velocity 110
129:0   Note off                1, note 65, velocity 87
129:0   Note off                2, note 65, velocity 78
129:0   Note off                3, note 65, velocity 110
129:0   Note on                 1, note 50, velocity 87
129:0   Note on                 2, note 50, velocity 78
129:0   Note on                 3, note 50, velocity 110
129:0   Note off                1, note 50, velocity 87
129:0   Note off                2, note 50, velocity 78
129:0   Note off                3, note 50, velocity 110
129:0   Note on                 1, note 55, velocity 87
129:0   Note on                 2, note 55, velocity 78
129:0   Note on                 3, note 55, velocity 110
129:0   Note off                1, note 55, velocity 87
129:0   Note off                1, note 37, velocity 110
129:0   Note off                2, note 37, velocity 106
129:0   Note off                3, note 37, velocity 110
129:0   Note off                2, note 55, velocity 78
129:0   Note off                3, note 55, velocity 110
129:0   Note on                 1, note 57, velocity 87
129:0   Note on                 2, note 57, velocity 78
129:0   Note on                 3, note 57, velocity 110
129:0   Note off                1, note 57, velocity 87
129:0   Note off                2, note 57, velocity 78
129:0   Note off                3, note 57, velocity 110
129:0   Note on                 1, note 60, velocity 87
129:0   Note on                 1, note 37, velocity 110
129:0   Note on                 2, note 37, velocity 106
129:0   Note on                 3, note 37, velocity 110
129:0   Note on                 2, note 60, velocity 78
129:0   Note on                 3, note 60, velocity 110
129:0   Note off                1, note 60, velocity 87
129:0   Note off                2, note 60, velocity 78
129:0   Note off                3, note 60, velocity 110
129:0   Note on                 1, note 62, velocity 87
129:0   Note on                 2, note 62, velocity 78
129:0   Note on                 3, note 62, velocity 110
129:0   Note off                1, note 62, velocity 87
129:0   Note off                2, note 62, velocity 78
129:0   Note off                3, note 62, velocity 110
129:0   Note on                 1, note 67, velocity 87
129:0   Note on                 2, note 67, velocity 78
129:0   Note on                 3, note 67, velocity 110
129:0   Note off                1, note 67, velocity 87
129:0   Note off                1, note 37, velocity 110
129:0   Note off                2, note 37, velocity 106
129:0   Note off                3, note 37, velocity 110
129:0   Note off                2, note 67, velocity 78
129:0   Note off                3, note 67, velocity 110
129:0   Note on                 1, note 63, velocity 87
129:0   Note on                 2, note 63, velocity 78
129:0   Note on                 3, note 63, velocity 110
129:0   Note off                1, note 63, velocity 87
129:0   Note off                2, note 63, velocity 78
129:0   Note off                3, note 63, velocity 110
129:0   Note on                 1, note 58, velocity 87
129:0   Note on                 1, note 37, velocity 110
129:0   Note on                 2, note 37, velocity 106
129:0   Note on                 3, note 37, velocity 110
129:0   Note on                 2, note 58, velocity 78
129:0   Note on                 3, note 58, velocity 110
129:0   Note off                1, note 58, velocity 87
129:0   Note off                2, note 58, velocity 78
129:0   Note off                3, note 58, velocity 110
129:0   Note on                 1, note 53, velocity 87
129:0   Note on                 2, note 53, velocity 78
129:0   Note on                 3, note 53, velocity 110
129:0   Note off                1, note 53, velocity 87
129:0   Note off                2, note 53, velocity 78
129:0   Note off                3, note 53, velocity 110
129:0   Note on                 1, note 51, velocity 87
129:0   Note on                 2, note 51, velocity 78
129:0   Note on                 3, note 51, velocity 110
129:0   Note off                1, note 51, velocity 87
129:0   Note off                1, note 37, velocity 110
129:0   Note off                2, note 37, velocity 106
129:0   Note off                3, note 37, velocity 110
129:0   Note off                2, note 51, velocity 78
129:0   Note off                3, note 51, velocity 110
129:0   Note on                 1, note 46, velocity 87
129:0   Note on                 2, note 46, velocity 78
129:0   Note on                 3, note 46, velocity 110
129:0   Note off                1, note 46, velocity 87
129:0   Note off                2, note 46, velocity 78
129:0   Note off                3, note 46, velocity 110
129:0   Note on                 1, note 37, velocity 87
129:0   Note on                 1, note 37, velocity 110
129:0   Note on                 2, note 37, velocity 106
129:0   Note on                 3, note 37, velocity 110
129:0   Note on                 2, note 37, velocity 78
129:0   Note on                 3, note 37, velocity 110
129:0   Note off                1, note 37, velocity 87
129:0   Note off                2, note 37, velocity 78
129:0   Note off                3, note 37, velocity 110
129:0   Note off                1, note 37, velocity 110
129:0   Note off                2, note 37, velocity 106
129:0   Note off                3, note 37, velocity 110
129:0   Note on                 0, note 89, velocity 88
129:0   Note on                 1, note 37, velocity 110
129:0   Note on                 2, note 37, velocity 106
129:0   Note on                 3, note 37, velocity 110
129:0   Note off                1, note 37, velocity 110
129:0   Note off                2, note 37, velocity 106
129:0   Note off                3, note 37, velocity 110
129:0   Note on                 0, note 91, velocity 88
129:0   Note off                0, note 89, velocity 109
129:0   Note on                 1, note 37, velocity 110
129:0   Note on                 2, note 37, velocity 106
129:0   Note on                 3, note 37, velocity 110
129:0   Note on                 0, note 87, velocity 88
129:0   Note off                1, note 37, velocity 110
129:0   Note off                2, note 37, velocity 106
129:0   Note off                3, note 37, velocity 110
129:0   Note off                0, note 91, velocity 109
129:0   Note on                 1, note 37, velocity 110
129:0   Note on                 2, note 37, velocity 106
129:0   Note on                 3, note 37, velocity 110
129:0   Note off                0, note 87, velocity 109
129:0   Note on                 0, note 75, velocity 88
129:0   Note off                1, note 37, velocity 110
129:0   Note off                2, note 37, velocity 106
129:0   Note off                3, note 37, velocity 110
129:0   Note off                0, note 75, velocity 109
129:0   Note on                 0, note 77, velocity 88
129:0   Note on                 1, note 37, velocity 110
129:0   Note on                 2, note 37, velocity 106
129:0   Note on                 3, note 37, velocity 110
129:0   Note off                0, note 77, velocity 106
129:0   Note on                 0, note 91, velocity 88
129:0   Note off                0, note 91, velocity 106
129:0   Note on                 0, note 82, velocity 88
129:0   Note off                1, note 37, velocity 110
129:0   Note off                2, note 37, velocity 106
129:0   Note off                3, note 37, velocity 110
129:0   Note off                0, note 82, velocity 106
129:0   Note on                 0, note 77, velocity 88
129:0   Note off                0, note 77, velocity 106
129:0   Note on                 0, note 84, velocity 88
129:0   Note on                 1, note 37, velocity 110
129:0   Note on                 2, note 37, velocity 106
129:0   Note on                 3, note 37, velocity 110
129:0   Note off                0, note 84, velocity 106
129:0   Note on                 0, note 74, velocity 88
129:0   Note off                0, note 74, velocity 106
129:0   Note on                 0, note 75, velocity 88
129:0   Note off                0, note 75, velocity 106
129:0   Note off                1, note 37, velocity 110
129:0   Note off                2, note 37, velocity 106
129:0   Note off                3, note 37, velocity 110
129:0   Note on                 0, note 80, velocity 88
129:0   Note off                0, note 80, velocity 106
129:0   Note on                 0, note 74, velocity 88
129:0   Note on                 1, note 37, velocity 110
129:0   Note on                 2, note 37, velocity 106
129:0   Note on                 3, note 37, velocity 110
129:0   Note off                0, note 74, velocity 106
129:0   Note on                 0, note 80, velocity 88
129:0   Note off                0, note 80, velocity 106
129:0   Note on                 0, note 86, velocity 88
129:0   Note off                1, note 37, velocity 110
129:0   Note off                2, note 37, velocity 106
129:0   Note off                3, note 37, velocity 110
129:0   Note off                0, note 86, velocity 106
129:0   Note on                 0, note 79, velocity 88
129:0   Note off                0, note 79, velocity 106
129:0   Note on                 0, note 84, velocity 88
129:0   Note on                 1, note 37, velocity 110
129:0   Note on                 2, note 37, velocity 106
129:0   Note on                 3, note 37, velocity 110
129:0   Note off                0, note 84, velocity 106
129:0   Note on                 0, note 79, velocity 88
129:0   Note off                0, note 79, velocity 106
129:0   Note on                 0, note 82, velocity 88
129:0   Note off                1, note 37, velocity 110
129:0   Note off                2, note 37, velocity 106
129:0   Note off                3, note 37, velocity 110
129:0   Note off                0, note 82, velocity 106
129:0   Note on                 0, note 87, velocity 88
129:0   Note off                0, note 87, velocity 106
129:0   Note on                 0, note 93, velocity 88
129:0   Note on                 1, note 37, velocity 110
129:0   Note on                 2, note 37, velocity 106
129:0   Note on                 3, note 37, velocity 110
129:0   Note off                0, note 93, velocity 106
129:0   Note off                1, note 37, velocity 110
129:0   Note off                2, note 37, velocity 106
129:0   Note off                3, note 37, velocity 110
129:0   Note on                 1, note 53, velocity 87
129:0   Note on                 1, note 37, velocity 110
129:0   Note on                 2, note 37, velocity 106
129:0   Note on                 3, note 37, velocity 110
129:0   Note on                 2, note 53, velocity 78
129:0   Note on                 3, note 53, velocity 110
129:0   Note off                1, note 53, velocity 87
129:0   Note off                1, note 37, velocity 110
129:0   Note off                2, note 37, velocity 106
129:0   Note off                3, note 37, velocity 110
129:0   Note off                2, note 53, velocity 78
129:0   Note off                3, note 53, velocity 110
129:0   Note on                 1, note 55, velocity 87
129:0   Note on                 2, note 55, velocity 78
129:0   Note on                 3, note 55, velocity 110
129:0   Note on                 1, note 37, velocity 110
129:0   Note on                 2, note 37, velocity 106
129:0   Note on                 3, note 37, velocity 110
129:0   Note off                1, note 55, velocity 87
129:0   Note off                2, note 55, velocity 78
129:0   Note off                3, note 55, velocity 110
129:0   Note on                 1, note 51, velocity 87
129:0   Note on                 2, note 51, velocity 78
129:0   Note on                 3, note 51, velocity 110
129:0   Note off                1, note 37, velocity 110
129:0   Note off                2, note 37, velocity 106
129:0   Note off                3, note 37, velocity 110
129:0   Note off                1, note 51, velocity 55
129:0   Note on                 1, note 51, velocity 87
129:0   Note on                 1, note 51, velocity 87
129:0   Note on                 1, note 37, velocity 110
129:0   Note on                 2, note 37, velocity 106
129:0   Note on                 3, note 37, velocity 110
129:0   Note off                2, note 51, velocity 49
129:0   Note on                 2, note 51, velocity 78
129:0   Note on                 2, note 51, velocity 78
129:0   Note off                3, note 51, velocity 83
129:0   Note on                 3, note 51, velocity 110
129:0   Note on                 3, note 51, velocity 110
129:0   Note off                1, note 51, velocity 55
129:0   Note off                1, note 51, velocity 87
129:0   Note off                2, note 51, velocity 49
129:0   Note off                2, note 51, velocity 49
129:0   Note off                3, note 51, velocity 83
129:0   Note off                3, note 51, velocity 83
129:0   Note on                 1, note 39, velocity 87
129:0   Note on                 2, note 39, velocity 78
129:0   Note on                 3, note 39, velocity 110
129:0   Note off                1, note 37, velocity 110
129:0   Note off                2, note 37, velocity 106
129:0   Note off                3, note 37, velocity 110
129:0   Note off                1, note 39, velocity 87
129:0   Note off                2, note 39, velocity 78
129:0   Note off                3, note 39, velocity 110
129:0   Note on                 1, note 43, velocity 87
129:0   Note on                 1, note 37, velocity 110
129:0   Note on                 2, note 37, velocity 106
129:0   Note on                 3, note 37, velocity 110
129:0   Note on                 2, note 43, velocity 78
129:0   Note on                 3, note 43, velocity 110
129:0   Note off                1, note 43, velocity 87
129:0   Note off                2, note 43, velocity 78
129:0   Note off                3, note 43, velocity 110
129:0   Note on                 1, note 51, velocity 87
129:0   Note on                 2, note 51, velocity 78
129:0   Note on                 3, note 51, velocity 110
129:0   Note off                1, note 51, velocity 87
129:0   Note off                2, note 51, velocity 78
129:0   Note off                3, note 51, velocity 110
129:0   Note on                 1, note 44, velocity 87
129:0   Note on                 2, note 44, velocity 78
129:0   Note on                 3, note 44, velocity 110
129:0   Note off                1, note 44, velocity 87
129:0   Note off                1, note 37, velocity 110
129:0   Note off                2, note 37, velocity 106
129:0   Note off                3, note 37, velocity 110
129:0   Note off                2, note 44, velocity 78
129:0   Note off                3, note 44, velocity 110
129:0   Note on                 1, note 43, velocity 87
129:0   Note on                 2, note 43, velocity 78
129:0   Note on                 3, note 43, velocity 110
129:0   Note off                1, note 43, velocity 87
129:0   Note off                2, note 43, velocity 78
129:0   Note off                3, note 43, velocity 110
129:0   Note on                 1, note 38, velocity 87
129:0   Note on                 1, note 37, velocity 110
129:0   Note on                 2, note 37, velocity 106
129:0   Note on                 3, note 37, velocity 110
129:0   Note on                 2, note 38, velocity 78
129:0   Note on                 3, note 38, velocity 110
129:0   Note off                1, note 38, velocity 87
129:0   Note off                2, note 38, velocity 78
129:0   Note off                3, note 38, velocity 110
129:0   Note on                 1, note 39, velocity 87
129:0   Note on                 2, note 39, velocity 78
129:0   Note on                 3, note 39, velocity 110
129:0   Note off                1, note 39, velocity 87
129:0   Note off                2, note 39, velocity 78
129:0   Note off                3, note 39, velocity 110
129:0   Note on                 1, note 34, velocity 87
129:0   Note on                 2, note 34, velocity 78
129:0   Note on                 3, note 34, velocity 110
129:0   Note off                1, note 34, velocity 87
129:0   Note off                1, note 37, velocity 110
129:0   Note off                2, note 37, velocity 106
129:0   Note off                3, note 37, velocity 110
129:0   Note off                2, note 34, velocity 78
129:0   Note off                3, note 34, velocity 110
129:0   Note on                 1, note 32, velocity 87
129:0   Note on                 2, note 32, velocity 78
129:0   Note on                 3, note 32, velocity 110
129:0   Note off                1, note 32, velocity 87
129:0   Note off                2, note 32, velocity 78
129:0   Note off                3, note 32, velocity 110
129:0   Note on                 1, note 37, velocity 87
129:0   Note on                 1, note 37, velocity 110
129:0   Note on                 2, note 37, velocity 106
129:0   Note on                 3, note 37, velocity 110
129:0   Note on                 2, note 37, velocity 78
129:0   Note on                 3, note 37, velocity 110
129:0   Note on                 2, note 49, velocity 78
129:0   Note on                 3, note 49, velocity 110
129:0   Note on                 1, note 50, velocity 87
129:0   Note off                2, note 49, velocity 78
129:0   Note off                3, note 49, velocity 110
129:0   Note off                1, note 50, velocity 87
129:0   Note on                 2, note 47, velocity 78
129:0   Note on                 3, note 47, velocity 110
129:0   Note on                 1, note 49, velocity 87
129:0   Note off                1, note 37, velocity 110
129:0   Note off                1, note 37, velocity 110
129:0   Note off                2, note 37, velocity 106
129:0   Note off                3, note 37, velocity 110
129:0   Note off                2, note 37, velocity 99
129:0   Note off                2, note 47, velocity 78
129:0   Note off                3, note 37, velocity 110
129:0   Note off                3, note 47, velocity 110
129:0   Note off                1, note 49, velocity 87
129:0   Note on                 2, note 37, velocity 78
129:0   Note on                 3, note 37, velocity 110
129:0   Note on                 1, note 37, velocity 87
129:0   Note off                2, note 37, velocity 78
129:0   Note off                3, note 37, velocity 110
129:0   Note off                1, note 37, velocity 87
129:0   Note on                 1, note 37, velocity 110
129:0   Note on                 2, note 37, velocity 106
129:0   Note on                 3, note 37, velocity 110
129:0   Note on                 1, note 39, velocity 87
129:0   Note on                 2, note 39, velocity 78
129:0   Note on                 3, note 39, velocity 110
129:0   Note off                1, note 39, velocity 87
129:0   Note off                2, note 39, velocity 78
129:0   Note off                3, note 39, velocity 110
129:0   Note on                 1, note 41, velocity 87
129:0   Note on                 2, note 41, velocity 78
129:0   Note on                 3, note 41, velocity 110
129:0   Note off                1, note 41, velocity 87
129:0   Note off                2, note 41, velocity 78
129:0   Note off                3, note 41, velocity 110
129:0   Note on                 1, note 43, velocity 87
129:0   Note on                 2, note 43, velocity 78
129:0   Note on                 3, note 43, velocity 110
129:0   Note off                1, note 37, velocity 110
129:0   Note off                2, note 37, velocity 106
129:0   Note off                3, note 37, velocity 110
129:0   Note off                1, note 43, velocity 87
129:0   Note off                2, note 43, velocity 78
129:0   Note off                3, note 43, velocity 110
129:0   Note on                 1, note 45, velocity 87
129:0   Note on                 2, note 45, velocity 78
129:0   Note on                 3, note 45, velocity 110
129:0   Note off                1, note 45, velocity 87
129:0   Note on                 1, note 37, velocity 110
129:0   Note on                 2, note 37, velocity 106
129:0   Note on                 3, note 37, velocity 110
129:0   Note off                2, note 45, velocity 78
129:0   Note off                3, note 45, velocity 110
129:0   Note on                 1, note 47, velocity 87
129:0   Note on                 2, note 47, velocity 78
129:0   Note on                 3, note 47, velocity 110
129:0   Note off                1, note 47, velocity 87
129:0   Note off                2, note 47, velocity 78
129:0   Note off                3, note 47, velocity 110
129:0   Note on                 0, note 60, velocity 88
129:0   Note on                 1, note 48, velocity 84
129:0   Note on                 2, note 48, velocity 75
129:0   Note on                 3, note 48, velocity 110
129:0   Note on                 5, note 60, velocity 25
129:0   Note off                0, note 60, velocity 106
129:0   Note off                1, note 48, velocity 87
129:0   Note off                2, note 48, velocity 78
129:0   Note off                3, note 48, velocity 110
129:0   Note off                5, note 60, velocity 100
129:0   Note on                 0, note 62, velocity 88
129:0   Note on                 1, note 50, velocity 80
129:0   Note on                 2, note 50, velocity 72
129:0   Note on                 3, note 50, velocity 110
129:0   Note on                 5, note 62, velocity 29
129:0   Note off                1, note 37, velocity 110
129:0   Note off                2, note 37, velocity 106
129:0   Note off                3, note 37, velocity 110
129:0   Note off                0, note 62, velocity 106
129:0   Note off                1, note 50, velocity 87
129:0   Note off                2, note 50, velocity 78
129:0   Note off                3, note 50, velocity 110
129:0   Note off                5, note 62, velocity 100
129:0   Note on                 0, note 64, velocity 88
129:0   Note on                 1, note 52, velocity 77
129:0   Note on                 2, note 52, velocity 69
129:0   Note on                 3, note 52, velocity 110
129:0   Note on                 5, note 64, velocity 34
129:0   Note off                0, note 64, velocity 106
129:0   Note off                1, note 52, velocity 87
129:0   Note on                 1, note 37, velocity 110
129:0   Note on                 2, note 37, velocity 106
129:0   Note on                 3, note 37, velocity 110
129:0   Note off                2, note 52, velocity 78
129:0   Note off                3, note 52, velocity 110
129:0   Note off                5, note 64, velocity 100
129:0   Note on                 0, note 65, velocity 88
129:0   Note on                 1, note 53, velocity 73
129:0   Note on                 2, note 53, velocity 66
129:0   Note on                 3, note 53, velocity 109
129:0   Note on                 5, note 65, velocity 39
129:0   Note off                0, note 65, velocity 106
129:0   Note off                1, note 53, velocity 87
129:0   Note off                2, note 53, velocity 78
129:0   Note off                3, note 53, velocity 110
129:0   Note off                5, note 65, velocity 100
129:0   Note on                 0, note 67, velocity 88
129:0   Note on                 1, note 55, velocity 70
129:0   Note on                 2, note 55, velocity 63
129:0   Note on                 3, note 55, velocity 104
129:0   Note on                 5, note 67, velocity 43
129:0   Note off                0, note 67, velocity 106
129:0   Note off                1, note 55, velocity 87
129:0   Note off                2, note 55, velocity 78
129:0   Note off                3, note 55, velocity 110
129:0   Note off                5, note 67, velocity 100
129:0   Note on                 0, note 69, velocity 88
129:0   Note on                 1, note 57, velocity 66
129:0   Note on                 2, note 57, velocity 60
129:0   Note on                 3, note 57, velocity 99
129:0   Note on                 5, note 69, velocity 48
129:0   Note off                1, note 37, velocity 110
129:0   Note off                2, note 37, velocity 106
129:0   Note off                3, note 37, velocity 110
129:0   Note off                0, note 69, velocity 106
129:0   Note off                1, note 57, velocity 87
129:0   Note off                2, note 57, velocity 78
129:0   Note off                3, note 57, velocity 110
129:0   Note off                5, note 69, velocity 100
129:0   Note on                 0, note 71, velocity 88
129:0   Note on                 1, note 59, velocity 63
129:0   Note on                 2, note 59, velocity 56
129:0   Note on                 3, note 59, velocity 93
129:0   Note on                 5, note 71, velocity 53
129:0   Note off                0, note 71, velocity 106
129:0   Note off                1, note 59, velocity 87
129:0   Note on                 1, note 37, velocity 110
129:0   Note on                 2, note 37, velocity 106
129:0   Note on                 3, note 37, velocity 110
129:0   Note off                2, note 59, velocity 78
129:0   Note off                3, note 59, velocity 110
129:0   Note off                5, note 71, velocity 100
129:0   Note on                 0, note 72, velocity 88
129:0   Note on                 1, note 60, velocity 60
129:0   Note on                 2, note 60, velocity 53
129:0   Note on                 3, note 60, velocity 88
129:0   Note on                 5, note 72, velocity 57
129:0   Note off                0, note 72, velocity 106
129:0   Note off                1, note 60, velocity 87
129:0   Note off                2, note 60, velocity 78
129:0   Note off                3, note 60, velocity 110
129:0   Note off                5, note 72, velocity 100
129:0   Note on                 0, note 74, velocity 88
129:0   Note on                 1, note 62, velocity 56
129:0   Note on                 2, note 62, velocity 50
129:0   Note on                 3, note 62, velocity 83
129:0   Note on                 5, note 74, velocity 62
129:0   Note off                0, note 74, velocity 106
129:0   Note off                1, note 62, velocity 87
129:0   Note off                2, note 62, velocity 78
129:0   Note off                3, note 62, velocity 110
129:0   Note off                5, note 74, velocity 100
129:0   Note on                 0, note 76, velocity 88
129:0   Note on                 1, note 64, velocity 53
129:0   Note on                 2, note 64, velocity 47
129:0   Note on                 3, note 64, velocity 78
129:0   Note on                 5, note 76, velocity 67
129:0   Note off                1, note 37, velocity 110
129:0   Note off                2, note 37, velocity 106
129:0   Note off                3, note 37, velocity 110
129:0   Note off                0, note 76, velocity 106
129:0   Note off                1, note 64, velocity 87
129:0   Note on                 1, note 65, velocity 50
129:0   Note off                2, note 64, velocity 78
129:0   Note on                 2, note 65, velocity 45
129:0   Note off                3, note 64, velocity 110
129:0   Note on                 3, note 65, velocity 74
129:0   Note off                5, note 76, velocity 100
129:0   Note on                 0, note 79, velocity 88
129:0   Note off                1, note 65, velocity 87
129:0   Note on                 1, note 67, velocity 48
129:0   Note off                2, note 65, velocity 78
129:0   Note on                 2, note 67, velocity 43
129:0   Note off                3, note 65, velocity 110
129:0   Note on                 3, note 67, velocity 73
129:0   Note on                 5, note 79, velocity 73
129:0   Note on                 1, note 37, velocity 110
129:0   Note on                 2, note 37, velocity 106
129:0   Note on                 3, note 37, velocity 110
129:0   Note off                0, note 79, velocity 106
129:0   Note off                1, note 67, velocity 87
129:0   Note off                2, note 67, velocity 78
129:0   Note off                3, note 67, velocity 110
129:0   Note off                5, note 79, velocity 64
129:0   Note on                 0, note 81, velocity 88
129:0   Note on                 1, note 69, velocity 45
129:0   Note on                 2, note 69, velocity 40
129:0   Note on                 3, note 69, velocity 67
129:0   Note on                 5, note 81, velocity 78
129:0   Note off                0, note 81, velocity 106
129:0   Note off                1, note 69, velocity 87
129:0   Note off                2, note 69, velocity 78
129:0   Note off                3, note 69, velocity 110
129:0   Note off                5, note 81, velocity 100
129:0   Note on                 0, note 82, velocity 88
129:0   Note on                 1, note 70, velocity 42
129:0   Note on                 2, note 70, velocity 38
129:0   Note on                 3, note 70, velocity 62
129:0   Note on                 5, note 82, velocity 83
129:0   Note off                0, note 82, velocity 106
129:0   Note off                1, note 70, velocity 87
129:0   Note off                2, note 70, velocity 78
129:0   Note off                3, note 70, velocity 110
129:0   Note off                5, note 82, velocity 100
129:0   Note on                 0, note 84, velocity 88
129:0   Note on                 1, note 72, velocity 40
129:0   Note on                 2, note 72, velocity 35
129:0   Note on                 3, note 72, velocity 59
129:0   Note on                 5, note 84, velocity 87
129:0   Note off                0, note 84, velocity 106
129:0   Note off                1, note 72, velocity 87
129:0   Note off                2, note 72, velocity 78
129:0   Note off                3, note 72, velocity 110
129:0   Note off                5, note 84, velocity 100
129:0   Note off                1, note 37, velocity 110
129:0   Note off                2, note 37, velocity 106
129:0   Note off                3, note 37, velocity 110
129:0   Note on                 0, note 86, velocity 88
129:0   Note on                 1, note 74, velocity 37
129:0   Note on                 2, note 74, velocity 33
129:0   Note on                 3, note 74, velocity 55
129:0   Note on                 5, note 86, velocity 92
129:0   Note off                0, note 86, velocity 106
129:0   Note off                1, note 74, velocity 87
129:0   Note off                2, note 74, velocity 78
129:0   Note off                3, note 74, velocity 110
129:0   Note off                5, note 86, velocity 100
129:0   Note on                 1, note 79, velocity 34
129:0   Note on                 2, note 79, velocity 31
129:0   Note on                 3, note 79, velocity 52
129:0   Note on                 0, note 91, velocity 88
129:0   Note on                 0, note 103, velocity 88
129:0   Note off                1, note 79, velocity 87
129:0   Note on                 1, note 37, velocity 110
129:0   Note on                 2, note 37, velocity 106
129:0   Note on                 3, note 37, velocity 110
129:0   Note off                2, note 79, velocity 78
129:0   Note off                3, note 79, velocity 110
129:0   Note on                 5, note 91, velocity 100
129:0   Note on                 5, note 103, velocity 100
129:0   Note off                1, note 37, velocity 110
129:0   Note off                2, note 37, velocity 106
129:0   Note off                3, note 37, velocity 110
129:0   Note on                 1, note 46, velocity 87
129:0   Note on                 1, note 37, velocity 110
129:0   Note on                 2, note 37, velocity 106
129:0   Note on                 3, note 37, velocity 110
129:0   Note on                 2, note 46, velocity 78
129:0   Note on                 3, note 46, velocity 110
129:0   Note off                0, note 91, velocity 106
129:0   Note off                0, note 103, velocity 106
129:0   Note off                5, note 91, velocity 100
129:0   Note off                5, note 103, velocity 100
129:0   Note off                1, note 37, velocity 110
129:0   Note off                2, note 37, velocity 106
129:0   Note off                3, note 37, velocity 110
129:0   Note on                 1, note 37, velocity 110
129:0   Note on                 2, note 37, velocity 106
129:0   Note on                 3, note 37, velocity 110
129:0   Note off                1, note 46, velocity 87
129:0   Note off                2, note 46, velocity 78
129:0   Note off                3, note 46, velocity 110
129:0   Note off                1, note 37, velocity 110
129:0   Note off                2, note 37, velocity 106
129:0   Note off                3, note 37, velocity 110
129:0   Note on                 1, note 37, velocity 110
129:0   Note on                 2, note 37, velocity 106
129:0   Note on                 3, note 37, velocity 110
129:0   Note on                 1, note 38, velocity 87
129:0   Note on                 2, note 38, velocity 78
129:0   Note on                 3, note 38, velocity 110
129:0   Note off                1, note 38, velocity 87
129:0   Note off                2, note 38, velocity 78
129:0   Note off                3, note 38, velocity 110
129:0   Note off                1, note 37, velocity 110
129:0   Note off                2, note 37, velocity 106
129:0   Note off                3, note 37, velocity 110
129:0   Note on                 0, note 86, velocity 88
129:0   Note on                 1, note 37, velocity 110
129:0   Note on                 2, note 37, velocity 106
129:0   Note on                 3, note 37, velocity 110
129:0   Note off                0, note 86, velocity 106
129:0   Note off                1, note 37, velocity 110
129:0   Note off                2, note 37, velocity 106
129:0   Note off                3, note 37, velocity 110
129:0   Note on                 0, note 88, velocity 88
129:0   Note on                 1, note 37, velocity 110
129:0   Note on                 2, note 37, velocity 106
129:0   Note on                 3, note 37, velocity 110
129:0   Note off                0, note 88, velocity 106
129:0   Note on                 0, note 84, velocity 88
129:0   Note off                1, note 37, velocity 110
129:0   Note off                2, note 37, velocity 106
129:0   Note off                3, note 37, velocity 110
129:0   Note on                 1, note 37, velocity 110
129:0   Note on                 2, note 37, velocity 106
129:0   Note on                 3, note 37, velocity 110
129:0   Note off                0, note 84, velocity 106
129:0   Note on                 0, note 72, velocity 88
129:0   Note off                1, note 37, velocity 110
129:0   Note off                2, note 37, velocity 106
129:0   Note off                3, note 37, velocity 110
129:0   Note off                0, note 72, velocity 106
129:0   Note on                 0, note 86, velocity 88
129:0   Note on                 1, note 37, velocity 110
129:0   Note on                 2, note 37, velocity 106
129:0   Note on                 3, note 37, velocity 110
129:0   Note off                0, note 86, velocity 106
129:0   Note on                 0, note 67, velocity 88
129:0   Note off                0, note 67, velocity 106
129:0   Note on                 0, note 69, velocity 88
129:0   Note off                0, note 69, velocity 106
129:0   Note off                1, note 37, velocity 110
129:0   Note off                2, note 37, velocity 106
129:0   Note off                3, note 37, velocity 110
129:0   Note on                 0, note 76, velocity 88
129:0   Note off                0, note 76, velocity 106
129:0   Note on                 0, note 79, velocity 88
129:0   Note on                 1, note 37, velocity 110
129:0   Note on                 2, note 37, velocity 106
129:0   Note on                 3, note 37, velocity 110
129:0   Note off                0, note 79, velocity 106
129:0   Note on                 0, note 83, velocity 88
129:0   Note off                0, note 83, velocity 106
129:0   Note on                 0, note 75, velocity 88
129:0   Note off                0, note 75, velocity 106
129:0   Note off                1, note 37, velocity 110
129:0   Note off                2, note 37, velocity 106
129:0   Note off                3, note 37, velocity 110
129:0   Note on                 0, note 77, velocity 88
129:0   Note off                0, note 77, velocity 106
129:0   Note on                 0, note 78, velocity 88
129:0   Note on                 1, note 37, velocity 110
129:0   Note on                 2, note 37, velocity 106
129:0   Note on                 3, note 37, velocity 110
129:0   Note off                0, note 78, velocity 106
129:0   Note on                 0, note 88, velocity 88
129:0   Note off                0, note 88, velocity 106
129:0   Note on                 0, note 82, velocity 88
129:0   Note off                0, note 82, velocity 106
129:0   Note off                1, note 37, velocity 110
129:0   Note off                2, note 37, velocity 106
129:0   Note off                3, note 37, velocity 110
129:0   Note on                 0, note 83, velocity 88
129:0   Note off                0, note 83, velocity 106
129:0   Note on                 0, note 94, velocity 88
129:0   Note on                 1, note 37, velocity 110
129:0   Note on                 2, note 37, velocity 106
129:0   Note on                 3, note 37, velocity 110
129:0   Note off                0, note 94, velocity 106
129:0   Note on                 0, note 90, velocity 88
129:0   Note off                0, note 90, velocity 106
129:0   Note on                 0, note 80, velocity 88
129:0   Note off                0, note 80, velocity 106
129:0   Note off                1, note 37, velocity 110
129:0   Note off                2, note 37, velocity 106
129:0   Note off                3, note 37, velocity 110
129:0   Note on                 0, note 75, velocity 88
129:0   Note off                0, note 75, velocity 106
129:0   Note on                 0, note 73, velocity 88
129:0   Note on                 1, note 37, velocity 110
129:0   Note on                 2, note 37, velocity 106
129:0   Note on                 3, note 37, velocity 110
129:0   Note off                0, note 73, velocity 106
129:0   Note on                 0, note 90, velocity 88
129:0   Note off                0, note 90, velocity 106
129:0   Note on                 0, note 75, velocity 88
129:0   Note on                 0, note 87, velocity 88
129:0   Note off                0, note 75, velocity 106
129:0   Note off                0, note 87, velocity 106
129:0   Note off                1, note 37, velocity 110
129:0   Note off                2, note 37, velocity 106
129:0   Note off                3, note 37, velocity 110
129:0   Note on                 0, note 73, velocity 88
129:0   Note on                 0, note 85, velocity 88
129:0   Note off                0, note 73, velocity 106
129:0   Note off                0, note 85, velocity 106
129:0   Note on                 0, note 75, velocity 88
129:0   Note on                 1, note 37, velocity 110
129:0   Note on                 2, note 37, velocity 106
129:0   Note on                 3, note 37, velocity 110
129:0   Note off                0, note 75, velocity 106
129:0   Note on                 0, note 73, velocity 88
129:0   Note on                 0, note 87, velocity 88
129:0   Note off                0, note 73, velocity 106
129:0   Note off                0, note 87, velocity 106
129:0   Note on                 0, note 72, velocity 88
129:0   Note off                0, note 72, velocity 106
129:0   Note off                1, note 37, velocity 110
129:0   Note off                2, note 37, velocity 106
129:0   Note off                3, note 37, velocity 110
129:0   Note on                 0, note 74, velocity 88
129:0   Note off                0, note 74, velocity 106
129:0   Note on                 0, note 75, velocity 88
129:0   Note on                 0, note 87, velocity 88
129:0   Note on                 1, note 37, velocity 110
129:0   Note on                 2, note 37, velocity 106
129:0   Note on                 3, note 37, velocity 110
129:0   Note off                0, note 75, velocity 106
129:0   Note off                0, note 87, velocity 106
129:0   Note on                 0, note 75, velocity 88
129:0   Note off                0, note 75, velocity 106
129:0   Note on                 0, note 73, velocity 88
129:0   Note on                 0, note 85, velocity 88
129:0   Note off                0, note 73, velocity 106
129:0   Note off                0, note 85, velocity 106
129:0   Note off                1, note 37, velocity 110
129:0   Note off                2, note 37, velocity 106
129:0   Note off                3, note 37, velocity 110
129:0   Note on                 0, note 75, velocity 88
129:0   Note on                 0, note 87, velocity 88
129:0   Note off                0, note 75, velocity 106
129:0   Note off                0, note 87, velocity 106
129:0   Note on                 0, note 74, velocity 88
129:0   Note on                 0, note 86, velocity 88
129:0   Note on                 1, note 37, velocity 110
129:0   Note on                 2, note 37, velocity 106
129:0   Note on                 3, note 37, velocity 110
129:0   Note off                0, note 74, velocity 106
129:0   Note off                0, note 86, velocity 106
129:0   Note on                 0, note 72, velocity 88
129:0   Note on                 0, note 84, velocity 88
129:0   Note off                0, note 72, velocity 106
129:0   Note off                0, note 84, velocity 106
129:0   Note on                 0, note 71, velocity 88
129:0   Note on                 0, note 83, velocity 88
129:0   Note off                0, note 71, velocity 106
129:0   Note off                0, note 83, velocity 106
129:0   Note off                1, note 37, velocity 110
129:0   Note off                2, note 37, velocity 106
129:0   Note off                3, note 37, velocity 110
129:0   Note on                 1, note 37, velocity 110
129:0   Note on                 2, note 37, velocity 106
129:0   Note on                 3, note 37, velocity 110
129:0   Note off                1, note 37, velocity 110
129:0   Note off                2, note 37, velocity 106
129:0   Note off                3, note 37, velocity 110
129:0   Note on                 1, note 37, velocity 110
129:0   Note on                 2, note 37, velocity 106
129:0   Note on                 3, note 37, velocity 110
129:0   Note on                 0, note 98, velocity 88
129:0   Note on                 4, note 98, velocity 106
129:0   Note on                 5, note 98, velocity 100
129:0   Note off                1, note 37, velocity 110
129:0   Note off                2, note 37, velocity 106
129:0   Note off                3, note 37, velocity 110
129:0   Note off                0, note 98, velocity 106
129:0   Note on                 0, note 97, velocity 88
129:0   Note off                4, note 98, velocity 106
129:0   Note on                 4, note 97, velocity 106
129:0   Note off                5, note 98, velocity 100
129:0   Note on                 5, note 97, velocity 100
129:0   Note off                0, note 97, velocity 106
129:0   Note on                 0, note 98, velocity 88
129:0   Note on                 1, note 37, velocity 110
129:0   Note on                 2, note 37, velocity 106
129:0   Note on                 3, note 37, velocity 110
129:0   Note off                4, note 97, velocity 106
129:0   Note on                 4, note 98, velocity 106
129:0   Note off                5, note 97, velocity 100
129:0   Note on                 5, note 98, velocity 100
129:0   Note off                0, note 98, velocity 106
129:0   Note on                 0, note 97, velocity 88
129:0   Note off                4, note 98, velocity 106
129:0   Note on                 4, note 97, velocity 106
129:0   Note off                5, note 98, velocity 100
129:0   Note on                 5, note 97, velocity 100
129:0   Note off                0, note 97, velocity 106
129:0   Note on                 0, note 65, velocity 88
129:0   Note off                4, note 97, velocity 106
129:0   Note off                5, note 97, velocity 100
129:0   Note off                1, note 37, velocity 110
129:0   Note off                2, note 37, velocity 106
129:0   Note off                3, note 37, velocity 110
129:0   Note off                0, note 65, velocity 106
129:0   Note on                 0, note 68, velocity 88
129:0   Note on                 1, note 37, velocity 110
129:0   Note on                 2, note 37, velocity 106
129:0   Note on                 3, note 37, velocity 110
129:0   Note off                0, note 68, velocity 106
129:0   Note on                 0, note 69, velocity 88
129:0   Note off                0, note 69, velocity 106
129:0   Note on                 0, note 68, velocity 88
129:0   Note off                0, note 68, velocity 106
129:0   Note off                1, note 37, velocity 110
129:0   Note off                2, note 37, velocity 106
129:0   Note off                3, note 37, velocity 110
129:0   Note on                 0, note 68, velocity 88
129:0   Note off                0, note 68, velocity 106
129:0   Note on                 0, note 69, velocity 88
129:0   Note on                 1, note 37, velocity 110
129:0   Note on                 2, note 37, velocity 106
129:0   Note on                 3, note 37, velocity 110
129:0   Note off                0, note 69, velocity 106
129:0   Note on                 0, note 69, velocity 88
129:0   Note off                0, note 69, velocity 106
129:0   Note on                 0, note 85, velocity 88
129:0   Note off                0, note 85, velocity 106
129:0   Note off                1, note 37, velocity 110
129:0   Note off                2, note 37, velocity 106
129:0   Note off                3, note 37, velocity 110
129:0   Note on                 0, note 86, velocity 88
129:0   Note on                 1, note 37, velocity 110
129:0   Note on                 2, note 37, velocity 106
129:0   Note on                 3, note 37, velocity 110
129:0   Note off                0, note 86, velocity 106
129:0   Note on                 0, note 98, velocity 88
129:0   Note on                 4, note 98, velocity 106
129:0   Note on                 5, note 98, velocity 100
129:0   Note off                0, note 98, velocity 106
129:0   Note on                 0, note 97, velocity 88
129:0   Note off                4, note 98, velocity 106
129:0   Note on                 4, note 97, velocity 106
129:0   Note off                5, note 98, velocity 100
129:0   Note on                 5, note 97, velocity 100
129:0   Note off                1, note 37, velocity 110
129:0   Note off                2, note 37, velocity 106
129:0   Note off                3, note 37, velocity 110
129:0   Note off                0, note 97, velocity 106
129:0   Note on                 0, note 98, velocity 88
129:0   Note off                4, note 97, velocity 106
129:0   Note on                 4, note 98, velocity 106
129:0   Note off                5, note 97, velocity 100
129:0   Note on                 5, note 98, velocity 100
129:0   Note off                0, note 98, velocity 106
129:0   Note on                 0, note 97, velocity 88
129:0   Note on                 1, note 37, velocity 110
129:0   Note on                 2, note 37, velocity 106
129:0   Note on                 3, note 37, velocity 110
129:0   Note off                4, note 98, velocity 106
129:0   Note on                 4, note 97, velocity 106
129:0   Note off                5, note 98, velocity 100
129:0   Note on                 5, note 97, velocity 100
129:0   Note off                0, note 97, velocity 106
129:0   Note on                 0, note 65, velocity 88
129:0   Note off                4, note 97, velocity 106
129:0   Note off                5, note 97, velocity 100
129:0   Note off                1, note 37, velocity 110
129:0   Note off                2, note 37, velocity 106
129:0   Note off                3, note 37, velocity 110
129:0   Note off                0, note 65, velocity 106
129:0   Note on                 0, note 68, velocity 88
129:0   Note off                0, note 68, velocity 106
129:0   Note on                 0, note 69, velocity 88
129:0   Note on                 1, note 37, velocity 110
129:0   Note on                 2, note 37, velocity 106
129:0   Note on                 3, note 37, velocity 110
129:0   Note off                0, note 69, velocity 106
129:0   Note on                 0, note 68, velocity 88
129:0   Note off                0, note 68, velocity 106
129:0   Note on                 0, note 68, velocity 88
129:0   Note off                0, note 68, velocity 106
129:0   Note off                1, note 37, velocity 110
129:0   Note off                2, note 37, velocity 106
129:0   Note off                3, note 37, velocity 110
129:0   Note on                 0, note 69, velocity 88
129:0   Note off                0, note 69, velocity 106
129:0   Note on                 0, note 69, velocity 88
129:0   Note on                 1, note 37, velocity 110
129:0   Note on                 2, note 37, velocity 106
129:0   Note on                 3, note 37, velocity 110
129:0   Note off                0, note 69, velocity 106
129:0   Note on                 0, note 85, velocity 88
129:0   Note off                0, note 85, velocity 106
129:0   Note on                 0, note 86, velocity 88
129:0   Note off                1, note 37, velocity 110
129:0   Note off                2, note 37, velocity 106
129:0   Note off                3, note 37, velocity 110
129:0   Note off                0, note 86, velocity 106
129:0   Note on                 0, note 98, velocity 88
129:0   Note on                 1, note 37, velocity 110
129:0   Note on                 2, note 37, velocity 106
129:0   Note on                 3, note 37, velocity 110
129:0   Note on                 4, note 98, velocity 106
129:0   Note on                 5, note 98, velocity 100
129:0   Note off                0, note 98, velocity 106
129:0   Note on                 0, note 97, velocity 88
129:0   Note off                4, note 98, velocity 106
129:0   Note on                 4, note 97, velocity 106
129:0   Note off                5, note 98, velocity 100
129:0   Note on                 5, note 97, velocity 100
129:0   Note off                0, note 97, velocity 106
129:0   Note on                 0, note 98, velocity 88
129:0   Note off                4, note 97, velocity 106
129:0   Note on                 4, note 98, velocity 106
129:0   Note off                5, note 97, velocity 100
129:0   Note on                 5, note 98, velocity 100
129:0   Note off                1, note 37, velocity 110
129:0   Note off                2, note 37, velocity 106
129:0   Note off                3, note 37, velocity 110
129:0   Note off                0, note 98, velocity 106
129:0   Note on                 0, note 97, velocity 88
129:0   Note off                4, note 98, velocity 106
129:0   Note on                 4, note 97, velocity 106
129:0   Note off                5, note 98, velocity 100
129:0   Note on                 5, note 97, velocity 100
129:0   Note off                0, note 97, velocity 106
129:0   Note on                 0, note 65, velocity 88
129:0   Note on                 1, note 37, velocity 110
129:0   Note on                 2, note 37, velocity 106
129:0   Note on                 3, note 37, velocity 110
129:0   Note off                4, note 97, velocity 106
129:0   Note on                 4, note 101, velocity 106
129:0   Note off                5, note 97, velocity 100
129:0   Note off                0, note 65, velocity 106
129:0   Note on                 0, note 80, velocity 88
129:0   Note off                4, note 101, velocity 106
129:0   Note on                 4, note 116, velocity 106
129:0   Note off                0, note 80, velocity 106
129:0   Note on                 0, note 81, velocity 88
129:0   Note off                1, note 37, velocity 110
129:0   Note off                2, note 37, velocity 106
129:0   Note off                3, note 37, velocity 110
129:0   Note off                4, note 116, velocity 106
129:0   Note on                 4, note 117, velocity 106
129:0   Note off                0, note 81, velocity 106
129:0   Note on                 1, note 37, velocity 110
129:0   Note on                 2, note 37, velocity 106
129:0   Note on                 3, note 37, velocity 110
129:0   Note off                4, note 117, velocity 106
129:0   Note on                 4, note 101, velocity 106
129:0   Note off                4, note 101, velocity 106
129:0   Note on                 4, note 104, velocity 106
129:0   Note off                1, note 37, velocity 110
129:0   Note off                2, note 37, velocity 106
129:0   Note off                3, note 37, velocity 110
129:0   Note off                4, note 104, velocity 106
129:0   Note on                 4, note 94, velocity 106
129:0   Note on                 1, note 37, velocity 110
129:0   Note on                 2, note 37, velocity 106
129:0   Note on                 3, note 37, velocity 110
129:0   Note off                4, note 94, velocity 106
129:0   Note on                 4, note 102, velocity 106
129:0   Note off                4, note 102, velocity 106
129:0   Note on                 4, note 103, velocity 106
129:0   Note on                 0, note 68, velocity 88
129:0   Note off                1, note 37, velocity 110
129:0   Note off                2, note 37, velocity 106
129:0   Note off                3, note 37, velocity 110
129:0   Note off                4, note 103, velocity 106
129:0   Note on                 4, note 104, velocity 106
129:0   Note off                0, note 68, velocity 106
129:0   Note on                 0, note 69, velocity 88
129:0   Note on                 1, note 38, velocity 110
129:0   Note on                 2, note 38, velocity 106
129:0   Note on                 3, note 38, velocity 110
129:0   Note off                4, note 104, velocity 106
129:0   Note on                 4, note 105, velocity 106
129:0   Note off                0, note 69, velocity 106
129:0   Note on                 0, note 75, velocity 88
129:0   Note off                4, note 105, velocity 106
129:0   Note on                 4, note 111, velocity 106
129:0   Note off                0, note 75, velocity 106
129:0   Note on                 0, note 76, velocity 88
129:0   Note off                1, note 38, velocity 110
129:0   Note off                2, note 38, velocity 106
129:0   Note off                3, note 38, velocity 110
129:0   Note off                4, note 111, velocity 106
129:0   Note on                 4, note 112, velocity 106
129:0   Note off                0, note 76, velocity 106
129:0   Note on                 0, note 69, velocity 88
129:0   Note on                 0, note 76, velocity 88
129:0   Note on                 1, note 38, velocity 110
129:0   Note on                 2, note 38, velocity 106
129:0   Note on                 3, note 38, velocity 110
129:0   Note off                4, note 112, velocity 106
129:0   Note on                 4, note 105, velocity 83
129:0   Note on                 4, note 112, velocity 83
129:0   Note off                0, note 69, velocity 106
129:0   Note off                0, note 76, velocity 106
129:0   Note on                 0, note 74, velocity 88
129:0   Note off                4, note 105, velocity 106
129:0   Note off                4, note 112, velocity 106
129:0   Note on                 4, note 110, velocity 106
129:0   Note off                0, note 74, velocity 106
129:0   Note on                 0, note 79, velocity 88
129:0   Note off                1, note 38, velocity 110
129:0   Note off                2, note 38, velocity 106
129:0   Note off                3, note 38, velocity 110
129:0   Note off                4, note 110, velocity 106
129:0   Note on                 4, note 115, velocity 106
129:0   Note off                0, note 79, velocity 106
129:0   Note on                 0, note 66, velocity 88
129:0   Note on                 1, note 38, velocity 110
129:0   Note on                 2, note 38, velocity 106
129:0   Note on                 3, note 38, velocity 110
129:0   Note off                4, note 115, velocity 106
129:0   Note on                 4, note 102, velocity 106
129:0   Note off                0, note 66, velocity 106
129:0   Note on                 0, note 71, velocity 88
129:0   Note off                4, note 102, velocity 106
129:0   Note on                 4, note 107, velocity 106
129:0   Note off                0, note 71, velocity 106
129:0   Note on                 0, note 75, velocity 88
129:0   Note off                1, note 38, velocity 110
129:0   Note off                2, note 38, velocity 106
129:0   Note off                3, note 38, velocity 110
129:0   Note off                4, note 107, velocity 106
129:0   Note on                 4, note 111, velocity 106
129:0   Note off                0, note 75, velocity 106
129:0   Note on                 0, note 68, velocity 88
129:0   Note on                 1, note 38, velocity 110
129:0   Note on                 2, note 38, velocity 106
129:0   Note on                 3, note 38, velocity 110
129:0   Note off                4, note 111, velocity 106
129:0   Note on                 4, note 104, velocity 106
129:0   Note off                0, note 68, velocity 106
129:0   Note on                 0, note 73, velocity 88
129:0   Note off                4, note 104, velocity 106
129:0   Note on                 4, note 109, velocity 106
129:0   Note off                0, note 73, velocity 106
129:0   Note on                 0, note 77, velocity 88
129:0   Note off                1, note 38, velocity 110
129:0   Note off                2, note 38, velocity 106
129:0   Note off                3, note 38, velocity 110
129:0   Note off                4, note 109, velocity 106
129:0   Note on                 4, note 113, velocity 106
129:0   Note off                0, note 77, velocity 106
129:0   Note on                 0, note 70, velocity 88
129:0   Note on                 1, note 38, velocity 110
129:0   Note on                 2, note 38, velocity 106
129:0   Note on                 3, note 38, velocity 110
129:0   Note off                4, note 113, velocity 106
129:0   Note on                 4, note 106, velocity 106
129:0   Note off                0, note 70, velocity 106
129:0   Note on                 0, note 75, velocity 88
129:0   Note off                4, note 106, velocity 106
129:0   Note on                 4, note 111, velocity 106
129:0   Note off                0, note 75, velocity 106
129:0   Note on                 0, note 79, velocity 88
129:0   Note off                1, note 38, velocity 110
129:0   Note off                2, note 38, velocity 106
129:0   Note off                3, note 38, velocity 110
129:0   Note off                4, note 111, velocity 106
129:0   Note on                 4, note 115, velocity 106
129:0   Note off                0, note 79, velocity 106
129:0   Note on                 0, note 72, velocity 88
129:0   Note on                 1, note 38, velocity 110
129:0   Note on                 2, note 38, velocity 106
129:0   Note on                 3, note 38, velocity 110
129:0   Note off                4, note 115, velocity 106
129:0   Note on                 4, note 108, velocity 106
129:0   Note off                0, note 72, velocity 106
129:0   Note on                 0, note 77, velocity 88
129:0   Note off                4, note 108, velocity 106
129:0   Note on                 4, note 113, velocity 106
129:0   Note off                0, note 77, velocity 106
129:0   Note on                 0, note 81, velocity 88
129:0   Note off                1, note 38, velocity 110
129:0   Note off                2, note 38, velocity 106
129:0   Note off                3, note 38, velocity 110
129:0   Note off                4, note 113, velocity 106
129:0   Note on                 4, note 117, velocity 106
129:0   Note off                0, note 81, velocity 106
129:0   Note on                 0, note 76, velocity 88
129:0   Note on                 1, note 38, velocity 110
129:0   Note on                 2, note 38, velocity 106
129:0   Note on                 3, note 38, velocity 110
129:0   Note off                4, note 117, velocity 106
129:0   Note on                 4, note 112, velocity 106
129:0   Note off                0, note 76, velocity 106
129:0   Note on                 0, note 81, velocity 88
129:0   Note off                4, note 112, velocity 106
129:0   Note on                 4, note 117, velocity 106
129:0   Note off                0, note 81, velocity 106
129:0   Note on                 0, note 85, velocity 88
129:0   Note off                1, note 38, velocity 110
129:0   Note off                2, note 38, velocity 106
129:0   Note off                3, note 38, velocity 110
129:0   Note off                4, note 117, velocity 106
129:0   Note on                 4, note 121, velocity 106
129:0   Note off                0, note 85, velocity 106
129:0   Note on                 0, note 76, velocity 88
129:0   Note on                 1, note 38, velocity 110
129:0   Note on                 2, note 38, velocity 106
129:0   Note on                 3, note 38, velocity 110
129:0   Note off                4, note 121, velocity 106
129:0   Note on                 4, note 112, velocity 106
129:0   Note off                0, note 76, velocity 106
129:0   Note on                 0, note 80, velocity 88
129:0   Note off                4, note 112, velocity 106
129:0   Note on                 4, note 116, velocity 106
129:0   Note off                0, note 80, velocity 106
129:0   Note on                 0, note 69, velocity 88
129:0   Note off                1, note 38, velocity 110
129:0   Note off                2, note 38, velocity 106
129:0   Note off                3, note 38, velocity 110
129:0   Note off                4, note 116, velocity 106
129:0   Note on                 4, note 105, velocity 106
129:0   Note off                0, note 69, velocity 106
129:0   Note on                 0, note 70, velocity 88
129:0   Note on                 1, note 38, velocity 110
129:0   Note on                 2, note 38, velocity 106
129:0   Note on                 3, note 38, velocity 110
129:0   Note off                4, note 105, velocity 106
129:0   Note on                 4, note 106, velocity 106
129:0   Note off                0, note 70, velocity 106
129:0   Note on                 0, note 78, velocity 88
129:0   Note off                4, note 106, velocity 106
129:0   Note on                 4, note 114, velocity 106
129:0   Note off                0, note 78, velocity 106
129:0   Note on                 0, note 79, velocity 88
129:0   Note off                1, note 38, velocity 110
129:0   Note off                2, note 38, velocity 106
129:0   Note off                3, note 38, velocity 110
129:0   Note off                4, note 114, velocity 106
129:0   Note on                 4, note 115, velocity 106
129:0   Note off                0, note 79, velocity 106
129:0   Note on                 0, note 68, velocity 88
129:0   Note on                 1, note 38, velocity 110
129:0   Note on                 2, note 38, velocity 106
129:0   Note on                 3, note 38, velocity 110
129:0   Note off                4, note 115, velocity 106
129:0   Note on                 4, note 104, velocity 106
129:0   Note off                0, note 68, velocity 106
129:0   Note on                 0, note 75, velocity 88
129:0   Note off                4, note 104, velocity 106
129:0   Note on                 4, note 111, velocity 106
129:0   Note off                0, note 75, velocity 106
129:0   Note on                 0, note 76, velocity 88
129:0   Note off                1, note 38, velocity 110
129:0   Note off                2, note 38, velocity 106
129:0   Note off                3, note 38, velocity 110
129:0   Note off                4, note 111, velocity 106
129:0   Note on                 4, note 112, velocity 106
129:0   Note off                0, note 76, velocity 106
129:0   Note on                 0, note 69, velocity 88
129:0   Note on                 1, note 38, velocity 110
129:0   Note on                 2, note 38, velocity 106
129:0   Note on                 3, note 38, velocity 110
129:0   Note off                4, note 112, velocity 106
129:0   Note on                 4, note 105, velocity 106
129:0   Note off                0, note 69, velocity 106
129:0   Note on                 0, note 74, velocity 88
129:0   Note off                4, note 105, velocity 106
129:0   Note on                 4, note 110, velocity 106
129:0   Note off                0, note 74, velocity 106
129:0   Note on                 0, note 79, velocity 88
129:0   Note off                1, note 38, velocity 110
129:0   Note off                2, note 38, velocity 106
129:0   Note off                3, note 38, velocity 110
129:0   Note off                4, note 110, velocity 106
129:0   Note on                 4, note 115, velocity 106
129:0   Note off                0, note 79, velocity 106
129:0   Note on                 0, note 66, velocity 88
129:0   Note on                 1, note 37, velocity 110
129:0   Note on                 2, note 37, velocity 106
129:0   Note on                 3, note 37, velocity 110
129:0   Note off                4, note 115, velocity 106
129:0   Note on                 4, note 102, velocity 106
129:0   Note off                0, note 66, velocity 106
129:0   Note on                 0, note 71, velocity 88
129:0   Note off                4, note 102, velocity 106
129:0   Note on                 4, note 107, velocity 106
129:0   Note off                0, note 71, velocity 106
129:0   Note on                 0, note 75, velocity 88
129:0   Note off                1, note 37, velocity 110
129:0   Note off                2, note 37, velocity 106
129:0   Note off                3, note 37, velocity 110
129:0   Note off                4, note 107, velocity 106
129:0   Note on                 4, note 111, velocity 106
129:0   Note off                0, note 75, velocity 106
129:0   Note on                 0, note 68, velocity 88
129:0   Note on                 1, note 37, velocity 110
129:0   Note on                 2, note 37, velocity 106
129:0   Note on                 3, note 37, velocity 110
129:0   Note off                4, note 111, velocity 106
129:0   Note on                 4, note 104, velocity 106
129:0   Note off                0, note 68, velocity 106
129:0   Note on                 0, note 73, velocity 88
129:0   Note off                4, note 104, velocity 106
129:0   Note on                 4, note 109, velocity 106
129:0   Note off                0, note 73, velocity 106
129:0   Note on                 0, note 77, velocity 88
129:0   Note off                1, note 37, velocity 110
129:0   Note off                2, note 37, velocity 106
129:0   Note off                3, note 37, velocity 110
129:0   Note off                4, note 109, velocity 106
129:0   Note on                 4, note 113, velocity 106
129:0   Note off                0, note 77, velocity 106
129:0   Note on                 0, note 70, velocity 88
129:0   Note on                 1, note 37, velocity 110
129:0   Note on                 2, note 37, velocity 106
129:0   Note on                 3, note 37, velocity 110
129:0   Note off                4, note 113, velocity 106
129:0   Note on                 4, note 106, velocity 106
129:0   Note off                0, note 70, velocity 106
129:0   Note on                 0, note 75, velocity 88
129:0   Note off                4, note 106, velocity 106
129:0   Note on                 4, note 111, velocity 106
129:0   Note off                0, note 75, velocity 106
129:0   Note on                 0, note 79, velocity 88
129:0   Note off                1, note 37, velocity 110
129:0   Note off                2, note 37, velocity 106
129:0   Note off                3, note 37, velocity 110
129:0   Note off                4, note 111, velocity 106
129:0   Note on                 4, note 115, velocity 106
129:0   Note off                0, note 79, velocity 106
129:0   Note on                 0, note 72, velocity 88
129:0   Note on                 1, note 37, velocity 110
129:0   Note on                 2, note 37, velocity 106
129:0   Note on                 3, note 37, velocity 110
129:0   Note off                4, note 115, velocity 106
129:0   Note on                 4, note 108, velocity 106
129:0   Note off                0, note 72, velocity 106
129:0   Note on                 0, note 77, velocity 88
129:0   Note off                4, note 108, velocity 106
129:0   Note on                 4, note 113, velocity 106
129:0   Note off                0, note 77, velocity 106
129:0   Note on                 0, note 81, velocity 88
129:0   Note off                1, note 37, velocity 110
129:0   Note off                2, note 37, velocity 106
129:0   Note off                3, note 37, velocity 110
129:0   Note off                4, note 113, velocity 106
129:0   Note on                 4, note 117, velocity 106
129:0   Note off                0, note 81, velocity 106
129:0   Note on                 0, note 76, velocity 88
129:0   Note on                 1, note 37, velocity 110
129:0   Note on                 2, note 37, velocity 106
129:0   Note on                 3, note 37, velocity 110
129:0   Note off                4, note 117, velocity 106
129:0   Note on                 4, note 112, velocity 106
129:0   Note off                0, note 76, velocity 106
129:0   Note on                 0, note 81, velocity 88
129:0   Note off                4, note 112, velocity 106
129:0   Note on                 4, note 117, velocity 106
129:0   Note off                0, note 81, velocity 106
129:0   Note on                 0, note 85, velocity 88
129:0   Note off                1, note 37, velocity 110
129:0   Note off                2, note 37, velocity 106
129:0   Note off                3, note 37, velocity 110
129:0   Note off                4, note 117, velocity 106
129:0   Note on                 4, note 121, velocity 106
129:0   Note off                0, note 85, velocity 106
129:0   Note on                 0, note 79, velocity 88
129:0   Note on                 1, note 37, velocity 110
129:0   Note on                 2, note 37, velocity 106
129:0   Note on                 3, note 37, velocity 110
129:0   Note off                4, note 121, velocity 106
129:0   Note on                 4, note 115, velocity 106
129:0   Note off                0, note 79, velocity 106
129:0   Note on                 0, note 80, velocity 88
129:0   Note off                4, note 115, velocity 106
129:0   Note on                 4, note 115, velocity 106
129:0   Note off                0, note 80, velocity 106
129:0   Note on                 0, note 81, velocity 88
129:0   Note off                1, note 37, velocity 110
129:0   Note off                2, note 37, velocity 106
129:0   Note off                3, note 37, velocity 110
129:0   Note off                4, note 115, velocity 106
129:0   Note on                 4, note 117, velocity 106
129:0   Note off                0, note 81, velocity 106
129:0   Note on                 0, note 70, velocity 88
129:0   Note on                 1, note 37, velocity 110
129:0   Note on                 2, note 37, velocity 106
129:0   Note on                 3, note 37, velocity 110
129:0   Note off                4, note 117, velocity 106
129:0   Note on                 4, note 106, velocity 106
129:0   Note off                0, note 70, velocity 106
129:0   Note on                 0, note 78, velocity 88
129:0   Note off                4, note 106, velocity 106
129:0   Note on                 4, note 114, velocity 106
129:0   Note off                0, note 78, velocity 106
129:0   Note on                 0, note 80, velocity 88
129:0   Note off                1, note 37, velocity 110
129:0   Note off                2, note 37, velocity 106
129:0   Note off                3, note 37, velocity 110
129:0   Note off                4, note 114, velocity 106
129:0   Note on                 4, note 116, velocity 106
129:0   Note off                0, note 80, velocity 106
129:0   Note on                 0, note 73, velocity 88
129:0   Note on                 1, note 37, velocity 110
129:0   Note on                 2, note 37, velocity 106
129:0   Note on                 3, note 37, velocity 110
129:0   Note off                4, note 116, velocity 106
129:0   Note on                 4, note 109, velocity 106
129:0   Note off                0, note 73, velocity 106
129:0   Note on                 0, note 75, velocity 88
129:0   Note off                4, note 109, velocity 106
129:0   Note on                 4, note 111, velocity 106
129:0   Note off                0, note 75, velocity 106
129:0   Note on                 0, note 76, velocity 88
129:0   Note off                1, note 37, velocity 110
129:0   Note off                2, note 37, velocity 106
129:0   Note off                3, note 37, velocity 110
129:0   Note off                4, note 111, velocity 106
129:0   Note on                 4, note 112, velocity 106
129:0   Note off                0, note 76, velocity 106
129:0   Note on                 0, note 70, velocity 88
129:0   Note on                 1, note 37, velocity 110
129:0   Note on                 2, note 37, velocity 106
129:0   Note on                 3, note 37, velocity 110
129:0   Note off                4, note 112, velocity 106
129:0   Note on                 4, note 106, velocity 106
129:0   Note off                0, note 70, velocity 106
129:0   Note on                 0, note 74, velocity 88
129:0   Note off                4, note 106, velocity 106
129:0   Note on                 4, note 110, velocity 106
129:0   Note off                0, note 74, velocity 106
129:0   Note on                 0, note 67, velocity 88
129:0   Note off                1, note 37, velocity 110
129:0   Note off                2, note 37, velocity 106
129:0   Note off                3, note 37, velocity 110
129:0   Note off                4, note 110, velocity 106
129:0   Note on                 4, note 103, velocity 106
129:0   Note off                0, note 67, velocity 106
129:0   Note on                 0, note 66, velocity 88
129:0   Note on                 1, note 37, velocity 110
129:0   Note on                 2, note 37, velocity 106
129:0   Note on                 3, note 37, velocity 110
129:0   Note off                4, note 103, velocity 106
129:0   Note on                 4, note 102, velocity 106
129:0   Note off                0, note 66, velocity 106
129:0   Note on                 0, note 71, velocity 88
129:0   Note off                4, note 102, velocity 106
129:0   Note on                 4, note 107, velocity 106
129:0   Note off                0, note 71, velocity 106
129:0   Note on                 0, note 75, velocity 88
129:0   Note off                1, note 37, velocity 110
129:0   Note off                2, note 37, velocity 106
129:0   Note off                3, note 37, velocity 110
129:0   Note off                4, note 107, velocity 106
129:0   Note on                 4, note 111, velocity 106
129:0   Note off                0, note 75, velocity 106
129:0   Note on                 0, note 68, velocity 88
129:0   Note on                 1, note 37, velocity 110
129:0   Note on                 2, note 37, velocity 106
129:0   Note on                 3, note 37, velocity 110
129:0   Note off                4, note 111, velocity 106
129:0   Note on                 4, note 104, velocity 106
129:0   Note on                 6, note 87, velocity 112
129:0   Note on                 6, note 75, velocity 112
129:0   Note on                 1, note 99, velocity 60
129:0   Note on                 1, note 87, velocity 60
129:0   Note on                 1, note 75, velocity 60
129:0   Note on                 5, note 99, velocity 60
129:0   Note on                 5, note 87, velocity 60
129:0   Note off                0, note 68, velocity 106
129:0   Note on                 0, note 73, velocity 88
129:0   Note off                4, note 104, velocity 106
129:0   Note on                 4, note 109, velocity 106
129:0   Note off                0, note 73, velocity 106
129:0   Note on                 0, note 77, velocity 88
129:0   Note off                1, note 37, velocity 110
129:0   Note off                2, note 37, velocity 106
129:0   Note off                3, note 37, velocity 110
129:0   Note off                4, note 109, velocity 106
129:0   Note on                 4, note 113, velocity 106
129:0   Note off                0, note 77, velocity 106
129:0   Note on                 0, note 70, velocity 88
129:0   Note on                 1, note 37, velocity 110
129:0   Note on                 2, note 37, velocity 106
129:0   Note on                 3, note 37, velocity 110
129:0   Note off                4, note 113, velocity 106
129:0   Note on                 4, note 106, velocity 106
129:0   Note off                6, note 87, velocity 112
129:0   Note off                6, note 75, velocity 112
129:0   Note on                 6, note 85, velocity 112
129:0   Note on                 6, note 73, velocity 112
129:0   Note off                1, note 99, velocity 127
129:0   Note off                1, note 87, velocity 127
129:0   Note off                1, note 75, velocity 127
129:0   Note on                 1, note 97, velocity 60
129:0   Note on                 1, note 85, velocity 60
129:0   Note on                 1, note 73, velocity 60
129:0   Note off                5, note 99, velocity 127
129:0   Note off                5, note 87, velocity 127
129:0   Note on                 5, note 97, velocity 60
129:0   Note on                 5, note 85, velocity 60
129:0   Note off                0, note 70, velocity 106
129:0   Note on                 0, note 75, velocity 88
129:0   Note off                4, note 106, velocity 106
129:0   Note on                 4, note 111, velocity 106
129:0   Note off                0, note 75, velocity 106
129:0   Note on                 0, note 79, velocity 88
129:0   Note off                1, note 37, velocity 110
129:0   Note off                2, note 37, velocity 106
129:0   Note off                3, note 37, velocity 110
129:0   Note off                4, note 111, velocity 106
129:0   Note on                 4, note 115, velocity 106
129:0   Note off                0, note 79, velocity 106
129:0   Note on                 0, note 72, velocity 88
129:0   Note on                 1, note 37, velocity 110
129:0   Note on                 2, note 37, velocity 106
129:0   Note on                 3, note 37, velocity 110
129:0   Note off                4, note 115, velocity 106
129:0   Note on                 4, note 108, velocity 106
129:0   Note off                6, note 85, velocity 112
129:0   Note off                6, note 73, velocity 112
129:0   Note on                 6, note 82, velocity 112
129:0   Note on                 6, note 70, velocity 112
129:0   Note off                1, note 97, velocity 127
129:0   Note off                1, note 85, velocity 127
129:0   Note off                1, note 73, velocity 127
129:0   Note on                 1, note 94, velocity 60
129:0   Note on                 1, note 82, velocity 60
129:0   Note on                 1, note 70, velocity 60
129:0   Note off                5, note 97, velocity 127
129:0   Note off                5, note 85, velocity 127
129:0   Note on                 5, note 94, velocity 60
129:0   Note on                 5, note 82, velocity 60
129:0   Note off                0, note 72, velocity 106
129:0   Note on                 0, note 77, velocity 88
129:0   Note off                4, note 108, velocity 106
129:0   Note on                 4, note 113, velocity 106
129:0   Note off                0, note 77, velocity 106
129:0   Note on                 0, note 81, velocity 88
129:0   Note off                1, note 37, velocity 110
129:0   Note off                2, note 37, velocity 106
129:0   Note off                3, note 37, velocity 110
129:0   Note off                4, note 113, velocity 106
129:0   Note on                 4, note 117, velocity 106
129:0   Note off                0, note 81, velocity 106
129:0   Note on                 0, note 76, velocity 88
129:0   Note on                 1, note 37, velocity 110
129:0   Note on                 2, note 37, velocity 106
129:0   Note on                 3, note 37, velocity 110
129:0   Note off                4, note 117, velocity 106
129:0   Note on                 4, note 112, velocity 106
129:0   Note off                6, note 82, velocity 112
129:0   Note off                6, note 70, velocity 112
129:0   Note on                 6, note 80, velocity 112
129:0   Note on                 6, note 68, velocity 112
129:0   Note off                1, note 94, velocity 127
129:0   Note off                1, note 82, velocity 127
129:0   Note off                1, note 70, velocity 127
129:0   Note on                 1, note 92, velocity 60
129:0   Note on                 1, note 80, velocity 60
129:0   Note on                 1, note 68, velocity 60
129:0   Note off                5, note 94, velocity 127
129:0   Note off                5, note 82, velocity 127
129:0   Note on                 5, note 92, velocity 60
129:0   Note on                 5, note 80, velocity 60
129:0   Note off                0, note 76, velocity 106
129:0   Note on                 0, note 81, velocity 88
129:0   Note off                4, note 112, velocity 106
129:0   Note on                 4, note 117, velocity 106
129:0   Note off                0, note 81, velocity 106
129:0   Note on                 0, note 85, velocity 88
129:0   Note off                1, note 37, velocity 110
129:0   Note off                2, note 37, velocity 106
129:0   Note off                3, note 37, velocity 110
129:0   Note off                4, note 117, velocity 106
129:0   Note on                 4, note 121, velocity 106
129:0   Note off                0, note 85, velocity 106
129:0   Note on                 0, note 76, velocity 88
129:0   Note on                 1, note 37, velocity 110
129:0   Note on                 2, note 37, velocity 106
129:0   Note on                 3, note 37, velocity 110
129:0   Note off                4, note 121, velocity 106
129:0   Note on                 4, note 112, velocity 106
129:0   Note off                6, note 80, velocity 112
129:0   Note off                6, note 68, velocity 112
129:0   Note on                 6, note 80, velocity 112
129:0   Note on                 6, note 68, velocity 112
129:0   Note off                1, note 92, velocity 127
129:0   Note off                1, note 80, velocity 127
129:0   Note off                1, note 68, velocity 127
129:0   Note on                 1, note 92, velocity 60
129:0   Note on                 1, note 80, velocity 60
129:0   Note on                 1, note 68, velocity 60
129:0   Note off                5, note 92, velocity 127
129:0   Note off                5, note 80, velocity 127
129:0   Note on                 5, note 92, velocity 60
129:0   Note on                 5, note 80, velocity 60
129:0   Note off                0, note 76, velocity 106
129:0   Note on                 0, note 80, velocity 88
129:0   Note off                4, note 112, velocity 106
129:0   Note on                 4, note 116, velocity 106
129:0   Note off                0, note 80, velocity 106
129:0   Note on                 0, note 69, velocity 88
129:0   Note off                1, note 37, velocity 110
129:0   Note off                2, note 37, velocity 106
129:0   Note off                3, note 37, velocity 110
129:0   Note off                4, note 116, velocity 106
129:0   Note on                 4, note 105, velocity 106
129:0   Note off                0, note 69, velocity 106
129:0   Note on                 0, note 70, velocity 88
129:0   Note on                 1, note 37, velocity 110
129:0   Note on                 2, note 37, velocity 106
129:0   Note on                 3, note 37, velocity 110
129:0   Note off                4, note 105, velocity 106
129:0   Note on                 4, note 106, velocity 106
129:0   Note off                6, note 80, velocity 112
129:0   Note off                6, note 68, velocity 112
129:0   Note on                 6, note 79, velocity 112
129:0   Note on                 6, note 67, velocity 112
129:0   Note off                1, note 92, velocity 127
129:0   Note off                1, note 80, velocity 127
129:0   Note off                1, note 68, velocity 127
129:0   Note on                 1, note 91, velocity 60
129:0   Note on                 1, note 79, velocity 60
129:0   Note on                 1, note 67, velocity 60
129:0   Note off                5, note 92, velocity 127
129:0   Note off                5, note 80, velocity 127
129:0   Note on                 5, note 91, velocity 60
129:0   Note on                 5, note 79, velocity 60
129:0   Note off                0, note 70, velocity 106
129:0   Note on                 0, note 78, velocity 88
129:0   Note off                4, note 106, velocity 106
129:0   Note on                 4, note 114, velocity 106
129:0   Note off                0, note 78, velocity 106
129:0   Note on                 0, note 79, velocity 88
129:0   Note off                1, note 37, velocity 110
129:0   Note off                2, note 37, velocity 106
129:0   Note off                3, note 37, velocity 110
129:0   Note off                4, note 114, velocity 106
129:0   Note on                 4, note 115, velocity 106
129:0   Note off                0, note 79, velocity 106
129:0   Note on                 0, note 68, velocity 88
129:0   Note on                 1, note 37, velocity 110
129:0   Note on                 2, note 37, velocity 106
129:0   Note on                 3, note 37, velocity 110
129:0   Note off                4, note 115, velocity 106
129:0   Note on                 4, note 104, velocity 106
129:0   Note off                6, note 79, velocity 112
129:0   Note off                6, note 67, velocity 112
129:0   Note on                 6, note 76, velocity 112
129:0   Note on                 6, note 64, velocity 112
129:0   Note off                1, note 91, velocity 127
129:0   Note off                1, note 79, velocity 127
129:0   Note off                1, note 67, velocity 127
129:0   Note on                 1, note 88, velocity 60
129:0   Note on                 1, note 76, velocity 60
129:0   Note on                 1, note 64, velocity 60
129:0   Note off                5, note 91, velocity 127
129:0   Note off                5, note 79, velocity 127
129:0   Note on                 5, note 88, velocity 60
129:0   Note on                 5, note 76, velocity 60
129:0   Note off                0, note 68, velocity 106
129:0   Note on                 0, note 75, velocity 88
129:0   Note off                4, note 104, velocity 106
129:0   Note on                 4, note 111, velocity 106
129:0   Note off                0, note 75, velocity 106
129:0   Note on                 0, note 76, velocity 88
129:0   Note off                1, note 37, velocity 110
129:0   Note off                2, note 37, velocity 106
129:0   Note off                3, note 37, velocity 110
129:0   Note off                4, note 111, velocity 106
129:0   Note on                 4, note 112, velocity 106
129:0   Note off                0, note 76, velocity 106
129:0   Note on                 0, note 69, velocity 88
129:0   Note on                 1, note 37, velocity 110
129:0   Note on                 2, note 37, velocity 106
129:0   Note on                 3, note 37, velocity 110
129:0   Note off                4, note 112, velocity 106
129:0   Note on                 4, note 105, velocity 106
129:0   Note off                6, note 76, velocity 112
129:0   Note off                6, note 64, velocity 112
129:0   Note on                 6, note 85, velocity 112
129:0   Note on                 6, note 73, velocity 112
129:0   Note off                1, note 88, velocity 127
129:0   Note off                1, note 76, velocity 127
129:0   Note off                1, note 64, velocity 127
129:0   Note on                 1, note 97, velocity 62
129:0   Note on                 1, note 85, velocity 62
129:0   Note on                 1, note 73, velocity 62
129:0   Note off                5, note 88, velocity 127
129:0   Note off                5, note 76, velocity 127
129:0   Note on                 5, note 97, velocity 62
129:0   Note on                 5, note 85, velocity 62
129:0   Note off                0, note 69, velocity 106
129:0   Note on                 0, note 74, velocity 88
129:0   Note off                4, note 105, velocity 106
129:0   Note on                 4, note 110, velocity 106
129:0   Note off                0, note 74, velocity 106
129:0   Note on                 0, note 79, velocity 88
129:0   Note off                1, note 37, velocity 110
129:0   Note off                2, note 37, velocity 106
129:0   Note off                3, note 37, velocity 110
129:0   Note off                4, note 110, velocity 106
129:0   Note on                 4, note 115, velocity 106
129:0   Note off                0, note 79, velocity 106
129:0   Note on                 0, note 66, velocity 88
129:0   Note on                 1, note 37, velocity 110
129:0   Note on                 2, note 37, velocity 106
129:0   Note on                 3, note 37, velocity 110
129:0   Note off                4, note 115, velocity 106
129:0   Note on                 4, note 102, velocity 106
129:0   Note off                6, note 85, velocity 112
129:0   Note off                6, note 73, velocity 112
129:0   Note on                 6, note 87, velocity 112
129:0   Note on                 6, note 75, velocity 112
129:0   Note off                1, note 97, velocity 127
129:0   Note off                1, note 85, velocity 127
129:0   Note off                1, note 73, velocity 127
129:0   Note on                 1, note 99, velocity 62
129:0   Note on                 1, note 87, velocity 62
129:0   Note on                 1, note 75, velocity 62
129:0   Note off                5, note 97, velocity 127
129:0   Note off                5, note 85, velocity 127
129:0   Note on                 5, note 99, velocity 62
129:0   Note on                 5, note 87, velocity 62
129:0   Note off                0, note 66, velocity 106
129:0   Note on                 0, note 71, velocity 88
129:0   Note off                4, note 102, velocity 106
129:0   Note on                 4, note 107, velocity 106
129:0   Note off                0, note 71, velocity 106
129:0   Note on                 0, note 75, velocity 88
129:0   Note off                1, note 37, velocity 110
129:0   Note off                2, note 37, velocity 106
129:0   Note off                3, note 37, velocity 110
129:0   Note off                4, note 107, velocity 106
129:0   Note on                 4, note 111, velocity 106
129:0   Note off                0, note 75, velocity 106
129:0   Note on                 0, note 68, velocity 88
129:0   Note on                 1, note 37, velocity 110
129:0   Note on                 2, note 37, velocity 106
129:0   Note on                 3, note 37, velocity 110
129:0   Note off                4, note 111, velocity 106
129:0   Note on                 4, note 104, velocity 106
129:0   Note off                0, note 68, velocity 106
129:0   Note on                 0, note 73, velocity 88
129:0   Note off                4, note 104, velocity 106
129:0   Note on                 4, note 109, velocity 106
129:0   Note off                0, note 73, velocity 106
129:0   Note on                 0, note 77, velocity 88
129:0   Note off                1, note 37, velocity 110
129:0   Note off                2, note 37, velocity 106
129:0   Note off                3, note 37, velocity 110
129:0   Note off                4, note 109, velocity 106
129:0   Note on                 4, note 113, velocity 106
129:0   Note off                0, note 77, velocity 106
129:0   Note on                 0, note 70, velocity 88
129:0   Note on                 1, note 37, velocity 110
129:0   Note on                 2, note 37, velocity 106
129:0   Note on                 3, note 37, velocity 110
129:0   Note off                4, note 113, velocity 106
129:0   Note on                 4, note 106, velocity 106
129:0   Note off                0, note 70, velocity 106
129:0   Note on                 0, note 75, velocity 88
129:0   Note off                4, note 106, velocity 106
129:0   Note on                 4, note 111, velocity 106
129:0   Note off                0, note 75, velocity 106
129:0   Note on                 0, note 79, velocity 88
129:0   Note off                1, note 37, velocity 110
129:0   Note off                2, note 37, velocity 106
129:0   Note off                3, note 37, velocity 110
129:0   Note off                4, note 111, velocity 106
129:0   Note on                 4, note 115, velocity 106
129:0   Note off                0, note 79, velocity 106
129:0   Note on                 0, note 72, velocity 88
129:0   Note on                 1, note 37, velocity 110
129:0   Note on                 2, note 37, velocity 106
129:0   Note on                 3, note 37, velocity 110
129:0   Note off                4, note 115, velocity 106
129:0   Note on                 4, note 108, velocity 106
129:0   Note off                0, note 72, velocity 106
129:0   Note on                 0, note 77, velocity 88
129:0   Note off                4, note 108, velocity 106
129:0   Note on                 4, note 113, velocity 106
129:0   Note off                0, note 77, velocity 106
129:0   Note on                 0, note 81, velocity 88
129:0   Note off                1, note 37, velocity 110
129:0   Note off                2, note 37, velocity 106
129:0   Note off                3, note 37, velocity 110
129:0   Note off                4, note 113, velocity 106
129:0   Note on                 4, note 117, velocity 106
129:0   Note off                0, note 81, velocity 106
129:0   Note on                 0, note 76, velocity 88
129:0   Note on                 1, note 37, velocity 110
129:0   Note on                 2, note 37, velocity 106
129:0   Note on                 3, note 37, velocity 110
129:0   Note off                4, note 117, velocity 106
129:0   Note on                 4, note 112, velocity 106
129:0   Note off                0, note 76, velocity 106
129:0   Note on                 0, note 81, velocity 88
129:0   Note off                4, note 112, velocity 106
129:0   Note on                 4, note 117, velocity 106
129:0   Note off                0, note 81, velocity 106
129:0   Note on                 0, note 85, velocity 88
129:0   Note off                1, note 37, velocity 110
129:0   Note off                2, note 37, velocity 106
129:0   Note off                3, note 37, velocity 110
129:0   Note off                4, note 117, velocity 106
129:0   Note on                 4, note 121, velocity 106
129:0   Note off                0, note 85, velocity 106
129:0   Note on                 0, note 79, velocity 88
129:0   Note on                 1, note 37, velocity 110
129:0   Note on                 2, note 37, velocity 106
129:0   Note on                 3, note 37, velocity 110
129:0   Note off                4, note 121, velocity 106
129:0   Note on                 4, note 115, velocity 106
129:0   Note off                0, note 79, velocity 106
129:0   Note on                 0, note 80, velocity 88
129:0   Note off                4, note 115, velocity 106
129:0   Note on                 4, note 115, velocity 106
129:0   Note off                6, note 75, velocity 112
129:0   Note off                6, note 87, velocity 112
129:0   Note off                1, note 75, velocity 127
129:0   Note off                1, note 87, velocity 127
129:0   Note off                1, note 99, velocity 127
129:0   Note off                5, note 87, velocity 127
129:0   Note off                5, note 99, velocity 127
129:0   Note off                0, note 80, velocity 106
129:0   Note on                 0, note 81, velocity 88
129:0   Note off                1, note 37, velocity 110
129:0   Note off                2, note 37, velocity 106
129:0   Note off                3, note 37, velocity 110
129:0   Note off                4, note 115, velocity 106
129:0   Note on                 4, note 117, velocity 106
129:0   Note off                0, note 81, velocity 106
129:0   Note on                 0, note 70, velocity 88
129:0   Note on                 1, note 37, velocity 110
129:0   Note on                 2, note 37, velocity 106
129:0   Note on                 3, note 37, velocity 110
129:0   Note off                4, note 117, velocity 106
129:0   Note on                 4, note 106, velocity 106
129:0   Note on                 6, note 91, velocity 112
129:0   Note on                 6, note 79, velocity 112
129:0   Note on                 1, note 103, velocity 64
129:0   Note on                 1, note 91, velocity 64
129:0   Note on                 1, note 79, velocity 64
129:0   Note on                 5, note 103, velocity 64
129:0   Note on                 5, note 91, velocity 64
129:0   Note off                0, note 70, velocity 106
129:0   Note on                 0, note 78, velocity 88
129:0   Note off                4, note 106, velocity 106
129:0   Note on                 4, note 114, velocity 106
129:0   Note off                0, note 78, velocity 106
129:0   Note on                 0, note 80, velocity 88
129:0   Note off                1, note 37, velocity 110
129:0   Note off                2, note 37, velocity 106
129:0   Note off                3, note 37, velocity 110
129:0   Note off                4, note 114, velocity 106
129:0   Note on                 4, note 116, velocity 106
129:0   Note off                0, note 80, velocity 106
129:0   Note on                 0, note 73, velocity 88
129:0   Note on                 1, note 37, velocity 110
129:0   Note on                 2, note 37, velocity 106
129:0   Note on                 3, note 37, velocity 110
129:0   Note off                4, note 116, velocity 106
129:0   Note on                 4, note 109, velocity 106
129:0   Note off                6, note 91, velocity 112
129:0   Note off                6, note 79, velocity 112
129:0   Note on                 6, note 88, velocity 112
129:0   Note on                 6, note 76, velocity 112
129:0   Note off                1, note 103, velocity 127
129:0   Note off                1, note 91, velocity 127
129:0   Note off                1, note 79, velocity 127
129:0   Note on                 1, note 100, velocity 64
129:0   Note on                 1, note 88, velocity 64
129:0   Note on                 1, note 76, velocity 64
129:0   Note off                5, note 103, velocity 127
129:0   Note off                5, note 91, velocity 127
129:0   Note on                 5, note 100, velocity 64
129:0   Note on                 5, note 88, velocity 64
129:0   Note off                0, note 73, velocity 106
129:0   Note on                 0, note 75, velocity 88
129:0   Note off                4, note 109, velocity 106
129:0   Note on                 4, note 111, velocity 106
129:0   Note off                0, note 75, velocity 106
129:0   Note on                 0, note 76, velocity 88
129:0   Note off                1, note 37, velocity 110
129:0   Note off                2, note 37, velocity 106
129:0   Note off                3, note 37, velocity 110
129:0   Note off                4, note 111, velocity 106
129:0   Note on                 4, note 112, velocity 106
129:0   Note off                0, note 76, velocity 106
129:0   Note on                 0, note 70, velocity 88
129:0   Note on                 1, note 37, velocity 110
129:0   Note on                 2, note 37, velocity 106
129:0   Note on                 3, note 37, velocity 110
129:0   Note off                4, note 112, velocity 106
129:0   Note on                 4, note 106, velocity 106
129:0   Note off                6, note 88, velocity 112
129:0   Note off                6, note 76, velocity 112
129:0   Note on                 6, note 87, velocity 112
129:0   Note on                 6, note 75, velocity 112
129:0   Note off                1, note 100, velocity 127
129:0   Note off                1, note 88, velocity 127
129:0   Note off                1, note 76, velocity 127
129:0   Note on                 1, note 99, velocity 64
129:0   Note on                 1, note 87, velocity 64
129:0   Note on                 1, note 75, velocity 64
129:0   Note off                5, note 100, velocity 127
129:0   Note off                5, note 88, velocity 127
129:0   Note on                 5, note 99, velocity 64
129:0   Note on                 5, note 87, velocity 64
129:0   Note off                0, note 70, velocity 106
129:0   Note on                 0, note 74, velocity 88
129:0   Note off                4, note 106, velocity 106
129:0   Note on                 4, note 110, velocity 106
129:0   Note off                0, note 74, velocity 106
129:0   Note on                 0, note 67, velocity 88
129:0   Note off                1, note 37, velocity 110
129:0   Note off                2, note 37, velocity 106
129:0   Note off                3, note 37, velocity 110
129:0   Note off                4, note 110, velocity 106
129:0   Note on                 4, note 103, velocity 106
129:0   Note off                0, note 67, velocity 106
129:0   Note on                 0, note 66, velocity 88
129:0   Note on                 1, note 37, velocity 110
129:0   Note on                 2, note 37, velocity 106
129:0   Note on                 3, note 37, velocity 110
129:0   Note off                4, note 103, velocity 106
129:0   Note on                 4, note 102, velocity 106
129:0   Note off                6, note 87, velocity 112
129:0   Note off                6, note 75, velocity 112
129:0   Note on                 6, note 81, velocity 112
129:0   Note on                 6, note 69, velocity 112
129:0   Note off                1, note 99, velocity 127
129:0   Note off                1, note 87, velocity 127
129:0   Note off                1, note 75, velocity 127
129:0   Note on                 1, note 93, velocity 64
129:0   Note on                 1, note 81, velocity 64
129:0   Note on                 1, note 69, velocity 64
129:0   Note off                5, note 99, velocity 127
129:0   Note off                5, note 87, velocity 127
129:0   Note on                 5, note 93, velocity 64
129:0   Note on                 5, note 81, velocity 64
129:0   Note off                0, note 66, velocity 106
129:0   Note on                 0, note 71, velocity 88
129:0   Note off                4, note 102, velocity 106
129:0   Note on                 4, note 107, velocity 106
129:0   Note off                0, note 71, velocity 106
129:0   Note on                 0, note 75, velocity 88
129:0   Note off                1, note 37, velocity 110
129:0   Note off                2, note 37, velocity 106
129:0   Note off                3, note 37, velocity 110
129:0   Note off                4, note 107, velocity 106
129:0   Note on                 4, note 111, velocity 106
129:0   Note off                0, note 75, velocity 106
129:0   Note on                 0, note 68, velocity 88
129:0   Note on                 1, note 37, velocity 110
129:0   Note on                 2, note 37, velocity 106
129:0   Note on                 3, note 37, velocity 110
129:0   Note off                4, note 111, velocity 106
129:0   Note on                 4, note 104, velocity 106
129:0   Note off                6, note 81, velocity 112
129:0   Note off                6, note 69, velocity 112
129:0   Note on                 6, note 80, velocity 112
129:0   Note on                 6, note 68, velocity 112
129:0   Note off                1, note 93, velocity 127
129:0   Note off                1, note 81, velocity 127
129:0   Note off                1, note 69, velocity 127
129:0   Note on                 1, note 92, velocity 64
129:0   Note on                 1, note 80, velocity 64
129:0   Note on                 1, note 68, velocity 64
129:0   Note off                5, note 93, velocity 127
129:0   Note off                5, note 81, velocity 127
129:0   Note on                 5, note 92, velocity 64
129:0   Note on                 5, note 80, velocity 64
129:0   Note off                0, note 68, velocity 106
129:0   Note on                 0, note 73, velocity 88
129:0   Note off                4, note 104, velocity 106
129:0   Note on                 4, note 109, velocity 106
129:0   Note off                0, note 73, velocity 106
129:0   Note on                 0, note 77, velocity 88
129:0   Note off                1, note 37, velocity 110
129:0   Note off                2, note 37, velocity 106
129:0   Note off                3, note 37, velocity 110
129:0   Note off                4, note 109, velocity 106
129:0   Note on                 4, note 113, velocity 106
129:0   Note off                0, note 77, velocity 106
129:0   Note on                 0, note 70, velocity 88
129:0   Note on                 1, note 37, velocity 110
129:0   Note on                 2, note 37, velocity 106
129:0   Note on                 3, note 37, velocity 110
129:0   Note off                4, note 113, velocity 106
129:0   Note on                 4, note 106, velocity 106
129:0   Note off                6, note 80, velocity 112
129:0   Note off                6, note 68, velocity 112
129:0   Note on                 6, note 79, velocity 112
129:0   Note on                 6, note 67, velocity 112
129:0   Note off                1, note 92, velocity 127
129:0   Note off                1, note 80, velocity 127
129:0   Note off                1, note 68, velocity 127
129:0   Note on                 1, note 91, velocity 64
129:0   Note on                 1, note 79, velocity 64
129:0   Note on                 1, note 67, velocity 64
129:0   Note off                5, note 92, velocity 127
129:0   Note off                5, note 80, velocity 127
129:0   Note on                 5, note 91, velocity 64
129:0   Note on                 5, note 79, velocity 64
129:0   Note off                0, note 70, velocity 106
129:0   Note on                 0, note 75, velocity 88
129:0   Note off                4, note 106, velocity 106
129:0   Note on                 4, note 111, velocity 106
129:0   Note off                0, note 75, velocity 106
129:0   Note on                 0, note 79, velocity 88
129:0   Note off                1, note 37, velocity 110
129:0   Note off                2, note 37, velocity 106
129:0   Note off                3, note 37, velocity 110
129:0   Note off                4, note 111, velocity 106
129:0   Note on                 4, note 115, velocity 106
129:0   Note off                0, note 79, velocity 106
129:0   Note on                 0, note 72, velocity 88
129:0   Note on                 1, note 37, velocity 110
129:0   Note on                 2, note 37, velocity 106
129:0   Note on                 3, note 37, velocity 110
129:0   Note off                4, note 115, velocity 106
129:0   Note on                 4, note 108, velocity 106
129:0   Note off                6, note 79, velocity 112
129:0   Note off                6, note 67, velocity 112
129:0   Note on                 6, note 76, velocity 112
129:0   Note on                 6, note 64, velocity 112
129:0   Note off                1, note 91, velocity 127
129:0   Note off                1, note 79, velocity 127
129:0   Note off                1, note 67, velocity 127
129:0   Note on                 1, note 88, velocity 66
129:0   Note on                 1, note 76, velocity 66
129:0   Note on                 1, note 64, velocity 66
129:0   Note off                5, note 91, velocity 127
129:0   Note off                5, note 79, velocity 127
129:0   Note on                 5, note 88, velocity 66
129:0   Note on                 5, note 76, velocity 66
129:0   Note off                0, note 72, velocity 106
129:0   Note on                 0, note 77, velocity 88
129:0   Note off                4, note 108, velocity 106
129:0   Note on                 4, note 113, velocity 106
129:0   Note off                0, note 77, velocity 106
129:0   Note on                 0, note 81, velocity 88
129:0   Note off                1, note 37, velocity 110
129:0   Note off                2, note 37, velocity 106
129:0   Note off                3, note 37, velocity 110
129:0   Note off                4, note 113, velocity 106
129:0   Note on                 4, note 117, velocity 106
129:0   Note off                0, note 81, velocity 106
129:0   Note on                 0, note 76, velocity 88
129:0   Note on                 1, note 37, velocity 110
129:0   Note on                 2, note 37, velocity 106
129:0   Note on                 3, note 37, velocity 110
129:0   Note off                4, note 117, velocity 106
129:0   Note on                 4, note 112, velocity 106
129:0   Note off                6, note 76, velocity 112
129:0   Note off                6, note 64, velocity 112
129:0   Note on                 6, note 85, velocity 112
129:0   Note on                 6, note 73, velocity 112
129:0   Note off                1, note 88, velocity 127
129:0   Note off                1, note 76, velocity 127
129:0   Note off                1, note 64, velocity 127
129:0   Note on                 1, note 97, velocity 66
129:0   Note on                 1, note 85, velocity 66
129:0   Note on                 1, note 73, velocity 66
129:0   Note off                5, note 88, velocity 127
129:0   Note off                5, note 76, velocity 127
129:0   Note on                 5, note 97, velocity 66
129:0   Note on                 5, note 85, velocity 66
129:0   Note off                0, note 76, velocity 106
129:0   Note on                 0, note 81, velocity 88
129:0   Note off                4, note 112, velocity 106
129:0   Note on                 4, note 117, velocity 106
129:0   Note off                0, note 81, velocity 106
129:0   Note on                 0, note 85, velocity 88
129:0   Note off                1, note 37, velocity 110
129:0   Note off                2, note 37, velocity 106
129:0   Note off                3, note 37, velocity 110
129:0   Note off                4, note 117, velocity 106
129:0   Note on                 4, note 121, velocity 106
129:0   Note off                0, note 85, velocity 106
129:0   Note on                 0, note 76, velocity 88
129:0   Note on                 1, note 37, velocity 110
129:0   Note on                 2, note 37, velocity 106
129:0   Note on                 3, note 37, velocity 110
129:0   Note off                4, note 121, velocity 106
129:0   Note on                 4, note 112, velocity 106
129:0   Note off                6, note 85, velocity 112
129:0   Note off                6, note 73, velocity 112
129:0   Note on                 6, note 87, velocity 112
129:0   Note on                 6, note 75, velocity 112
129:0   Note off                1, note 97, velocity 127
129:0   Note off                1, note 85, velocity 127
129:0   Note off                1, note 73, velocity 127
129:0   Note on                 1, note 99, velocity 66
129:0   Note on                 1, note 87, velocity 66
129:0   Note on                 1, note 75, velocity 66
129:0   Note off                5, note 97, velocity 127
129:0   Note off                5, note 85, velocity 127
129:0   Note on                 5, note 99, velocity 66
129:0   Note on                 5, note 87, velocity 66
129:0   Note off                0, note 76, velocity 106
129:0   Note on                 0, note 80, velocity 88
129:0   Note off                4, note 112, velocity 106
129:0   Note on                 4, note 116, velocity 106
129:0   Note off                0, note 80, velocity 106
129:0   Note on                 0, note 69, velocity 88
129:0   Note off                1, note 37, velocity 110
129:0   Note off                2, note 37, velocity 106
129:0   Note off                3, note 37, velocity 110
129:0   Note off                4, note 116, velocity 106
129:0   Note on                 4, note 105, velocity 106
129:0   Note off                0, note 69, velocity 106
129:0   Note on                 0, note 70, velocity 88
129:0   Note on                 1, note 37, velocity 110
129:0   Note on                 2, note 37, velocity 106
129:0   Note on                 3, note 37, velocity 110
129:0   Note off                4, note 105, velocity 106
129:0   Note on                 4, note 106, velocity 106
129:0   Note off                0, note 70, velocity 106
129:0   Note on                 0, note 78, velocity 88
129:0   Note off                4, note 106, velocity 106
129:0   Note on                 4, note 114, velocity 106
129:0   Note off                0, note 78, velocity 106
129:0   Note on                 0, note 79, velocity 88
129:0   Note off                1, note 37, velocity 110
129:0   Note off                2, note 37, velocity 106
129:0   Note off                3, note 37, velocity 110
129:0   Note off                4, note 114, velocity 106
129:0   Note on                 4, note 115, velocity 106
129:0   Note off                0, note 79, velocity 106
129:0   Note on                 0, note 68, velocity 88
129:0   Note on                 1, note 37, velocity 110
129:0   Note on                 2, note 37, velocity 106
129:0   Note on                 3, note 37, velocity 110
129:0   Note off                4, note 115, velocity 106
129:0   Note on                 4, note 104, velocity 106
129:0   Note off                0, note 68, velocity 106
129:0   Note on                 0, note 75, velocity 88
129:0   Note off                4, note 104, velocity 106
129:0   Note on                 4, note 111, velocity 106
129:0   Note off                0, note 75, velocity 106
129:0   Note on                 0, note 76, velocity 88
129:0   Note off                1, note 37, velocity 110
129:0   Note off                2, note 37, velocity 106
129:0   Note off                3, note 37, velocity 110
129:0   Note off                4, note 111, velocity 106
129:0   Note on                 4, note 112, velocity 106
129:0   Note off                0, note 76, velocity 106
129:0   Note on                 0, note 69, velocity 88
129:0   Note on                 1, note 37, velocity 110
129:0   Note on                 2, note 37, velocity 106
129:0   Note on                 3, note 37, velocity 110
129:0   Note off                4, note 112, velocity 106
129:0   Note on                 4, note 105, velocity 106
129:0   Note off                0, note 69, velocity 106
129:0   Note on                 0, note 74, velocity 88
129:0   Note off                4, note 105, velocity 106
129:0   Note on                 4, note 110, velocity 106
129:0   Note off                0, note 74, velocity 106
129:0   Note on                 0, note 79, velocity 88
129:0   Note off                1, note 37, velocity 110
129:0   Note off                2, note 37, velocity 106
129:0   Note off                3, note 37, velocity 110
129:0   Note off                4, note 110, velocity 106
129:0   Note on                 4, note 115, velocity 106
129:0   Note off                0, note 79, velocity 106
129:0   Note on                 0, note 66, velocity 88
129:0   Note on                 1, note 37, velocity 110
129:0   Note on                 2, note 37, velocity 106
129:0   Note on                 3, note 37, velocity 110
129:0   Note off                4, note 115, velocity 106
129:0   Note on                 4, note 102, velocity 106
129:0   Note off                0, note 66, velocity 106
129:0   Note on                 0, note 71, velocity 88
129:0   Note off                4, note 102, velocity 106
129:0   Note on                 4, note 107, velocity 106
129:0   Note off                0, note 71, velocity 106
129:0   Note on                 0, note 75, velocity 88
129:0   Note off                1, note 37, velocity 110
129:0   Note off                2, note 37, velocity 106
129:0   Note off                3, note 37, velocity 110
129:0   Note off                4, note 107, velocity 106
129:0   Note on                 4, note 111, velocity 106
129:0   Note off                0, note 75, velocity 106
129:0   Note on                 0, note 68, velocity 88
129:0   Note on                 1, note 37, velocity 110
129:0   Note on                 2, note 37, velocity 106
129:0   Note on                 3, note 37, velocity 110
129:0   Note off                4, note 111, velocity 106
129:0   Note on                 4, note 104, velocity 106
129:0   Note off                0, note 68, velocity 106
129:0   Note on                 0, note 73, velocity 88
129:0   Note off                4, note 104, velocity 106
129:0   Note on                 4, note 109, velocity 106
129:0   Note off                6, note 75, velocity 112
129:0   Note off                6, note 87, velocity 112
129:0   Note off                1, note 75, velocity 127
129:0   Note off                1, note 87, velocity 127
129:0   Note off                1, note 99, velocity 127
129:0   Note off                5, note 87, velocity 127
129:0   Note off                5, note 99, velocity 127
129:0   Note off                0, note 73, velocity 106
129:0   Note on                 0, note 77, velocity 88
129:0   Note off                1, note 37, velocity 110
129:0   Note off                2, note 37, velocity 106
129:0   Note off                3, note 37, velocity 110
129:0   Note off                4, note 109, velocity 106
129:0   Note on                 4, note 113, velocity 106
129:0   Note off                0, note 77, velocity 106
129:0   Note on                 0, note 70, velocity 88
129:0   Note on                 1, note 37, velocity 110
129:0   Note on                 2, note 37, velocity 106
129:0   Note on                 3, note 37, velocity 110
129:0   Note off                4, note 113, velocity 106
129:0   Note on                 4, note 106, velocity 106
129:0   Note on                 6, note 91, velocity 112
129:0   Note on                 6, note 79, velocity 112
129:0   Note on                 1, note 103, velocity 68
129:0   Note on                 1, note 91, velocity 68
129:0   Note on                 1, note 79, velocity 68
129:0   Note on                 5, note 103, velocity 68
129:0   Note on                 5, note 91, velocity 68
129:0   Note off                0, note 70, velocity 106
129:0   Note on                 0, note 75, velocity 88
129:0   Note off                4, note 106, velocity 106
129:0   Note on                 4, note 111, velocity 106
129:0   Note off                0, note 75, velocity 106
129:0   Note on                 0, note 79, velocity 88
129:0   Note off                1, note 37, velocity 110
129:0   Note off                2, note 37, velocity 106
129:0   Note off                3, note 37, velocity 110
129:0   Note off                4, note 111, velocity 106
129:0   Note on                 4, note 115, velocity 106
129:0   Note off                0, note 79, velocity 106
129:0   Note on                 0, note 72, velocity 88
129:0   Note on                 1, note 37, velocity 110
129:0   Note on                 2, note 37, velocity 106
129:0   Note on                 3, note 37, velocity 110
129:0   Note off                4, note 115, velocity 106
129:0   Note on                 4, note 108, velocity 106
129:0   Note off                6, note 91, velocity 112
129:0   Note off                6, note 79, velocity 112
129:0   Note on                 6, note 88, velocity 112
129:0   Note on                 6, note 76, velocity 112
129:0   Note off                1, note 103, velocity 127
129:0   Note off                1, note 91, velocity 127
129:0   Note off                1, note 79, velocity 127
129:0   Note on                 1, note 100, velocity 68
129:0   Note on                 1, note 88, velocity 68
129:0   Note on                 1, note 76, velocity 68
129:0   Note off                5, note 103, velocity 127
129:0   Note off                5, note 91, velocity 127
129:0   Note on                 5, note 100, velocity 68
129:0   Note on                 5, note 88, velocity 68
129:0   Note off                0, note 72, velocity 106
129:0   Note on                 0, note 77, velocity 88
129:0   Note off                4, note 108, velocity 106
129:0   Note on                 4, note 113, velocity 106
129:0   Note off                0, note 77, velocity 106
129:0   Note on                 0, note 81, velocity 88
129:0   Note off                1, note 37, velocity 110
129:0   Note off                2, note 37, velocity 106
129:0   Note off                3, note 37, velocity 110
129:0   Note off                4, note 113, velocity 106
129:0   Note on                 4, note 117, velocity 106
129:0   Note off                0, note 81, velocity 106
129:0   Note on                 0, note 76, velocity 88
129:0   Note on                 1, note 37, velocity 110
129:0   Note on                 2, note 37, velocity 106
129:0   Note on                 3, note 37, velocity 110
129:0   Note off                4, note 117, velocity 106
129:0   Note on                 4, note 112, velocity 106
129:0   Note off                6, note 88, velocity 112
129:0   Note off                6, note 76, velocity 112
129:0   Note on                 6, note 87, velocity 112
129:0   Note on                 6, note 75, velocity 112
129:0   Note off                1, note 100, velocity 127
129:0   Note off                1, note 88, velocity 127
129:0   Note off                1, note 76, velocity 127
129:0   Note on                 1, note 99, velocity 68
129:0   Note on                 1, note 87, velocity 68
129:0   Note on                 1, note 75, velocity 68
129:0   Note off                5, note 100, velocity 127
129:0   Note off                5, note 88, velocity 127
129:0   Note on                 5, note 99, velocity 68
129:0   Note on                 5, note 87, velocity 68
129:0   Note off                0, note 76, velocity 106
129:0   Note on                 0, note 81, velocity 88
129:0   Note off                4, note 112, velocity 106
129:0   Note on                 4, note 117, velocity 106
129:0   Note off                0, note 81, velocity 106
129:0   Note on                 0, note 85, velocity 88
129:0   Note off                1, note 37, velocity 110
129:0   Note off                2, note 37, velocity 106
129:0   Note off                3, note 37, velocity 110
129:0   Note off                4, note 117, velocity 106
129:0   Note on                 4, note 121, velocity 106
129:0   Note off                0, note 85, velocity 106
129:0   Note on                 0, note 79, velocity 88
129:0   Note on                 1, note 37, velocity 110
129:0   Note on                 2, note 37, velocity 106
129:0   Note on                 3, note 37, velocity 110
129:0   Note off                4, note 121, velocity 106
129:0   Note on                 4, note 115, velocity 106
129:0   Note off                6, note 87, velocity 112
129:0   Note off                6, note 75, velocity 112
129:0   Note on                 6, note 81, velocity 112
129:0   Note on                 6, note 69, velocity 112
129:0   Note off                1, note 99, velocity 127
129:0   Note off                1, note 87, velocity 127
129:0   Note off                1, note 75, velocity 127
129:0   Note on                 1, note 93, velocity 68
129:0   Note on                 1, note 81, velocity 68
129:0   Note on                 1, note 69, velocity 68
129:0   Note off                5, note 99, velocity 127
129:0   Note off                5, note 87, velocity 127
129:0   Note on                 5, note 93, velocity 68
129:0   Note on                 5, note 81, velocity 68
129:0   Note off                0, note 79, velocity 106
129:0   Note on                 0, note 80, velocity 88
129:0   Note off                4, note 115, velocity 106
129:0   Note on                 4, note 115, velocity 106
129:0   Note off                0, note 80, velocity 106
129:0   Note on                 0, note 81, velocity 88
129:0   Note off                1, note 37, velocity 110
129:0   Note off                2, note 37, velocity 106
129:0   Note off                3, note 37, velocity 110
129:0   Note off                4, note 115, velocity 106
129:0   Note on                 4, note 117, velocity 106
129:0   Note off                0, note 81, velocity 106
129:0   Note on                 0, note 70, velocity 88
129:0   Note on                 1, note 37, velocity 110
129:0   Note on                 2, note 37, velocity 106
129:0   Note on                 3, note 37, velocity 110
129:0   Note off                4, note 117, velocity 106
129:0   Note on                 4, note 106, velocity 106
129:0   Note off                6, note 81, velocity 112
129:0   Note off                6, note 69, velocity 112
129:0   Note on                 6, note 80, velocity 112
129:0   Note on                 6, note 68, velocity 112
129:0   Note off                1, note 93, velocity 127
129:0   Note off                1, note 81, velocity 127
129:0   Note off                1, note 69, velocity 127
129:0   Note on                 1, note 92, velocity 68
129:0   Note on                 1, note 80, velocity 68
129:0   Note on                 1, note 68, velocity 68
129:0   Note off                5, note 93, velocity 127
129:0   Note off                5, note 81, velocity 127
129:0   Note on                 5, note 92, velocity 68
129:0   Note on                 5, note 80, velocity 68
129:0   Note off                0, note 70, velocity 106
129:0   Note on                 0, note 78, velocity 88
129:0   Note off                4, note 106, velocity 106
129:0   Note on                 4, note 114, velocity 106
129:0   Note off                0, note 78, velocity 106
129:0   Note on                 0, note 80, velocity 88
129:0   Note off                1, note 37, velocity 110
129:0   Note off                2, note 37, velocity 106
129:0   Note off                3, note 37, velocity 110
129:0   Note off                4, note 114, velocity 106
129:0   Note on                 4, note 116, velocity 106
129:0   Note off                0, note 80, velocity 106
129:0   Note on                 0, note 73, velocity 88
129:0   Note on                 1, note 37, velocity 110
129:0   Note on                 2, note 37, velocity 106
129:0   Note on                 3, note 37, velocity 110
129:0   Note off                4, note 116, velocity 106
129:0   Note on                 4, note 109, velocity 106
129:0   Note off                6, note 80, velocity 112
129:0   Note off                6, note 68, velocity 112
129:0   Note on                 6, note 79, velocity 112
129:0   Note on                 6, note 67, velocity 112
129:0   Note off                1, note 92, velocity 127
129:0   Note off                1, note 80, velocity 127
129:0   Note off                1, note 68, velocity 127
129:0   Note on                 1, note 91, velocity 70
129:0   Note on                 1, note 79, velocity 70
129:0   Note on                 1, note 67, velocity 70
129:0   Note off                5, note 92, velocity 127
129:0   Note off                5, note 80, velocity 127
129:0   Note on                 5, note 91, velocity 70
129:0   Note on                 5, note 79, velocity 70
129:0   Note off                0, note 73, velocity 106
129:0   Note on                 0, note 75, velocity 88
129:0   Note off                4, note 109, velocity 106
129:0   Note on                 4, note 111, velocity 106
129:0   Note off                0, note 75, velocity 106
129:0   Note on                 0, note 76, velocity 88
129:0   Note off                1, note 37, velocity 110
129:0   Note off                2, note 37, velocity 106
129:0   Note off                3, note 37, velocity 110
129:0   Note off                4, note 111, velocity 106
129:0   Note on                 4, note 112, velocity 106
129:0   Note off                0, note 76, velocity 106
129:0   Note on                 0, note 70, velocity 88
129:0   Note on                 1, note 37, velocity 110
129:0   Note on                 2, note 37, velocity 106
129:0   Note on                 3, note 37, velocity 110
129:0   Note off                4, note 112, velocity 106
129:0   Note on                 4, note 106, velocity 106
129:0   Note off                6, note 79, velocity 112
129:0   Note off                6, note 67, velocity 112
129:0   Note on                 6, note 76, velocity 112
129:0   Note on                 6, note 64, velocity 112
129:0   Note off                1, note 91, velocity 127
129:0   Note off                1, note 79, velocity 127
129:0   Note off                1, note 67, velocity 127
129:0   Note on                 1, note 88, velocity 70
129:0   Note on                 1, note 76, velocity 70
129:0   Note on                 1, note 64, velocity 70
129:0   Note off                5, note 91, velocity 127
129:0   Note off                5, note 79, velocity 127
129:0   Note on                 5, note 88, velocity 70
129:0   Note on                 5, note 76, velocity 70
129:0   Note off                0, note 70, velocity 106
129:0   Note on                 0, note 74, velocity 88
129:0   Note off                4, note 106, velocity 106
129:0   Note on                 4, note 110, velocity 106
129:0   Note off                0, note 74, velocity 106
129:0   Note on                 0, note 67, velocity 88
129:0   Note off                1, note 37, velocity 110
129:0   Note off                2, note 37, velocity 106
129:0   Note off                3, note 37, velocity 110
129:0   Note off                4, note 110, velocity 106
129:0   Note on                 4, note 103, velocity 106
129:0   Note off                0, note 67, velocity 106
129:0   Note on                 0, note 66, velocity 88
129:0   Note on                 1, note 37, velocity 110
129:0   Note on                 2, note 37, velocity 106
129:0   Note on                 3, note 37, velocity 110
129:0   Note off                4, note 103, velocity 106
129:0   Note on                 4, note 102, velocity 106
129:0   Note off                6, note 76, velocity 112
129:0   Note off                6, note 64, velocity 112
129:0   Note on                 6, note 85, velocity 112
129:0   Note on                 6, note 73, velocity 112
129:0   Note off                1, note 88, velocity 127
129:0   Note off                1, note 76, velocity 127
129:0   Note off                1, note 64, velocity 127
129:0   Note on                 1, note 97, velocity 70
129:0   Note on                 1, note 85, velocity 70
129:0   Note on                 1, note 73, velocity 70
129:0   Note off                5, note 88, velocity 127
129:0   Note off                5, note 76, velocity 127
129:0   Note on                 5, note 97, velocity 70
129:0   Note on                 5, note 85, velocity 70
129:0   Note off                0, note 66, velocity 106
129:0   Note on                 0, note 71, velocity 88
129:0   Note off                4, note 102, velocity 106
129:0   Note on                 4, note 107, velocity 106
129:0   Note off                0, note 71, velocity 106
129:0   Note on                 0, note 75, velocity 88
129:0   Note off                1, note 37, velocity 110
129:0   Note off                2, note 37, velocity 106
129:0   Note off                3, note 37, velocity 110
129:0   Note off                4, note 107, velocity 106
129:0   Note on                 4, note 111, velocity 106
129:0   Note off                0, note 75, velocity 106
129:0   Note on                 0, note 68, velocity 88
129:0   Note on                 1, note 37, velocity 110
129:0   Note on                 2, note 37, velocity 106
129:0   Note on                 3, note 37, velocity 110
129:0   Note off                4, note 111, velocity 106
129:0   Note on                 4, note 104, velocity 106
129:0   Note off                6, note 85, velocity 112
129:0   Note off                6, note 73, velocity 112
129:0   Note on                 6, note 87, velocity 112
129:0   Note on                 6, note 75, velocity 112
129:0   Note off                1, note 97, velocity 127
129:0   Note off                1, note 85, velocity 127
129:0   Note off                1, note 73, velocity 127
129:0   Note on                 1, note 99, velocity 70
129:0   Note on                 1, note 87, velocity 70
129:0   Note on                 1, note 75, velocity 70
129:0   Note off                5, note 97, velocity 127
129:0   Note off                5, note 85, velocity 127
129:0   Note on                 5, note 99, velocity 70
129:0   Note on                 5, note 87, velocity 70
129:0   Note off                0, note 68, velocity 106
129:0   Note on                 0, note 73, velocity 88
129:0   Note off                4, note 104, velocity 106
129:0   Note on                 4, note 109, velocity 106
129:0   Note off                0, note 73, velocity 106
129:0   Note on                 0, note 77, velocity 88
129:0   Note off                1, note 37, velocity 110
129:0   Note off                2, note 37, velocity 106
129:0   Note off                3, note 37, velocity 110
129:0   Note off                4, note 109, velocity 106
129:0   Note on                 4, note 113, velocity 106
129:0   Note off                0, note 77, velocity 106
129:0   Note on                 0, note 70, velocity 88
129:0   Note on                 1, note 37, velocity 110
129:0   Note on                 2, note 37, velocity 106
129:0   Note on                 3, note 37, velocity 110
129:0   Note off                4, note 113, velocity 106
129:0   Note on                 4, note 106, velocity 106
129:0   Note off                0, note 70, velocity 106
129:0   Note on                 0, note 75, velocity 88
129:0   Note off                4, note 106, velocity 106
129:0   Note on                 4, note 111, velocity 106
129:0   Note off                0, note 75, velocity 106
129:0   Note on                 0, note 79, velocity 88
129:0   Note off                1, note 37, velocity 110
129:0   Note off                2, note 37, velocity 106
129:0   Note off                3, note 37, velocity 110
129:0   Note off                4, note 111, velocity 106
129:0   Note on                 4, note 115, velocity 106
129:0   Note off                0, note 79, velocity 106
129:0   Note on                 0, note 72, velocity 88
129:0   Note on                 1, note 37, velocity 110
129:0   Note on                 2, note 37, velocity 106
129:0   Note on                 3, note 37, velocity 110
129:0   Note off                4, note 115, velocity 106
129:0   Note on                 4, note 108, velocity 106
129:0   Note off                0, note 72, velocity 106
129:0   Note on                 0, note 77, velocity 88
129:0   Note off                4, note 108, velocity 106
129:0   Note on                 4, note 113, velocity 106
129:0   Note off                0, note 77, velocity 106
129:0   Note on                 0, note 81, velocity 88
129:0   Note off                1, note 37, velocity 110
129:0   Note off                2, note 37, velocity 106
129:0   Note off                3, note 37, velocity 110
129:0   Note off                4, note 113, velocity 106
129:0   Note on                 4, note 117, velocity 106
129:0   Note off                0, note 81, velocity 106
129:0   Note on                 0, note 76, velocity 88
129:0   Note on                 1, note 37, velocity 110
129:0   Note on                 2, note 37, velocity 106
129:0   Note on                 3, note 37, velocity 110
129:0   Note off                4, note 117, velocity 106
129:0   Note on                 4, note 112, velocity 106
129:0   Note off                0, note 76, velocity 106
129:0   Note on                 0, note 81, velocity 88
129:0   Note off                4, note 112, velocity 106
129:0   Note on                 4, note 117, velocity 106
129:0   Note off                0, note 81, velocity 106
129:0   Note on                 0, note 85, velocity 88
129:0   Note off                1, note 37, velocity 110
129:0   Note off                2, note 37, velocity 106
129:0   Note off                3, note 37, velocity 110
129:0   Note off                4, note 117, velocity 106
129:0   Note on                 4, note 121, velocity 106
129:0   Note off                0, note 85, velocity 106
129:0   Note on                 0, note 76, velocity 88
129:0   Note on                 1, note 37, velocity 110
129:0   Note on                 2, note 37, velocity 106
129:0   Note on                 3, note 37, velocity 110
129:0   Note off                4, note 121, velocity 106
129:0   Note on                 4, note 112, velocity 106
129:0   Note off                0, note 76, velocity 106
129:0   Note on                 0, note 80, velocity 88
129:0   Note off                4, note 112, velocity 106
129:0   Note on                 4, note 116, velocity 106
129:0   Note off                0, note 80, velocity 106
129:0   Note on                 0, note 69, velocity 88
129:0   Note off                1, note 37, velocity 110
129:0   Note off                2, note 37, velocity 106
129:0   Note off                3, note 37, velocity 110
129:0   Note off                4, note 116, velocity 106
129:0   Note on                 4, note 105, velocity 106
129:0   Note off                0, note 69, velocity 106
129:0   Note on                 0, note 70, velocity 88
129:0   Note on                 1, note 37, velocity 110
129:0   Note on                 2, note 37, velocity 106
129:0   Note on                 3, note 37, velocity 110
129:0   Note off                4, note 105, velocity 106
129:0   Note on                 4, note 106, velocity 106
129:0   Note off                0, note 70, velocity 106
129:0   Note on                 0, note 78, velocity 88
129:0   Note off                4, note 106, velocity 106
129:0   Note on                 4, note 114, velocity 106
129:0   Note off                6, note 75, velocity 112
129:0   Note off                6, note 87, velocity 112
129:0   Note off                1, note 75, velocity 127
129:0   Note off                1, note 87, velocity 127
129:0   Note off                1, note 99, velocity 127
129:0   Note off                5, note 87, velocity 127
129:0   Note off                5, note 99, velocity 127
129:0   Note off                0, note 78, velocity 106
129:0   Note on                 0, note 79, velocity 88
129:0   Note off                1, note 37, velocity 110
129:0   Note off                2, note 37, velocity 106
129:0   Note off                3, note 37, velocity 110
129:0   Note off                4, note 114, velocity 106
129:0   Note on                 4, note 115, velocity 106
129:0   Note off                0, note 79, velocity 106
129:0   Note on                 0, note 68, velocity 88
129:0   Note on                 1, note 37, velocity 110
129:0   Note on                 2, note 37, velocity 106
129:0   Note on                 3, note 37, velocity 110
129:0   Note off                4, note 115, velocity 106
129:0   Note on                 4, note 104, velocity 106
129:0   Note on                 6, note 91, velocity 112
129:0   Note on                 6, note 79, velocity 112
129:0   Note on                 1, note 103, velocity 72
129:0   Note on                 1, note 91, velocity 72
129:0   Note on                 1, note 79, velocity 72
129:0   Note on                 5, note 103, velocity 72
129:0   Note on                 5, note 91, velocity 72
129:0   Note off                0, note 68, velocity 106
129:0   Note on                 0, note 75, velocity 88
129:0   Note off                4, note 104, velocity 106
129:0   Note on                 4, note 111, velocity 106
129:0   Note off                0, note 75, velocity 106
129:0   Note on                 0, note 76, velocity 88
129:0   Note off                1, note 37, velocity 110
129:0   Note off                2, note 37, velocity 106
129:0   Note off                3, note 37, velocity 110
129:0   Note off                4, note 111, velocity 106
129:0   Note on                 4, note 112, velocity 106
129:0   Note off                0, note 76, velocity 106
129:0   Note on                 0, note 69, velocity 88
129:0   Note on                 1, note 37, velocity 110
129:0   Note on                 2, note 37, velocity 106
129:0   Note on                 3, note 37, velocity 110
129:0   Note off                4, note 112, velocity 106
129:0   Note on                 4, note 105, velocity 106
129:0   Note off                6, note 91, velocity 112
129:0   Note off                6, note 79, velocity 112
129:0   Note on                 6, note 88, velocity 112
129:0   Note on                 6, note 76, velocity 112
129:0   Note off                1, note 103, velocity 127
129:0   Note off                1, note 91, velocity 127
129:0   Note off                1, note 79, velocity 127
129:0   Note on                 1, note 100, velocity 72
129:0   Note on                 1, note 88, velocity 72
129:0   Note on                 1, note 76, velocity 72
129:0   Note off                5, note 103, velocity 127
129:0   Note off                5, note 91, velocity 127
129:0   Note on                 5, note 100, velocity 72
129:0   Note on                 5, note 88, velocity 72
129:0   Note off                0, note 69, velocity 106
129:0   Note on                 0, note 74, velocity 88
129:0   Note off                4, note 105, velocity 106
129:0   Note on                 4, note 110, velocity 106
129:0   Note off                0, note 74, velocity 106
129:0   Note on                 0, note 79, velocity 88
129:0   Note off                1, note 37, velocity 110
129:0   Note off                2, note 37, velocity 106
129:0   Note off                3, note 37, velocity 110
129:0   Note off                4, note 110, velocity 106
129:0   Note on                 4, note 115, velocity 106
129:0   Note off                0, note 79, velocity 106
129:0   Note on                 0, note 66, velocity 88
129:0   Note on                 1, note 37, velocity 110
129:0   Note on                 2, note 37, velocity 106
129:0   Note on                 3, note 37, velocity 110
129:0   Note off                4, note 115, velocity 106
129:0   Note on                 4, note 102, velocity 106
129:0   Note off                6, note 88, velocity 112
129:0   Note off                6, note 76, velocity 112
129:0   Note on                 6, note 87, velocity 112
129:0   Note on                 6, note 75, velocity 112
129:0   Note off                1, note 100, velocity 127
129:0   Note off                1, note 88, velocity 127
129:0   Note off                1, note 76, velocity 127
129:0   Note on                 1, note 99, velocity 72
129:0   Note on                 1, note 87, velocity 72
129:0   Note on                 1, note 75, velocity 72
129:0   Note off                5, note 100, velocity 127
129:0   Note off                5, note 88, velocity 127
129:0   Note on                 5, note 99, velocity 72
129:0   Note on                 5, note 87, velocity 72
129:0   Note off                0, note 66, velocity 106
129:0   Note on                 0, note 71, velocity 88
129:0   Note off                4, note 102, velocity 106
129:0   Note on                 4, note 107, velocity 106
129:0   Note off                0, note 71, velocity 106
129:0   Note on                 0, note 75, velocity 88
129:0   Note off                1, note 37, velocity 110
129:0   Note off                2, note 37, velocity 106
129:0   Note off                3, note 37, velocity 110
129:0   Note off                4, note 107, velocity 106
129:0   Note on                 4, note 111, velocity 106
129:0   Note off                0, note 75, velocity 106
129:0   Note on                 0, note 68, velocity 88
129:0   Note on                 1, note 37, velocity 110
129:0   Note on                 2, note 37, velocity 106
129:0   Note on                 3, note 37, velocity 110
129:0   Note off                4, note 111, velocity 106
129:0   Note on                 4, note 104, velocity 106
129:0   Note off                6, note 87, velocity 112
129:0   Note off                6, note 75, velocity 112
129:0   Note on                 6, note 81, velocity 112
129:0   Note on                 6, note 69, velocity 112
129:0   Note off                1, note 99, velocity 127
129:0   Note off                1, note 87, velocity 127
129:0   Note off                1, note 75, velocity 127
129:0   Note on                 1, note 93, velocity 72
129:0   Note on                 1, note 81, velocity 72
129:0   Note on                 1, note 69, velocity 72
129:0   Note off                5, note 99, velocity 127
129:0   Note off                5, note 87, velocity 127
129:0   Note on                 5, note 93, velocity 72
129:0   Note on                 5, note 81, velocity 72
129:0   Note off                0, note 68, velocity 106
129:0   Note on                 0, note 73, velocity 88
129:0   Note off                4, note 104, velocity 106
129:0   Note on                 4, note 109, velocity 106
129:0   Note off                0, note 73, velocity 106
129:0   Note on                 0, note 77, velocity 88
129:0   Note off                1, note 37, velocity 110
129:0   Note off                2, note 37, velocity 106
129:0   Note off                3, note 37, velocity 110
129:0   Note off                4, note 109, velocity 106
129:0   Note on                 4, note 113, velocity 106
129:0   Note off                0, note 77, velocity 106
129:0   Note on                 0, note 70, velocity 88
129:0   Note on                 1, note 37, velocity 110
129:0   Note on                 2, note 37, velocity 106
129:0   Note on                 3, note 37, velocity 110
129:0   Note off                4, note 113, velocity 106
129:0   Note on                 4, note 106, velocity 106
129:0   Note off                6, note 81, velocity 112
129:0   Note off                6, note 69, velocity 112
129:0   Note on                 6, note 80, velocity 112
129:0   Note on                 6, note 68, velocity 112
129:0   Note off                1, note 93, velocity 127
129:0   Note off                1, note 81, velocity 127
129:0   Note off                1, note 69, velocity 127
129:0   Note on                 1, note 92, velocity 72
129:0   Note on                 1, note 80, velocity 72
129:0   Note on                 1, note 68, velocity 72
129:0   Note off                5, note 93, velocity 127
129:0   Note off                5, note 81, velocity 127
129:0   Note on                 5, note 92, velocity 72
129:0   Note on                 5, note 80, velocity 72
129:0   Note off                0, note 70, velocity 106
129:0   Note on                 0, note 75, velocity 88
129:0   Note off                4, note 106, velocity 106
129:0   Note on                 4, note 111, velocity 106
129:0   Note off                0, note 75, velocity 106
129:0   Note on                 0, note 79, velocity 88
129:0   Note off                1, note 37, velocity 110
129:0   Note off                2, note 37, velocity 106
129:0   Note off                3, note 37, velocity 110
129:0   Note off                4, note 111, velocity 106
129:0   Note on                 4, note 115, velocity 106
129:0   Note off                0, note 79, velocity 106
129:0   Note on                 0, note 72, velocity 88
129:0   Note on                 1, note 37, velocity 110
129:0   Note on                 2, note 37, velocity 106
129:0   Note on                 3, note 37, velocity 110
129:0   Note off                4, note 115, velocity 106
129:0   Note on                 4, note 108, velocity 106
129:0   Note off                6, note 80, velocity 112
129:0   Note off                6, note 68, velocity 112
129:0   Note on                 6, note 79, velocity 112
129:0   Note on                 6, note 67, velocity 112
129:0   Note off                1, note 92, velocity 127
129:0   Note off                1, note 80, velocity 127
129:0   Note off                1, note 68, velocity 127
129:0   Note on                 1, note 91, velocity 74
129:0   Note on                 1, note 79, velocity 74
129:0   Note on                 1, note 67, velocity 74
129:0   Note off                5, note 92, velocity 127
129:0   Note off                5, note 80, velocity 127
129:0   Note on                 5, note 91, velocity 74
129:0   Note on                 5, note 79, velocity 74
129:0   Note off                0, note 72, velocity 106
129:0   Note on                 0, note 77, velocity 88
129:0   Note off                4, note 108, velocity 106
129:0   Note on                 4, note 113, velocity 106
129:0   Note off                0, note 77, velocity 106
129:0   Note on                 0, note 81, velocity 88
129:0   Note off                1, note 37, velocity 110
129:0   Note off                2, note 37, velocity 106
129:0   Note off                3, note 37, velocity 110
129:0   Note off                4, note 113, velocity 106
129:0   Note on                 4, note 117, velocity 106
129:0   Note off                0, note 81, velocity 106
129:0   Note on                 0, note 76, velocity 88
129:0   Note on                 1, note 37, velocity 110
129:0   Note on                 2, note 37, velocity 106
129:0   Note on                 3, note 37, velocity 110
129:0   Note off                4, note 117, velocity 106
129:0   Note on                 4, note 112, velocity 106
129:0   Note off                6, note 79, velocity 112
129:0   Note off                6, note 67, velocity 112
129:0   Note on                 6, note 76, velocity 112
129:0   Note on                 6, note 64, velocity 112
129:0   Note off                1, note 91, velocity 127
129:0   Note off                1, note 79, velocity 127
129:0   Note off                1, note 67, velocity 127
129:0   Note on                 1, note 88, velocity 74
129:0   Note on                 1, note 76, velocity 74
129:0   Note on                 1, note 64, velocity 74
129:0   Note off                5, note 91, velocity 127
129:0   Note off                5, note 79, velocity 127
129:0   Note on                 5, note 88, velocity 74
129:0   Note on                 5, note 76, velocity 74
129:0   Note off                0, note 76, velocity 106
129:0   Note on                 0, note 81, velocity 88
129:0   Note off                4, note 112, velocity 106
129:0   Note on                 4, note 117, velocity 106
129:0   Note off                0, note 81, velocity 106
129:0   Note on                 0, note 85, velocity 88
129:0   Note off                1, note 37, velocity 110
129:0   Note off                2, note 37, velocity 106
129:0   Note off                3, note 37, velocity 110
129:0   Note off                4, note 117, velocity 106
129:0   Note on                 4, note 121, velocity 106
129:0   Note off                0, note 85, velocity 106
129:0   Note on                 0, note 79, velocity 88
129:0   Note on                 1, note 37, velocity 110
129:0   Note on                 2, note 37, velocity 106
129:0   Note on                 3, note 37, velocity 110
129:0   Note off                4, note 121, velocity 106
129:0   Note on                 4, note 115, velocity 106
129:0   Note off                6, note 76, velocity 112
129:0   Note off                6, note 64, velocity 112
129:0   Note on                 6, note 85, velocity 112
129:0   Note on                 6, note 73, velocity 112
129:0   Note off                1, note 88, velocity 127
129:0   Note off                1, note 76, velocity 127
129:0   Note off                1, note 64, velocity 127
129:0   Note on                 1, note 97, velocity 74
129:0   Note on                 1, note 85, velocity 74
129:0   Note on                 1, note 73, velocity 74
129:0   Note off                5, note 88, velocity 127
129:0   Note off                5, note 76, velocity 127
129:0   Note on                 5, note 97, velocity 74
129:0   Note on                 5, note 85, velocity 74
129:0   Note off                0, note 79, velocity 106
129:0   Note on                 0, note 80, velocity 88
129:0   Note off                4, note 115, velocity 106
129:0   Note on                 4, note 115, velocity 106
129:0   Note off                0, note 80, velocity 106
129:0   Note on                 0, note 81, velocity 88
129:0   Note off                1, note 37, velocity 110
129:0   Note off                2, note 37, velocity 106
129:0   Note off                3, note 37, velocity 110
129:0   Note off                4, note 115, velocity 106
129:0   Note on                 4, note 117, velocity 106
129:0   Note off                0, note 81, velocity 106
129:0   Note on                 1, note 37, velocity 110
129:0   Note on                 2, note 37, velocity 106
129:0   Note on                 3, note 37, velocity 110
129:0   Note off                4, note 117, velocity 106
129:0   Note on                 4, note 106, velocity 106
129:0   Note off                6, note 85, velocity 112
129:0   Note off                6, note 73, velocity 112
129:0   Note on                 6, note 87, velocity 112
129:0   Note on                 6, note 75, velocity 112
129:0   Note off                1, note 97, velocity 127
129:0   Note off                1, note 85, velocity 127
129:0   Note off                1, note 73, velocity 127
129:0   Note on                 1, note 99, velocity 74
129:0   Note on                 1, note 87, velocity 74
129:0   Note on                 1, note 75, velocity 74
129:0   Note off                5, note 97, velocity 127
129:0   Note off                5, note 85, velocity 127
129:0   Note on                 5, note 99, velocity 74
129:0   Note on                 5, note 87, velocity 74
129:0   Note off                4, note 106, velocity 106
129:0   Note on                 4, note 114, velocity 106
129:0   Note off                4, note 114, velocity 106
129:0   Note on                 4, note 116, velocity 106
129:0   Note off                4, note 116, velocity 106
129:0   Note on                 4, note 109, velocity 106
129:0   Note off                4, note 109, velocity 106
129:0   Note on                 4, note 111, velocity 106
129:0   Note off                4, note 111, velocity 106
129:0   Note on                 4, note 112, velocity 106
129:0   Note off                4, note 112, velocity 106
129:0   Note on                 4, note 106, velocity 106
129:0   Note off                4, note 106, velocity 106
129:0   Note on                 4, note 110, velocity 106
129:0   Note off                4, note 110, velocity 106
129:0   Note on                 4, note 103, velocity 106
129:0   Note off                4, note 103, velocity 106
129:0   Note on                 4, note 102, velocity 106
129:0   Note off                4, note 102, velocity 106
129:0   Note on                 4, note 107, velocity 106
129:0   Note off                4, note 107, velocity 106
129:0   Note on                 4, note 111, velocity 106
129:0   Note off                4, note 111, velocity 106
129:0   Note on                 4, note 104, velocity 106
129:0   Note off                4, note 104, velocity 106
129:0   Note on                 4, note 109, velocity 106
129:0   Note off                4, note 109, velocity 106
129:0   Note on                 4, note 113, velocity 106
129:0   Note off                4, note 113, velocity 106
129:0   Note on                 4, note 106, velocity 106
129:0   Note off                4, note 106, velocity 106
129:0   Note on                 4, note 111, velocity 106
129:0   Note off                6, note 75, velocity 112
129:0   Note off                6, note 87, velocity 112
129:0   Note off                1, note 75, velocity 127
129:0   Note off                1, note 87, velocity 127
129:0   Note off                1, note 99, velocity 127
129:0   Note off                5, note 87, velocity 127
129:0   Note off                5, note 99, velocity 127
129:0   Note off                4, note 111, velocity 106
129:0   Note on                 4, note 115, velocity 106
129:0   Note off                4, note 115, velocity 106
129:0   Note on                 4, note 108, velocity 106
129:0   Note on                 6, note 91, velocity 112
129:0   Note on                 6, note 79, velocity 112
129:0   Note on                 1, note 103, velocity 76
129:0   Note on                 1, note 91, velocity 76
129:0   Note on                 1, note 79, velocity 76
129:0   Note on                 5, note 103, velocity 76
129:0   Note on                 5, note 91, velocity 76
129:0   Note off                4, note 108, velocity 106
129:0   Note on                 4, note 113, velocity 106
129:0   Note off                4, note 113, velocity 106
129:0   Note on                 4, note 117, velocity 106
129:0   Note off                4, note 117, velocity 106
129:0   Note on                 4, note 112, velocity 106
129:0   Note off                6, note 91, velocity 112
129:0   Note off                6, note 79, velocity 112
129:0   Note on                 6, note 88, velocity 112
129:0   Note on                 6, note 76, velocity 112
129:0   Note off                1, note 103, velocity 127
129:0   Note off                1, note 91, velocity 127
129:0   Note off                1, note 79, velocity 127
129:0   Note on                 1, note 100, velocity 76
129:0   Note on                 1, note 88, velocity 76
129:0   Note on                 1, note 76, velocity 76
129:0   Note off                5, note 103, velocity 127
129:0   Note off                5, note 91, velocity 127
129:0   Note on                 5, note 100, velocity 76
129:0   Note on                 5, note 88, velocity 76
129:0   Note off                4, note 112, velocity 106
129:0   Note on                 4, note 117, velocity 106
129:0   Note off                4, note 117, velocity 106
129:0   Note on                 4, note 121, velocity 106
129:0   Note off                4, note 121, velocity 106
129:0   Note on                 4, note 112, velocity 106
129:0   Note off                6, note 88, velocity 112
129:0   Note off                6, note 76, velocity 112
129:0   Note on                 6, note 87, velocity 112
129:0   Note on                 6, note 75, velocity 112
129:0   Note off                1, note 100, velocity 127
129:0   Note off                1, note 88, velocity 127
129:0   Note off                1, note 76, velocity 127
129:0   Note on                 1, note 99, velocity 76
129:0   Note on                 1, note 87, velocity 76
129:0   Note on                 1, note 75, velocity 76
129:0   Note off                5, note 100, velocity 127
129:0   Note off                5, note 88, velocity 127
129:0   Note on                 5, note 99, velocity 76
129:0   Note on                 5, note 87, velocity 76
129:0   Note off                4, note 112, velocity 106
129:0   Note on                 4, note 116, velocity 106
129:0   Note off                4, note 116, velocity 106
129:0   Note on                 4, note 105, velocity 106
129:0   Note off                4, note 105, velocity 106
129:0   Note on                 4, note 106, velocity 106
129:0   Note off                6, note 87, velocity 112
129:0   Note off                6, note 75, velocity 112
129:0   Note on                 6, note 81, velocity 112
129:0   Note on                 6, note 69, velocity 112
129:0   Note off                1, note 99, velocity 127
129:0   Note off                1, note 87, velocity 127
129:0   Note off                1, note 75, velocity 127
129:0   Note on                 1, note 93, velocity 76
129:0   Note on                 1, note 81, velocity 76
129:0   Note on                 1, note 69, velocity 76
129:0   Note off                5, note 99, velocity 127
129:0   Note off                5, note 87, velocity 127
129:0   Note on                 5, note 93, velocity 76
129:0   Note on                 5, note 81, velocity 76
129:0   Note off                4, note 106, velocity 106
129:0   Note on                 4, note 114, velocity 106
129:0   Note off                4, note 114, velocity 106
129:0   Note on                 4, note 115, velocity 106
129:0   Note off                4, note 115, velocity 106
129:0   Note on                 4, note 104, velocity 106
129:0   Note off                6, note 81, velocity 112
129:0   Note off                6, note 69, velocity 112
129:0   Note on                 6, note 80, velocity 112
129:0   Note on                 6, note 68, velocity 112
129:0   Note off                1, note 93, velocity 127
129:0   Note off                1, note 81, velocity 127
129:0   Note off                1, note 69, velocity 127
129:0   Note on                 1, note 92, velocity 78
129:0   Note on                 1, note 80, velocity 78
129:0   Note on                 1, note 68, velocity 78
129:0   Note off                5, note 93, velocity 127
129:0   Note off                5, note 81, velocity 127
129:0   Note on                 5, note 92, velocity 78
129:0   Note on                 5, note 80, velocity 78
129:0   Note off                4, note 104, velocity 106
129:0   Note on                 4, note 111, velocity 106
129:0   Note off                4, note 111, velocity 106
129:0   Note on                 4, note 112, velocity 106
129:0   Note off                4, note 112, velocity 106
129:0   Note on                 4, note 105, velocity 106
129:0   Note off                6, note 80, velocity 112
129:0   Note off                6, note 68, velocity 112
129:0   Note on                 6, note 79, velocity 112
129:0   Note on                 6, note 67, velocity 112
129:0   Note off                1, note 92, velocity 127
129:0   Note off                1, note 80, velocity 127
129:0   Note off                1, note 68, velocity 127
129:0   Note on                 1, note 91, velocity 78
129:0   Note on                 1, note 79, velocity 78
129:0   Note on                 1, note 67, velocity 78
129:0   Note off                5, note 92, velocity 127
129:0   Note off                5, note 80, velocity 127
129:0   Note on                 5, note 91, velocity 78
129:0   Note on                 5, note 79, velocity 78
129:0   Note off                4, note 105, velocity 106
129:0   Note on                 4, note 110, velocity 106
129:0   Note off                4, note 110, velocity 106
129:0   Note on                 4, note 115, velocity 106
129:0   Note off                4, note 115, velocity 106
129:0   Note on                 4, note 102, velocity 106
129:0   Note off                6, note 79, velocity 112
129:0   Note off                6, note 67, velocity 112
129:0   Note on                 6, note 76, velocity 112
129:0   Note on                 6, note 64, velocity 112
129:0   Note off                1, note 91, velocity 127
129:0   Note off                1, note 79, velocity 127
129:0   Note off                1, note 67, velocity 127
129:0   Note on                 1, note 88, velocity 78
129:0   Note on                 1, note 76, velocity 78
129:0   Note on                 1, note 64, velocity 78
129:0   Note off                5, note 91, velocity 127
129:0   Note off                5, note 79, velocity 127
129:0   Note on                 5, note 88, velocity 78
129:0   Note on                 5, note 76, velocity 78
129:0   Note off                4, note 102, velocity 106
129:0   Note on                 4, note 107, velocity 106
129:0   Note off                4, note 107, velocity 106
129:0   Note on                 4, note 111, velocity 106
129:0   Note off                4, note 111, velocity 106
129:0   Note on                 4, note 104, velocity 106
129:0   Note off                6, note 76, velocity 112
129:0   Note off                6, note 64, velocity 112
129:0   Note on                 6, note 85, velocity 112
129:0   Note on                 6, note 73, velocity 112
129:0   Note off                1, note 88, velocity 127
129:0   Note off                1, note 76, velocity 127
129:0   Note off                1, note 64, velocity 127
129:0   Note on                 1, note 97, velocity 78
129:0   Note on                 1, note 85, velocity 78
129:0   Note on                 1, note 73, velocity 78
129:0   Note off                5, note 88, velocity 127
129:0   Note off                5, note 76, velocity 127
129:0   Note on                 5, note 97, velocity 78
129:0   Note on                 5, note 85, velocity 78
129:0   Note off                4, note 104, velocity 106
129:0   Note on                 4, note 109, velocity 106
129:0   Note off                4, note 109, velocity 106
129:0   Note on                 4, note 113, velocity 106
129:0   Note off                4, note 113, velocity 106
129:0   Note on                 4, note 109, velocity 106
129:0   Note on                 5, note 73, velocity 100
129:0   Note on                 5, note 85, velocity 100
129:0   Note off                6, note 85, velocity 112
129:0   Note off                6, note 73, velocity 112
129:0   Note on                 6, note 87, velocity 112
129:0   Note on                 6, note 75, velocity 112
129:0   Note off                1, note 97, velocity 127
129:0   Note off                1, note 85, velocity 127
129:0   Note off                1, note 73, velocity 127
129:0   Note on                 1, note 99, velocity 78
129:0   Note on                 1, note 87, velocity 78
129:0   Note on                 1, note 75, velocity 78
129:0   Note off                5, note 97, velocity 127
129:0   Note off                5, note 85, velocity 127
129:0   Note on                 5, note 99, velocity 78
129:0   Note on                 5, note 87, velocity 78
129:0   Note off                4, note 109, velocity 106
129:0   Note on                 4, note 108, velocity 106
129:0   Note off                5, note 73, velocity 100
129:0   Note off                5, note 85, velocity 100
129:0   Note on                 5, note 73, velocity 98
129:0   Note on                 5, note 84, velocity 98
129:0   Note off                4, note 108, velocity 106
129:0   Note off                5, note 73, velocity 100
129:0   Note off                5, note 84, velocity 100
129:0   Note on                 4, note 109, velocity 106
129:0   Note on                 5, note 73, velocity 92
129:0   Note on                 5, note 85, velocity 92
129:0   Note off                4, note 109, velocity 106
129:0   Note on                 4, note 108, velocity 106
129:0   Note off                5, note 73, velocity 100
129:0   Note off                5, note 85, velocity 100
129:0   Note on                 5, note 73, velocity 89
129:0   Note on                 5, note 84, velocity 89
129:0   Note off                4, note 108, velocity 106
129:0   Note off                5, note 73, velocity 100
129:0   Note off                5, note 84, velocity 100
129:0   Note on                 4, note 109, velocity 106
129:0   Note on                 5, note 73, velocity 84
129:0   Note on                 5, note 85, velocity 84
129:0   Note off                4, note 109, velocity 106
129:0   Note on                 4, note 108, velocity 106
129:0   Note off                5, note 73, velocity 100
129:0   Note off                5, note 85, velocity 100
129:0   Note on                 5, note 73, velocity 81
129:0   Note on                 5, note 84, velocity 81
129:0   Note off                4, note 108, velocity 106
129:0   Note off                5, note 73, velocity 100
129:0   Note off                5, note 84, velocity 100
129:0   Note on                 4, note 109, velocity 106
129:0   Note on                 5, note 73, velocity 75
129:0   Note on                 5, note 85, velocity 75
129:0   Note off                4, note 109, velocity 106
129:0   Note on                 4, note 108, velocity 106
129:0   Note off                5, note 73, velocity 100
129:0   Note off                5, note 85, velocity 100
129:0   Note on                 5, note 73, velocity 73
129:0   Note on                 5, note 84, velocity 73
129:0   Note off                4, note 108, velocity 106
129:0   Note off                5, note 73, velocity 100
129:0   Note off                5, note 84, velocity 100
129:0   Note on                 4, note 109, velocity 106
129:0   Note on                 5, note 73, velocity 67
129:0   Note on                 5, note 85, velocity 67
129:0   Note off                4, note 109, velocity 106
129:0   Note on                 4, note 108, velocity 106
129:0   Note off                5, note 73, velocity 100
129:0   Note off                5, note 85, velocity 100
129:0   Note on                 5, note 73, velocity 64
129:0   Note on                 5, note 84, velocity 64
129:0   Note off                4, note 108, velocity 106
129:0   Note off                5, note 73, velocity 100
129:0   Note off                5, note 84, velocity 100
129:0   Note on                 4, note 109, velocity 106
129:0   Note on                 5, note 73, velocity 59
129:0   Note on                 5, note 85, velocity 59
129:0   Note off                4, note 109, velocity 106
129:0   Note on                 4, note 108, velocity 106
129:0   Note off                5, note 73, velocity 100
129:0   Note off                5, note 85, velocity 100
129:0   Note on                 5, note 73, velocity 56
129:0   Note on                 5, note 84, velocity 56
129:0   Note off                6, note 75, velocity 112
129:0   Note off                6, note 87, velocity 112
129:0   Note off                1, note 75, velocity 127
129:0   Note off                1, note 87, velocity 127
129:0   Note off                1, note 99, velocity 127
129:0   Note off                5, note 87, velocity 127
129:0   Note off                5, note 99, velocity 127
129:0   Note off                4, note 108, velocity 106
129:0   Note off                5, note 73, velocity 100
129:0   Note off                5, note 84, velocity 100
129:0   Note on                 4, note 109, velocity 106
129:0   Note on                 5, note 73, velocity 50
129:0   Note on                 5, note 85, velocity 50
129:0   Note off                4, note 109, velocity 106
129:0   Note on                 4, note 108, velocity 106
129:0   Note off                5, note 73, velocity 100
129:0   Note off                5, note 85, velocity 100
129:0   Note on                 5, note 73, velocity 48
129:0   Note on                 5, note 84, velocity 48
129:0   Note off                4, note 108, velocity 106
129:0   Note off                5, note 73, velocity 100
129:0   Note off                5, note 84, velocity 100
129:0   Note on                 4, note 109, velocity 106
129:0   Note on                 5, note 73, velocity 42
129:0   Note on                 5, note 85, velocity 42
129:0   Note off                4, note 109, velocity 106
129:0   Note on                 4, note 108, velocity 106
129:0   Note off                5, note 73, velocity 100
129:0   Note off                5, note 85, velocity 100
129:0   Note on                 5, note 73, velocity 39
129:0   Note on                 5, note 84, velocity 39
129:0   Note off                4, note 108, velocity 106
129:0   Note off                5, note 73, velocity 100
129:0   Note off                5, note 84, velocity 100
129:0   Note on                 4, note 109, velocity 106
129:0   Note on                 5, note 73, velocity 34
129:0   Note on                 5, note 85, velocity 34
129:0   Note off                4, note 109, velocity 106
129:0   Note on                 4, note 108, velocity 106
129:0   Note off                5, note 73, velocity 100
129:0   Note off                5, note 85, velocity 100
129:0   Note on                 5, note 73, velocity 31
129:0   Note on                 5, note 84, velocity 31
129:0   Note off                4, note 108, velocity 106
129:0   Note off                5, note 73, velocity 100
129:0   Note off                5, note 84, velocity 100
129:0   Note on                 4, note 109, velocity 105
129:0   Note on                 5, note 73, velocity 25
129:0   Note on                 5, note 85, velocity 25
129:0   Note off                4, note 109, velocity 106
129:0   Note on                 4, note 108, velocity 103
129:0   Note off                5, note 73, velocity 100
129:0   Note off                5, note 85, velocity 100
129:0   Note on                 5, note 73, velocity 23
129:0   Note on                 5, note 84, velocity 23
129:0   Note off                4, note 108, velocity 106
129:0   Note off                5, note 73, velocity 100
129:0   Note off                5, note 84, velocity 100
129:0   Note on                 4, note 109, velocity 98
129:0   Note on                 5, note 73, velocity 17
129:0   Note on                 5, note 85, velocity 17
129:0   Note off                4, note 109, velocity 106
129:0   Note on                 4, note 108, velocity 95
129:0   Note off                5, note 73, velocity 100
129:0   Note off                5, note 85, velocity 100
129:0   Note on                 5, note 73, velocity 14
129:0   Note on                 5, note 84, velocity 14
129:0   Note off                4, note 108, velocity 106
129:0   Note off                5, note 73, velocity 100
129:0   Note off                5, note 84, velocity 100
129:0   Note on                 4, note 109, velocity 91
129:0   Note on                 5, note 73, velocity 9
129:0   Note on                 5, note 85, velocity 9
129:0   Note off                1, note 37, velocity 110
129:0   Note off                2, note 37, velocity 106
129:0   Note off                3, note 37, velocity 110
129:0   Note off                4, note 109, velocity 106
129:0   Note on                 4, note 108, velocity 88
129:0   Note off                5, note 73, velocity 100
129:0   Note off                5, note 85, velocity 100
129:0   Note on                 5, note 73, velocity 6
129:0   Note on                 5, note 84, velocity 6
129:0   Note off                4, note 108, velocity 106
129:0   Note off                5, note 73, velocity 100
129:0   Note off                5, note 84, velocity 100
129:0   Note on                 4, note 109, velocity 90
129:0   Note off                4, note 109, velocity 90
  0:1   Port unsubscribed          129:0 -> 128:0
